<svg width="215" height="185" viewBox="0 0 215 185" fill="none" xmlns="http://www.w3.org/2000/svg">
<g clip-path="url(#clip0_63_155)">
<g opacity="0.25">
<path opacity="0.25" d="M2.86664 74.0277C3.84636 72.9309 4.5828 71.6389 5.02773 70.2366C5.47265 68.8343 5.61513 67.3537 5.44527 65.8924C5.32034 58.0079 9.78057 52.5963 18.9345 53.3488C20.7438 53.5872 22.5827 53.4646 24.3449 52.9878C26.107 52.5111 27.7564 51.6898 29.1996 50.5713C39.4812 42.9377 52.0211 48.0805 53.9199 60.8749C54.2078 64.172 55.7615 67.2292 58.255 69.4046C70.3467 81.285 66.0116 99.9929 46.6112 104.078C43.7595 104.725 41.1349 106.13 39.0154 108.146C37.2324 109.568 35.1404 110.55 32.907 111.013C32.6462 118.365 33.0659 125.726 34.1607 133C31.3486 133 28.9837 133 26.8522 133C28.0325 125.747 28.4643 118.391 28.1421 111.049C25.8747 110.642 23.7443 109.675 21.9438 108.236C20.278 106.841 18.255 105.941 16.1038 105.637C9.76304 104.437 6.84252 101.337 6.19813 95.1367C6.08855 92.9395 5.18444 90.8569 3.65459 89.2771C2.57734 88.3433 1.69953 87.2015 1.07378 85.9202C0.448025 84.6388 0.0885817 83.2443 0.0140656 81.8203C-0.0593596 80.3963 0.155438 78.9719 0.645299 77.6329C1.13516 76.294 1.89131 75.0676 2.86664 74.0277Z" fill="#00625E"/>
</g>
<g opacity="0.25">
<path opacity="0.25" d="M207.527 43.598C213.919 46.1701 213.688 53.2177 205.499 52.4976C197.976 51.6495 190.381 51.6495 182.858 52.4976C174.583 53.7994 166.169 53.9465 157.855 52.9349C152.557 52.2806 147.207 52.1686 141.887 52.6005C134.007 53.0891 134.571 46.0672 140.424 44.3695C143.988 43.4827 147.3 41.7839 150.102 39.4054C155.826 34.5956 159.01 33.4123 165.504 34.9812C167.068 35.4162 168.716 35.4434 170.293 35.0609C171.87 34.6782 173.323 33.8983 174.515 32.795C180.727 27.6507 188.993 27.0334 196.206 35.3671C199.04 39.2169 202.995 42.0923 207.527 43.598Z" fill="#00625E"/>
</g>
<g opacity="0.25">
<path opacity="0.25" d="M115.135 91.2425C110.669 93.0172 110.823 97.9558 116.573 97.4671C121.836 96.8761 127.148 96.8761 132.412 97.4671C138.205 98.3831 144.097 98.4869 149.919 97.7757C153.625 97.3367 157.365 97.2591 161.086 97.5442C166.605 97.8786 166.22 92.9657 162.112 91.7826C159.613 91.1744 157.291 89.985 155.335 88.3103C151.331 84.9407 149.097 84.1176 144.528 85.2236C143.431 85.5196 142.277 85.5335 141.173 85.2636C140.069 84.9939 139.051 84.4493 138.213 83.6803C133.875 80.0022 128.099 79.6678 123.068 85.4809C121.079 88.1746 118.309 90.1869 115.135 91.2425Z" fill="#00625E"/>
</g>
<path d="M0.652756 138.449C0.652756 138.578 1.16629 138.578 2.01274 138.449C2.86078 138.32 4.06685 138.115 5.55562 137.78C7.04437 137.445 8.84251 137.059 10.972 136.699L18.1347 135.465C18.777 135.336 19.4696 135.284 20.137 135.182L22.1911 134.951C23.6029 134.796 25.0917 134.642 26.7343 134.411L31.4582 133.793C32.9469 133.613 34.5629 133.511 36.2574 133.432H38.825L41.3927 133.305C43.1374 133.305 44.9088 133.099 46.7054 133.124H52.1736C53.9969 133.124 55.8453 133.124 57.667 133.278C59.4902 133.432 61.0041 133.278 62.6735 133.484L65.2395 133.638L67.653 133.819L70.2201 134.024L72.7871 134.282L77.5875 134.745C79.1791 134.899 80.7449 135.13 82.2852 135.311L84.5699 135.594L86.983 135.851C88.5231 136.005 89.9351 136.107 91.1416 136.288L95.1718 136.932C96.5066 137.188 97.9186 137.42 99.2277 137.6L102.822 138.115C104.952 138.423 106.98 138.886 108.88 139.246L116.581 140.711L120.534 141.509L124.051 142.178L127.363 142.718L128.826 142.976H129.57H130.289C132.112 143.207 133.37 143.284 134.242 143.336C135.115 143.386 135.654 143.336 135.654 143.336C135.654 143.336 135.192 143.053 134.217 142.821C133.241 142.59 131.804 142.307 130.264 141.999L129.673 141.869L129.031 141.74L127.568 141.407L124.308 140.711L120.714 139.966C119.456 139.684 118.147 139.374 116.53 139.092L108.829 137.703C107.083 137.394 104.978 136.932 102.514 136.571L98.9198 136.109C97.7132 135.953 96.558 135.774 95.2489 135.542L91.0645 134.925C89.473 134.693 87.9328 134.59 86.5466 134.461L84.4929 134.282L82.2083 134.024L77.5361 133.511L72.7358 133.099L70.3227 132.892L67.7557 132.713L65.1893 132.532L62.6216 132.405C60.9523 132.405 59.2845 132.405 57.4879 132.25H51.9679H47.0399C45.2167 132.25 43.4452 132.25 41.6738 132.405H39.1077H36.5401C34.8456 132.405 33.1511 132.559 31.4064 132.738L26.6825 133.278C25.2958 133.459 23.8071 133.613 22.345 133.742L20.137 133.974L18.0577 134.23L10.7663 135.465C8.6101 135.826 6.78841 136.34 5.196 136.726C3.60516 137.111 2.62991 137.446 1.73164 137.703C0.831787 137.959 0.62764 138.32 0.652756 138.449Z" fill="#00625E"/>
<path d="M42.8363 40.4156C35.3124 40.8002 30.9215 49.2576 35.6956 62.2855C40.4696 75.3134 54.3035 83.0233 53.2812 83.9844C47.8663 89.0248 37.7842 106.089 32.605 110.596C25.2507 117.003 23.1416 124.841 30.4739 131.119C32.4134 132.786 35.9091 133 33.9477 134.515C28.5548 138.787 21.1582 152.776 21.2649 159.141C21.2649 159.931 9.56372 154.612 9.56372 167.277C9.56372 179.943 21.9481 179.963 23.9724 175.329C23.9724 175.329 29.1312 184.278 42.7939 184.769C50.3397 185.025 59.9947 182.634 66.2401 183.167C72.4855 183.702 78.8374 184.684 80.841 179.793C82.8447 174.903 80.1803 172.233 77.6651 171.891C75.1499 171.55 63.8956 172.253 63.8956 170.289C64.585 167.96 65.7126 165.784 67.2207 163.882C71.6083 159.123 74.8718 153.437 76.7698 147.245C77.1109 146.007 78.3044 146.667 80.8196 155.958C82.1199 160.721 91.4773 159.355 91.6477 155.382C91.8182 151.408 87.7684 134.709 77.1109 130.008C73.0609 128.258 83.5054 124.328 87.6618 123.218C93.4595 121.68 95.7828 124.392 101.005 123.623C103.755 123.196 103.733 118.647 103.499 117.814C101.367 109.698 89.2178 111.813 79.9245 114.718C76.9617 115.636 72.7839 113.158 76.0237 110.873C82.4183 106.345 91.3279 107.05 94.6104 96.5851C95.8182 92.335 95.4782 87.793 93.6514 83.7708C92.4791 82.0836 88.1733 84.3261 83.207 80.8662C80.9262 79.2645 73.2742 75.7832 69.203 76.3171C61.0814 77.3851 63.7889 76.9152 62.8089 77.2996C61.4018 77.7909 56.1582 71.405 52.5776 66.258C49.487 61.7944 48.6123 57.1385 49.2954 50.2828C49.977 43.427 48.3563 40.138 42.8363 40.4156Z" fill="white"/>
<path d="M60.5294 80.097C60.5294 80.097 60.5294 79.8833 60.743 79.6912C61.0178 79.4429 61.3256 79.2344 61.6585 79.0718C62.1642 78.8136 62.684 78.5855 63.2148 78.3883C63.9136 78.1471 64.625 77.9474 65.3459 77.7904L65.9426 77.6621L66.5615 77.534C67.0176 77.4343 67.4808 77.3701 67.9469 77.3419C68.4295 77.3086 68.9139 77.3086 69.3965 77.3419C69.8654 77.3419 70.3343 77.3419 70.8672 77.3419H71.6558H72.4445C72.9773 77.3419 73.5102 77.5554 74.043 77.6621C74.5862 77.772 75.1206 77.9219 75.6417 78.1107C76.1581 78.3269 76.6631 78.5693 77.155 78.8368L78.4766 79.5417L79.1373 79.8835L79.7981 80.2037L80.459 80.5027L81.141 80.823L82.4412 81.4425L83.7201 82.0191L84.3382 82.2754L84.9777 82.5958C85.3315 82.8106 85.7022 82.9962 86.086 83.1511C86.464 83.2776 86.8481 83.3846 87.2371 83.4714L88.3668 83.7702C88.6861 83.7921 89.0066 83.7921 89.3259 83.7702C89.9654 83.7702 90.5835 83.6209 91.223 83.6209C91.7035 83.6447 92.1724 83.7781 92.5936 84.0113C93.0148 84.2445 93.3771 84.5712 93.6529 84.9663C93.9285 85.3515 94.1441 85.7763 94.2924 86.2264C94.42 86.6276 94.4918 87.0444 94.5055 87.4652C94.5268 87.8208 94.5268 88.1774 94.5055 88.533V88.9815V89.4301V89.6436C94.4241 90.0584 94.288 90.4606 94.1004 90.8395C93.994 91.0958 93.9087 91.2241 93.8234 91.2241C93.7382 91.2241 93.6742 91.0532 93.6529 90.7542C93.6315 90.4552 93.6529 90.028 93.6529 89.5582V88.7679C93.6529 88.4476 93.6529 88.1272 93.6529 87.8068C93.6177 87.4706 93.5389 87.1404 93.4184 86.8245C93.3039 86.4772 93.1309 86.1521 92.9069 85.8634C92.7375 85.6196 92.5192 85.414 92.2659 85.2594C92.0126 85.1051 91.7301 85.0052 91.4361 84.9663C90.9671 84.9663 90.349 85.0731 89.5817 85.0731C89.1849 85.1128 88.785 85.1128 88.388 85.0731L87.2584 84.7528L86.022 84.3683C85.591 84.194 85.177 83.9795 84.7858 83.7278L84.2316 83.4286L83.507 83.0228L82.2281 82.4035L80.9491 81.7415L80.3096 81.3997L79.6489 81.0794L78.9881 80.7376L78.3274 80.3532L77.0271 79.627C76.5692 79.3445 76.0919 79.0948 75.5991 78.8796C75.1079 78.6881 74.6018 78.5381 74.0857 78.431C73.5805 78.3007 73.0681 78.2009 72.551 78.1321H71.805C71.5567 78.1103 71.3072 78.1103 71.0589 78.1321C70.5688 78.1321 70.0785 78.1321 69.5456 78.1321C69.0128 78.1321 68.5651 78.1321 68.1601 78.1321C67.7342 78.169 67.313 78.2476 66.9025 78.3671L66.2631 78.4951L65.6662 78.6446C64.8983 78.8155 64.2167 79.029 63.5352 79.2212L61.9993 79.7979L60.9989 80.1609C60.743 80.2037 60.5938 80.2037 60.5294 80.097Z" fill="#00625E"/>
<path d="M76.0031 109.121C76.0031 109.121 76.0031 108.929 76.1311 108.779C76.3185 108.617 76.5262 108.481 76.7492 108.374L77.751 107.861L79.0725 107.242L79.4562 107.092L79.8185 106.9C80.0865 106.74 80.3642 106.598 80.6499 106.473L81.5877 106.216C81.8949 106.109 82.1882 105.966 82.4616 105.789L82.9092 105.533L83.3995 105.319L84.3587 104.849L85.3178 104.337L86.277 103.803L87.1509 103.312L87.5773 103.055L87.9823 102.778L88.366 102.5L88.7496 102.18C88.9841 101.988 89.2398 101.795 89.453 101.582C89.6821 101.377 89.8959 101.156 90.0923 100.92L90.3909 100.599L90.7106 100.258C90.9331 100.099 91.1276 99.904 91.286 99.681C91.4346 99.4655 91.563 99.2367 91.6697 98.9977C91.7763 98.7627 91.9255 98.5278 92.0535 98.2929C92.1813 98.0579 92.3091 97.8871 92.3944 97.6948C92.5538 97.3255 92.6683 96.9384 92.7355 96.5415C92.8922 96.0555 92.9995 95.5545 93.0553 95.0465C93.0761 94.7907 93.0761 94.5336 93.0553 94.2777C93.0553 94.0215 93.0553 93.765 93.1617 93.5301V92.8895V92.5904V92.4623V92.3128C93.2486 92.0386 93.3629 91.7737 93.5028 91.5226C93.5028 91.3303 93.652 91.2236 93.7373 91.2236C93.8226 91.2236 93.9078 91.2236 93.9504 91.5226C93.9746 91.7997 93.9746 92.0784 93.9504 92.3555V94.4912C93.9801 94.7896 93.9801 95.0899 93.9504 95.3883C93.8612 95.9219 93.7403 96.4496 93.5881 96.9687C93.4799 97.4092 93.3299 97.8383 93.1404 98.2502C93.0125 98.4852 92.8634 98.6773 92.7355 98.9122C92.5833 99.122 92.448 99.3434 92.3305 99.5744C92.2055 99.8439 92.0555 100.101 91.8829 100.343C91.6866 100.601 91.449 100.825 91.1795 101.005C91.0729 101.005 90.9451 101.197 90.8598 101.304L90.5187 101.646C90.2998 101.883 90.0649 102.104 89.8153 102.308C89.5595 102.522 89.3038 102.735 89.0267 102.927L88.6216 103.205L88.1954 103.504L87.7691 103.782L87.3215 104.017L86.4048 104.486L85.4032 104.978L84.444 105.49C84.1243 105.682 83.7832 105.811 83.4848 105.981L82.9945 106.216C82.8434 106.286 82.7005 106.372 82.5681 106.473C82.2773 106.668 81.9707 106.84 81.6516 106.985C81.3107 107.092 80.991 107.177 80.7351 107.284C80.4705 107.41 80.2142 107.553 79.9678 107.711L79.5842 107.946L79.2005 108.117L77.8788 108.758C77.5329 108.922 77.1769 109.065 76.8132 109.185C76.5779 109.266 76.3351 109.324 76.0884 109.356C76.1737 109.249 76.0672 109.228 76.0031 109.121Z" fill="#00625E"/>
<path d="M60.2324 98.9766C60.2324 98.9766 59.9764 99.3184 59.4645 99.7028C58.7421 100.348 58.0857 101.063 57.503 101.839C56.6393 103.041 55.8635 104.304 55.1804 105.619C54.3481 107.156 53.4969 108.929 52.6017 110.915L51.9406 112.41L51.2794 113.969C50.8319 115.037 50.3623 116.105 49.7876 117.387C49.2112 118.668 48.594 119.736 47.9973 120.846C47.4005 121.957 46.8242 122.982 46.1646 124.306C45.8222 124.904 45.4815 125.545 45.0559 126.164C44.6287 126.784 44.2455 127.318 43.798 127.894C42.8965 129.058 41.8255 130.081 40.6226 130.927C39.3772 131.816 37.8869 132.293 36.3589 132.295C34.8214 132.183 33.3248 131.745 31.968 131.012C30.7053 130.4 29.5746 129.544 28.6434 128.493C28.177 127.959 27.7891 127.362 27.4923 126.72C27.1907 126.091 26.9819 125.422 26.8735 124.734C26.7337 124.031 26.6898 123.312 26.7463 122.598C26.7934 121.875 26.9159 121.16 27.1075 120.462C27.4734 119.151 28.0105 117.894 28.7062 116.725C29.3673 115.594 30.1227 114.522 30.966 113.521C31.4136 113.051 31.8408 112.56 32.2663 112.133L33.6734 110.744C34.5686 109.869 35.3789 109.079 36.0605 108.331C36.742 107.584 37.4676 106.665 38.1915 105.79L40.3242 103.184C40.9633 102.351 41.5381 101.582 42.0077 100.835C42.818 99.3398 43.7336 97.8234 44.6083 96.5633C46.3562 94.0219 47.6989 92.2918 48.3804 91.3309L50.4063 88.7251C51.0879 87.8708 51.8338 86.9953 52.5374 86.2905C53.2409 85.5857 53.8157 84.9236 54.4124 84.3043L55.3076 83.45L55.7552 83.0442L56.2027 82.6598C57.0445 81.9492 57.9852 81.3663 58.9949 80.9298C59.6985 80.6735 60.1037 80.6949 60.1037 80.759C60.1037 80.823 59.7629 80.9725 59.1237 81.3997C58.2349 81.977 57.4072 82.6425 56.6503 83.3858L56.2891 83.7276L55.9263 84.112L55.116 84.9877C54.5616 85.607 53.9445 86.2691 53.3477 87.1234C52.7509 87.9777 52.1102 88.5756 51.471 89.4086L49.34 92.1637C48.6788 93.018 47.3581 94.7479 45.673 97.1827C44.8423 98.4001 43.9691 99.7669 42.9452 101.582C42.4128 102.437 41.7941 103.227 41.1973 104.017L39.3003 106.388C38.6187 107.213 37.8727 108.089 37.0624 109.014C36.1877 109.976 35.2721 110.851 34.4194 111.642L33.2259 112.795C32.7783 113.222 32.3731 113.67 31.946 114.119C31.1435 115.053 30.4289 116.061 29.8149 117.13C29.1333 118.208 28.5963 119.372 28.2162 120.59C28.0231 121.194 27.8943 121.817 27.833 122.448C27.7577 123.073 27.7577 123.703 27.833 124.328C27.91 124.974 28.0749 125.606 28.323 126.207C28.5539 126.809 28.8774 127.371 29.2825 127.873C30.107 128.888 31.1294 129.723 32.2883 130.329C33.5509 131.047 34.9408 131.511 36.3808 131.697C37.7927 131.785 39.195 131.402 40.3666 130.606C41.5334 129.813 42.5762 128.849 43.4572 127.745C43.8828 127.19 44.3099 126.656 44.6931 126.058C45.0763 125.46 45.3966 124.926 45.7154 124.349C46.3766 123.153 46.9734 121.914 47.6345 120.633C48.2956 119.351 48.8924 118.262 49.3604 117.216C49.8299 116.169 50.2995 115.08 50.7471 113.948L51.4286 112.282L52.1102 110.723C53.0053 108.694 53.8377 106.879 54.7108 105.298C55.4379 103.899 56.3032 102.576 57.291 101.347C57.9271 100.569 58.6903 99.9041 59.5493 99.3825C59.8477 98.9552 60.2104 98.8698 60.2324 98.9766Z" fill="#00625E"/>
<path d="M46.3359 149.059C46.3359 149.059 46.9107 148.889 47.9974 149.059C49.5223 149.243 51.0189 149.616 52.4527 150.17C54.6654 151.018 56.7133 152.247 58.5067 153.8C60.8922 155.849 62.5584 158.612 63.2588 161.682C63.4598 162.536 63.5729 163.409 63.6012 164.287C63.6844 165.167 63.6844 166.055 63.6012 166.936C63.463 168.482 63.1787 170.014 62.7484 171.505C62.7484 171.634 62.7484 171.697 63.0892 171.847C64.9831 172.339 66.93 172.597 68.8866 172.616C70.7623 172.616 72.7658 172.616 74.9187 172.616C75.4748 172.629 76.0298 172.671 76.5813 172.744C77.1628 172.857 77.7236 173.058 78.2438 173.343C79.2656 173.9 80.1085 174.737 80.6737 175.755C80.9661 176.278 81.1454 176.855 81.2006 177.452C81.2557 178.048 81.1852 178.649 80.9934 179.216C80.579 180.336 79.8359 181.304 78.862 181.991C76.8971 183.319 74.522 183.895 72.1691 183.615C69.8456 183.466 67.5863 183.189 65.2846 183.231C62.9824 183.274 61.1277 183.359 59.0391 183.53L55.9265 183.807L52.8783 184.086L49.7453 184.32C48.701 184.32 47.6142 184.32 46.5903 184.32C44.5378 184.328 42.4853 184.185 40.4516 183.892C38.4571 183.587 36.4988 183.072 34.6112 182.355C33.6909 181.991 32.7942 181.571 31.9257 181.094C31.007 180.588 30.1433 179.985 29.3471 179.301C27.9793 178.122 26.77 176.773 25.7445 175.286C24.7285 173.859 23.8852 172.319 23.2303 170.695C22.5613 169.06 22.1169 167.343 21.908 165.59C21.7714 164.048 21.7714 162.497 21.908 160.955C21.9944 158.327 22.4168 155.723 23.1659 153.202C24.1835 149.979 25.6613 146.922 27.5568 144.126C28.0138 143.386 28.5116 142.673 29.0487 141.991C29.5607 141.306 30.0506 140.601 30.6254 139.961C31.6855 138.692 32.8083 137.481 33.994 136.331C35.0807 135.284 36.125 134.323 37.0846 133.446L38.4917 132.208L39.1952 131.59L39.8768 130.992C41.1802 129.974 42.413 128.867 43.5641 127.681C44.3101 126.89 44.5017 126.228 44.6304 126.271C44.7576 126.314 44.6304 126.463 44.5237 126.784C44.3698 127.268 44.1232 127.717 43.7981 128.108C42.7287 129.446 41.5367 130.683 40.2395 131.802L39.6852 132.315L39.0884 132.87L37.7457 134.173C36.7862 135.07 35.8062 136.052 34.7619 137.098C33.716 138.146 32.6293 139.235 31.6917 140.494C31.1594 141.094 30.6474 141.777 30.115 142.481C29.5811 143.186 29.0063 143.912 28.5163 144.746C26.7072 147.381 25.2719 150.256 24.2526 153.288C23.4831 155.805 23.0403 158.41 22.9319 161.041C22.7921 162.525 22.7921 164.02 22.9319 165.504C23.1031 167.01 23.4612 168.487 23.9967 169.903C25.264 173.266 27.3354 176.265 30.0287 178.64C30.6992 179.181 31.4122 179.666 32.1613 180.09C32.9638 180.578 33.8055 181 34.6755 181.351C36.4721 182.089 38.3456 182.619 40.26 182.932C42.234 183.261 44.2284 183.44 46.2291 183.466C47.2311 183.466 48.233 183.466 49.2334 183.466L52.2815 183.274L55.4365 182.995L58.5695 182.739C60.7021 182.589 62.8332 182.484 64.9643 182.462C67.2791 182.477 69.5914 182.613 71.8919 182.868C74.0989 183.176 76.3462 182.748 78.2865 181.65C79.2091 181.082 79.9491 180.259 80.4179 179.28C80.6233 178.808 80.7294 178.3 80.7294 177.785C80.7294 177.271 80.6233 176.761 80.4179 176.29C79.9836 175.349 79.2784 174.561 78.393 174.026C77.5589 173.496 76.5884 173.22 75.6007 173.236C73.4692 173.236 71.3377 173.236 69.0997 173.236C67.0741 173.238 65.0554 172.994 63.0892 172.509C62.8411 172.43 62.6102 172.308 62.4061 172.146C62.2867 172.029 62.1972 171.884 62.1485 171.724C62.0998 171.562 62.0935 171.392 62.1297 171.228C62.5097 169.896 62.7673 168.53 62.8976 167.148L63.0248 165.803V164.437C63.006 163.587 62.8992 162.742 62.7044 161.916C62.0716 158.977 60.4917 156.329 58.2083 154.377C56.4479 152.838 54.4456 151.605 52.2815 150.725C50.8996 150.171 49.4736 149.735 48.0194 149.422C46.8463 149.23 46.3139 149.23 46.3359 149.059Z" fill="#00625E"/>
<path d="M92.0302 86.3978C92.1095 86.4241 92.1772 86.4768 92.2221 86.5473C92.2376 86.5692 92.2461 86.5952 92.2461 86.6221C92.2461 86.6488 92.2376 86.6749 92.2221 86.6968C92.2221 86.6968 92.2221 86.8249 92.2221 86.8677L92.0729 87.06C92.0729 87.06 92.0729 87.0598 92.0729 87.1881C92.0729 87.3162 91.9237 87.1881 91.8598 87.1881C91.7957 87.1881 91.8596 87.1881 91.7318 87.1881H91.5826H91.4334H91.2842H91.135H90.9858H90.8153H90.6659C90.6659 87.1881 90.6661 87.1881 90.5169 87.1881H90.3677C90.3476 87.1975 90.3258 87.2024 90.3036 87.2024C90.2815 87.2024 90.2597 87.1975 90.2397 87.1881H90.1119C90.1119 87.1881 89.9627 87.1881 89.8986 87.1881H89.4511H89.3232V87.0812C89.2907 86.9552 89.2907 86.8228 89.3232 86.6968C89.3144 86.6186 89.3144 86.5399 89.3232 86.4619L89.4724 86.3124H89.7494H89.8561H90.0053C90.0053 86.3124 90.1119 86.3124 90.1544 86.3124C90.1544 86.3124 90.1544 86.3124 90.2611 86.4619H90.6234H90.8792H91.007H91.135C91.135 86.4619 91.135 86.4619 91.2415 86.4619V86.3124C91.2415 86.3124 91.3695 86.3124 91.3908 86.3124C91.412 86.3124 91.3908 86.3124 91.3908 86.1842C91.3797 86.1349 91.3797 86.0839 91.3908 86.0347C91.3908 86.0347 91.3908 86.0347 91.5187 86.0347H91.7104C91.8554 86.1155 91.9683 86.2438 92.0302 86.3978Z" fill="#00625E"/>
<path d="M74.4882 87.6578C74.4882 87.6578 74.2537 87.6579 74.1684 87.4016C74.0981 87.2512 74.0615 87.0872 74.0615 86.9211C74.0615 86.755 74.0981 86.5909 74.1684 86.4405C74.2757 86.2002 74.4544 85.999 74.6799 85.8639C74.9571 85.6504 75.3621 85.8639 75.5752 85.8639C76.1908 86.0273 76.7277 86.406 77.0886 86.9317C77.2004 87.0771 77.2804 87.2446 77.3231 87.423C77.388 87.6022 77.431 87.7887 77.4509 87.9783C77.4789 88.408 77.3667 88.8352 77.1312 89.1956C76.9955 89.3729 76.8254 89.521 76.6313 89.631C76.4372 89.7411 76.2232 89.8108 76.0016 89.8363C75.5746 89.9166 75.1331 89.8327 74.7652 89.6014C74.5651 89.4717 74.3916 89.3049 74.2537 89.1101C74.1414 88.8972 74.0692 88.6658 74.0406 88.4268C74.0177 88.1796 74.0541 87.9303 74.1468 87.6999C74.2396 87.4696 74.3858 87.2647 74.5734 87.1025C74.942 86.7753 75.4245 86.6067 75.9163 86.6328C76.1754 86.6568 76.4243 86.7459 76.6403 86.8913C76.8564 87.0369 77.0324 87.2343 77.1525 87.4656C77.3543 87.795 77.4446 88.1805 77.4101 88.5654C77.3755 88.9501 77.2179 89.3136 76.9606 89.6014C76.9606 89.6014 76.9606 89.7296 76.8328 89.7509H76.6197H76.2147C75.9612 89.6815 75.7227 89.5655 75.5113 89.4091C75.3338 89.257 75.1826 89.0766 75.0637 88.8752C74.7839 88.4768 74.6485 87.9945 74.6799 87.5083C74.7178 86.9827 74.9191 86.4823 75.2555 86.0775H75.3833L76.172 86.4619L76.577 86.7609L76.7902 86.9744C77.0154 87.2597 77.222 87.5594 77.4084 87.8715C77.5395 88.0752 77.6094 88.3125 77.6094 88.555C77.6094 88.7973 77.5395 89.0346 77.4084 89.2382C77.2716 89.4143 77.0973 89.5575 76.898 89.6574C76.6989 89.7572 76.4799 89.811 76.2572 89.8149C75.8759 89.834 75.4995 89.721 75.1916 89.4947C74.6717 89.0821 74.2981 88.5131 74.1259 87.8715C74.0192 87.4656 73.934 87.0598 73.8273 86.6328C74.2898 86.522 74.7718 86.522 75.2341 86.6328C75.7349 86.7854 76.1798 87.0826 76.5131 87.487C76.7789 87.7903 76.9364 88.1734 76.9606 88.5762C77.0044 88.8234 77.0044 89.0765 76.9606 89.3238L76.6623 90.2635L76.0228 89.6228L75.8736 89.4519L75.6391 89.217L75.5113 89.0889V88.9608C75.3266 88.7037 75.1762 88.4238 75.0637 88.1278C75.0637 87.9143 74.9357 87.786 75.0637 87.722C75.1916 87.6579 75.2555 87.722 75.4474 87.722C75.6949 87.8976 75.93 88.0902 76.1506 88.2985H76.2572H76.3852L76.6623 88.4908L76.8328 88.6189L76.1506 88.8538C76.1713 88.7337 76.1713 88.611 76.1506 88.4908C76.1194 88.2979 76.0302 88.1191 75.8949 87.9783C75.7458 87.8288 75.7671 87.9783 75.7244 87.9783C75.7244 87.9783 75.7244 87.9783 75.7244 88.1064C75.8133 88.242 75.9209 88.3643 76.0441 88.4694C76.1417 88.5635 76.2712 88.617 76.4066 88.6189C76.476 88.6312 76.5475 88.6258 76.6145 88.6035C76.6814 88.5811 76.7419 88.5423 76.7902 88.4908C76.7902 88.384 76.7902 88.4908 76.7902 88.2345C76.6726 87.9923 76.5297 87.7632 76.3639 87.5511L76.172 87.2948H75.9802C75.9802 87.2948 75.8524 87.487 75.8524 87.5939C75.8408 87.8565 75.9075 88.1168 76.0441 88.3413C76.1101 88.4685 76.1965 88.5841 76.3 88.6831C76.3848 88.7674 76.4865 88.8329 76.5983 88.8752C76.6318 88.8906 76.6681 88.8985 76.705 88.8985C76.7417 88.8985 76.778 88.8906 76.8115 88.8752L76.9394 88.6831C77.0228 88.419 77.0228 88.1357 76.9394 87.8715C76.8754 87.7331 76.7805 87.611 76.6624 87.5149C76.5442 87.4186 76.4056 87.3508 76.2572 87.3162C76.0969 87.2955 75.934 87.3097 75.7795 87.3577C75.6251 87.4055 75.4827 87.4861 75.3621 87.5939C75.247 87.6796 75.1556 87.7931 75.0959 87.9237C75.0364 88.0545 75.0105 88.198 75.021 88.3413C75.0342 88.4842 75.0779 88.6225 75.1488 88.7471C75.2189 88.878 75.3217 88.9885 75.4474 89.0675C75.6702 89.1784 75.9224 89.2154 76.1677 89.1732C76.4129 89.1309 76.6384 89.0116 76.8115 88.8324C76.9501 88.6173 77.0104 88.361 76.982 88.1064C76.9942 87.9928 76.9942 87.8782 76.982 87.7646C76.938 87.6581 76.8807 87.5577 76.8115 87.4656C76.5627 87.1187 76.2009 86.8694 75.7883 86.7609C75.5538 86.7609 75.4899 86.7609 75.4687 86.7609C75.4474 86.7609 75.3407 86.761 75.2555 86.9531C75.1355 87.1122 75.0486 87.2938 74.9997 87.487C74.616 87.487 74.5734 87.6151 74.4882 87.6578Z" fill="#00625E"/>
<path d="M23.8256 171.612C23.8256 171.612 23.9324 171.804 23.8256 172.039C23.7408 172.372 23.6042 172.689 23.4204 172.98C23.1801 173.441 22.8943 173.877 22.5677 174.281C22.128 174.816 21.627 175.296 21.0758 175.713C20.9282 175.839 20.7711 175.952 20.6062 176.054L20.0943 176.375C19.7142 176.613 19.2965 176.786 18.8583 176.887C18.3919 176.951 17.9192 176.951 17.4513 176.887C16.9927 176.844 16.5373 176.773 16.0881 176.674C15.8431 176.621 15.606 176.534 15.3846 176.418C15.1537 176.317 14.9323 176.196 14.7234 176.054C14.3057 175.777 13.9131 175.463 13.5519 175.115C13.164 174.785 12.8075 174.419 12.4856 174.026C12.1448 173.633 11.837 173.211 11.5684 172.766C11.3345 172.357 11.1209 171.936 10.9293 171.505C10.8256 171.299 10.7408 171.085 10.6733 170.865L10.4173 170.224L10.2053 169.562C10.1299 169.339 10.0734 169.11 10.0341 168.877C10.0341 168.429 9.86296 167.96 9.80014 167.512C9.73575 167.063 9.80014 166.615 9.80014 166.166V165.504C9.82684 165.265 9.8771 165.029 9.94933 164.799C9.94933 164.372 10.2477 163.987 10.3325 163.645C10.4566 163.269 10.5979 162.898 10.7597 162.535C10.923 162.157 11.1633 161.815 11.4616 161.532C11.7019 161.255 11.9815 161.018 12.294 160.827C12.7808 160.464 13.31 160.163 13.8707 159.93C14.5899 159.63 15.3532 159.449 16.1305 159.395C16.5404 159.343 16.9566 159.343 17.3665 159.395C17.77 159.466 18.1595 159.603 18.5176 159.801C18.8128 159.967 19.0908 160.159 19.3483 160.379L19.6687 160.698L19.8179 160.848L19.9451 161.019C20.1587 161.334 20.3377 161.669 20.479 162.023C20.5858 162.258 20.6486 162.407 20.5858 162.472C20.5214 162.535 20.3722 162.472 20.1382 162.322C19.8571 162.091 19.5949 161.842 19.3483 161.575H19.2211H19.0923L18.7735 161.361L18.048 160.955C17.7747 160.841 17.4889 160.763 17.1968 160.72C16.8561 160.687 16.5137 160.687 16.1729 160.72C15.5306 160.755 14.8977 160.892 14.2978 161.126C13.8126 161.317 13.3556 161.568 12.9331 161.874C12.6724 162.004 12.4353 162.177 12.2296 162.385C12.0129 162.596 11.8323 162.841 11.6972 163.112C11.5418 163.424 11.4067 163.745 11.292 164.073C11.292 164.457 10.9717 164.799 10.8869 165.162C10.8178 165.326 10.7675 165.499 10.7377 165.675V166.273C10.7377 166.679 10.7377 167.085 10.7377 167.512C10.7644 167.933 10.8146 168.355 10.8869 168.772L11.0141 169.412L11.2072 170.031C11.2072 170.245 11.3564 170.437 11.4193 170.651C11.4836 170.865 11.548 171.079 11.6328 171.291C11.7867 171.704 11.972 172.103 12.1872 172.487C12.6709 173.287 13.2755 174.007 13.9775 174.624C14.3104 174.951 14.6732 175.244 15.0642 175.499C15.2448 175.626 15.438 175.733 15.6406 175.82C15.829 175.932 16.0394 176.004 16.2577 176.034C16.6739 176.113 17.0932 176.169 17.5156 176.204C17.9114 176.268 18.3134 176.268 18.7092 176.204C19.0625 176.103 19.4001 175.952 19.7111 175.755L20.1806 175.434C20.3298 175.434 20.457 175.222 20.6062 175.115C21.1009 174.723 21.5501 174.279 21.9489 173.79C22.3117 173.364 22.5881 172.978 22.8441 172.616L23.4408 171.869C23.5272 171.633 23.6324 171.57 23.8256 171.612Z" fill="#00625E"/>
<path d="M64.8771 164.542C64.8771 164.542 64.8771 164.136 65.3043 163.56C65.7299 162.983 66.2418 162.173 66.9239 161.189C67.6059 160.207 68.4585 159.054 69.3751 157.517C70.4333 155.916 71.4079 154.262 72.2952 152.561C72.5621 152.091 72.8041 151.606 73.0199 151.109C73.233 150.639 73.4889 150.148 73.6808 149.635C74.0858 148.588 74.4694 147.499 74.8531 146.219C75.221 145.018 75.5269 143.798 75.7696 142.566C75.9547 141.315 76.019 140.049 75.9615 138.785V136.65L75.7482 134.515C75.5777 133.127 75.3646 131.737 75.0662 130.35C74.8388 129.61 74.795 128.825 74.9383 128.065C75.2614 127.316 75.8666 126.725 76.6222 126.42L80.4375 124.285C81.6202 123.64 82.8451 123.076 84.1038 122.597C84.7433 122.362 85.3826 122.149 86.0221 121.978L87.9191 121.487C88.5654 121.312 89.2198 121.169 89.8801 121.059C90.5501 120.946 91.2263 120.875 91.905 120.846C93.2583 120.786 94.6091 121.011 95.8696 121.508C96.8877 122.081 98.0515 122.341 99.2161 122.255C99.7356 122.148 100.228 121.937 100.665 121.636C101.128 121.313 101.52 120.899 101.817 120.419C102.058 120 102.185 119.525 102.185 119.041C102.185 118.558 102.058 118.082 101.817 117.664C101.32 116.765 100.582 116.025 99.6851 115.528C98.7961 115.002 97.8332 114.613 96.8288 114.375C95.9288 114.144 95.0072 114.008 94.0791 113.969C92.4797 113.957 90.8865 114.173 89.3473 114.61C86.4271 115.336 84.2744 115.806 83.166 115.998C82.0576 116.19 81.0344 116.361 79.926 116.468C78.8441 116.617 77.7467 116.617 76.6649 116.468C75.6647 116.277 74.7527 115.767 74.0644 115.015C73.7459 114.647 73.5195 114.208 73.4036 113.734C73.3825 113.5 73.3825 113.264 73.4036 113.029C73.392 112.809 73.392 112.588 73.4036 112.367C73.7612 111.293 74.438 110.354 75.3434 109.676C75.9188 109.249 76.2385 109.035 76.3024 109.078C76.3663 109.121 76.1107 109.484 75.599 110.06C74.9021 110.781 74.4218 111.684 74.2136 112.666C74.1922 112.808 74.1922 112.952 74.2136 113.093C74.2048 113.236 74.2048 113.378 74.2136 113.52C74.3146 113.842 74.4898 114.134 74.7251 114.375C75.3085 114.935 76.0554 115.294 76.8566 115.4C77.7836 115.517 78.7218 115.517 79.649 115.4C80.6508 115.293 81.7804 115.122 82.9527 114.909C84.125 114.695 86.0648 114.289 88.9209 113.606C90.6127 113.13 92.3652 112.907 94.1218 112.944C95.1246 112.982 96.1191 113.14 97.0846 113.414C98.0872 113.669 99.0539 114.049 99.9621 114.546C101.043 115.116 101.96 115.954 102.626 116.98C102.992 117.578 103.186 118.265 103.186 118.966C103.186 119.668 102.992 120.355 102.626 120.953C102.3 121.461 101.88 121.903 101.39 122.255C100.868 122.659 100.264 122.943 99.6211 123.088C98.2995 123.294 96.9473 123.046 95.7844 122.384C94.6539 121.896 93.4345 121.649 92.2034 121.658C91.576 121.658 90.9494 121.7 90.3279 121.786C89.7096 121.786 89.0703 121.999 88.452 122.149L86.5124 122.618C85.8729 122.789 85.2548 122.96 84.6367 123.174C83.4012 123.609 82.1976 124.13 81.0344 124.733C79.7341 125.416 78.4767 126.143 77.1977 126.869C76.5809 127.119 76.0431 127.533 75.6418 128.065C75.429 128.688 75.429 129.365 75.6418 129.986C75.9401 131.396 76.1746 132.806 76.3663 134.258L76.601 136.393L76.75 138.401C76.843 139.827 76.793 141.257 76.601 142.673C76.3836 143.935 76.0918 145.183 75.727 146.411C75.3859 147.499 75.0662 148.653 74.6186 149.764C74.4316 150.327 74.2037 150.878 73.9366 151.408C73.7208 151.926 73.4788 152.431 73.2118 152.925C72.3172 154.683 71.3207 156.387 70.2277 158.029C69.2899 159.502 68.3946 160.72 67.6059 161.767C66.8172 162.813 66.1991 163.496 65.7723 163.902C65.3467 164.308 64.9635 164.607 64.8771 164.542Z" fill="#00625E"/>
<path d="M55.7962 82.4246C55.7962 82.4246 55.413 82.4246 54.8586 82.1683C54.0734 81.7849 53.318 81.3422 52.5988 80.8442C51.4634 80.1207 50.3672 79.3366 49.3166 78.4949C47.9425 77.389 46.6327 76.2053 45.3937 74.9496C45.0529 74.6292 44.7121 74.2448 44.3713 73.8816C44.0305 73.5186 43.6898 73.177 43.3694 72.7712C42.6015 71.9596 41.8885 71.0962 41.2383 70.187C40.5772 69.2262 39.9726 68.228 39.4261 67.197C38.8937 66.2573 38.3393 65.2319 37.7426 64.1428L36.9322 62.4128C36.6982 61.8363 36.5067 61.2169 36.2711 60.619C35.8628 59.3926 35.522 58.1449 35.2487 56.8814C34.9472 55.5898 34.7556 54.2753 34.6724 52.9517C34.5703 51.6017 34.6504 50.2442 34.908 48.9152C35.1404 47.6954 35.5644 46.5203 36.1643 45.434C36.4705 44.8835 36.8349 44.3677 37.2526 43.8961C37.6515 43.428 38.1022 43.0055 38.5953 42.6362C39.6318 41.8913 40.8426 41.4278 42.1115 41.2907C43.3584 41.1396 44.6242 41.2935 45.7989 41.7392C46.9421 42.2381 47.9079 43.0719 48.5706 44.1311C48.902 44.6499 49.147 45.22 49.2946 45.8184C49.4454 46.4475 49.4815 47.0986 49.4014 47.7404C49.2601 48.7653 49.0465 49.7788 48.7622 50.7733C48.5282 51.7048 48.3791 52.6554 48.3147 53.6138C48.2613 54.5741 48.2613 55.5366 48.3147 56.497C48.3524 57.3503 48.4529 58.1997 48.613 59.0385C48.902 60.4635 49.3449 61.853 49.9338 63.1818C50.6656 64.8998 51.5576 66.5446 52.5988 68.094C53.1311 68.9055 53.6855 69.6743 54.2823 70.4432L55.9878 72.5789L57.4796 74.4583L58.1628 75.2486L58.524 75.6544L58.8648 76.0388C59.4819 76.7497 60.1447 77.4204 60.8482 78.0463C61.3162 78.4521 61.6146 78.6658 61.5722 78.7512C61.5298 78.8367 61.1466 78.7512 60.5074 78.3668C59.6547 77.8414 58.8679 77.2178 58.1628 76.5086L57.8424 76.2097L57.5016 75.8893L56.7557 75.0991L55.135 73.2837L53.4515 71.1481C52.8752 70.4005 52.236 69.5677 51.6188 68.6279C50.5776 67.0483 49.6856 65.3751 48.9538 63.6303C48.299 62.1836 47.82 60.6635 47.5263 59.1026C47.3803 58.2189 47.2876 57.3275 47.2483 56.4329C47.2483 55.5359 47.2483 54.6603 47.2483 53.6778C47.3143 52.6324 47.4792 51.5954 47.7383 50.581C48.0257 49.5542 48.2613 48.5135 48.4419 47.4629C48.5063 47.0095 48.5063 46.5494 48.4419 46.0961C48.3382 45.5948 48.1592 45.1122 47.9095 44.665C47.3913 43.7391 46.6029 42.994 45.6497 42.5294C44.6383 42.0833 43.5343 41.8927 42.4319 41.9741C41.8901 42.0273 41.3546 42.1344 40.8332 42.2945C40.3008 42.4635 39.792 42.7004 39.3193 42.9992C38.8356 43.3147 38.3927 43.6877 37.9986 44.1098C37.6028 44.5278 37.2526 44.9858 36.9542 45.4766C36.3386 46.4686 35.8989 47.5596 35.6539 48.7016C35.3697 49.9693 35.255 51.2692 35.3131 52.5672C35.3712 53.8624 35.5503 55.1492 35.8455 56.4115C36.1015 57.656 36.436 58.8831 36.8474 60.0851L37.4866 61.8363L38.2326 63.4595C38.8073 64.5059 39.4041 65.5951 40.0652 66.6843C40.6023 67.6701 41.1928 68.6256 41.8351 69.5463C42.4523 70.3849 43.115 71.1906 43.817 71.9596C44.1578 72.344 44.5425 72.7284 44.9037 73.1128L45.9276 74.1808C47.3127 75.5263 48.6335 76.7223 49.849 77.6833C51.0645 78.6444 52.1292 79.456 53.0887 80.1394L55.2198 81.6557C55.7962 82.1257 55.9234 82.3392 55.7962 82.4246Z" fill="#00625E"/>
<path d="M76.3036 142.502C76.3036 142.502 76.5381 142.502 76.8578 142.502C77.2638 142.754 77.6361 143.055 77.9663 143.399C78.4754 143.936 78.919 144.531 79.2878 145.173C79.7625 145.997 80.1484 146.87 80.4387 147.778C80.4387 148.035 80.5879 148.29 80.652 148.546L80.8651 149.336C81.0192 149.912 81.1332 150.497 81.2062 151.088C81.2062 151.75 81.2062 152.348 81.2062 152.925C81.2312 153.526 81.361 154.12 81.5898 154.677C81.6996 154.976 81.8278 155.268 81.9735 155.552C82.1085 155.832 82.2728 156.098 82.4636 156.342C82.843 156.836 83.3635 157.201 83.9557 157.388C84.5937 157.537 85.2574 157.537 85.8953 157.388C86.5632 157.309 87.2206 157.16 87.8565 156.939C88.3953 156.749 88.8585 156.39 89.178 155.915C89.337 155.679 89.4592 155.419 89.5403 155.146C89.6331 154.87 89.6833 154.582 89.6894 154.291C89.7108 154 89.7108 153.707 89.6894 153.416C89.6894 153.117 89.6895 152.796 89.583 152.519C89.4735 151.928 89.3312 151.342 89.1566 150.768C88.9647 150.191 88.7943 149.615 88.5811 149.081L88.2827 148.247C88.1643 147.97 88.0647 147.684 87.9843 147.393C87.8137 146.817 87.6432 146.326 87.4726 145.878C87.3021 145.429 86.9825 144.981 86.748 144.51L86.0019 143.143L85.3838 141.926C84.9576 141.221 84.4887 140.602 84.0623 140.004C83.2311 138.85 82.5703 138.04 82.2292 137.654C81.8882 137.27 81.5685 136.886 81.2274 136.501C80.8863 136.117 80.524 135.753 80.247 135.412L79.3944 134.473L79.0319 134.045L78.8402 133.853L78.6696 133.64C78.3499 133.228 78.0512 132.8 77.7743 132.358C77.5826 132.081 77.476 131.887 77.5399 131.824C77.604 131.76 77.7957 131.824 78.1154 132.059C78.5311 132.37 78.923 132.713 79.2878 133.085L79.4583 133.234L79.6501 133.404L80.0976 133.768L81.0356 134.665L82.0374 135.689C82.4273 136.076 82.7973 136.482 83.1457 136.907C83.4867 137.313 84.1262 138.125 84.9575 139.299C85.4597 139.98 85.9154 140.693 86.3217 141.435L86.9612 142.694C87.1529 143.122 87.3662 143.528 87.6006 143.977C87.8351 144.425 88.0908 144.916 88.3466 145.45C88.5633 146.002 88.7485 146.565 88.9008 147.138C88.9661 147.39 89.0445 147.64 89.1352 147.885C89.2419 148.162 89.3272 148.439 89.4124 148.718C89.4975 148.995 89.7961 149.871 89.9666 150.469C90.1486 151.07 90.2842 151.684 90.3715 152.305C90.4282 152.623 90.4637 152.944 90.4781 153.267C90.4995 153.594 90.4995 153.921 90.4781 154.249C90.4632 154.596 90.4059 154.941 90.3076 155.275C90.2022 155.613 90.0516 155.937 89.86 156.236C89.4738 156.837 88.9066 157.301 88.2401 157.559C87.5535 157.814 86.8371 157.98 86.1086 158.05C85.405 158.192 84.6806 158.192 83.977 158.05C83.2526 157.86 82.6048 157.451 82.1227 156.877C81.8856 156.6 81.6784 156.299 81.5046 155.98C81.3342 155.692 81.1845 155.391 81.0568 155.083C80.7896 154.441 80.6171 153.766 80.5453 153.075C80.5453 152.39 80.5454 151.792 80.4387 151.259C80.3682 150.716 80.254 150.181 80.0976 149.657L79.8633 148.845L79.6287 148.12C79.3454 147.261 78.9814 146.431 78.5418 145.642C78.1918 145.039 77.7999 144.461 77.3693 143.912L76.5167 142.908C76.325 142.823 76.2397 142.587 76.3036 142.502Z" fill="#00625E"/>
</g>
<defs>
<clipPath id="clip0_63_155">
<rect width="215" height="185" fill="white" transform="matrix(-1 0 0 1 215 0)"/>
</clipPath>
</defs>
</svg>
