<svg width="1112" height="683" viewBox="0 0 1112 683" fill="none" xmlns="http://www.w3.org/2000/svg">
<path d="M184.157 108.226C82.9788 97.9991 67.2286 101.863 46 108.226V143C46 143 991.58 637 1060 618C1128.42 599 1119 515.5 1089.03 360C1059.05 204.5 1096.1 80.8706 1066 47.7847C995.673 -73.0791 859.571 82.5393 668.321 15.6566C477.071 -51.2261 285.335 118.454 184.157 108.226Z" fill="#ECF3FF"/>
<rect width="1018" height="449" transform="matrix(-1 0 0 1 1072 143.107)" fill="#ECF3FF"/>
<path d="M922.656 618.256C1023.24 625.978 1038.9 623.061 1060 618.256L1060 592C1060 592 65 102.5 48.5 107.5C32 112.5 -8.00005 155.5 27.5 277C63 398.5 -3.50002 428.5 0.499985 511C4.49999 593.5 48.5 635.5 48.5 635.5C117.427 719.416 258.399 623.919 570.87 671.025C883.341 718.131 822.073 610.534 922.656 618.256Z" fill="#ECF3FF"/>
<path opacity="0.25" d="M900.412 59.7359L897.814 54.5039C897.738 54.3525 897.622 54.2252 897.478 54.1362C897.334 54.0471 897.168 54 896.999 54C896.83 54 896.664 54.0471 896.52 54.1362C896.376 54.2252 896.259 54.3525 896.184 54.5039L893.586 59.7359L887.778 60.5799C887.61 60.6032 887.453 60.673 887.323 60.7816C887.193 60.8901 887.097 61.0329 887.044 61.1937C886.992 61.3545 886.986 61.5268 887.026 61.6909C887.067 61.855 887.153 62.0044 887.275 62.1219L891.477 66.1919L890.485 71.9419C890.358 72.6799 891.138 73.2419 891.805 72.8939L896.999 70.1779L902.194 72.8939C902.86 73.2429 903.64 72.6799 903.513 71.9409L902.521 66.1909L906.723 62.1209C906.844 62.0033 906.929 61.8541 906.97 61.6903C907.01 61.5264 907.004 61.3545 906.952 61.1941C906.899 61.0337 906.803 60.8912 906.673 60.7828C906.544 60.6744 906.387 60.6045 906.22 60.5809L900.412 59.7359Z" fill="#8ABEF5"/>
<path opacity="0.25" d="M904.256 96.7388C893.913 100.922 894.287 112.341 907.579 111.211C919.74 109.832 932.016 109.832 944.176 111.211C957.565 113.328 971.181 113.567 984.636 111.922C993.208 110.858 1001.86 110.676 1010.47 111.378C1023.23 112.173 1022.31 100.754 1012.84 97.9518C1007.07 96.5406 1001.71 93.7904 997.181 89.9211C987.959 82.0993 982.808 80.1752 972.257 82.7267C969.727 83.4336 967.06 83.4782 964.508 82.8558C961.956 82.2337 959.605 80.9655 957.676 79.1713C947.624 70.8058 934.248 69.802 922.617 83.354C918.002 89.6038 911.593 94.276 904.256 96.7388Z" fill="#8ABEF5"/>
<g clip-path="url(#clip0_63_224)">
<mask id="mask0_63_224" style="mask-type:luminance" maskUnits="userSpaceOnUse" x="803" y="388" width="215" height="274">
<path d="M1018 388H803V662H1018V388Z" fill="white"/>
</mask>
<g mask="url(#mask0_63_224)">
<mask id="mask1_63_224" style="mask-type:luminance" maskUnits="userSpaceOnUse" x="842" y="538" width="176" height="104">
<path d="M1018 538H842V642H1018V538Z" fill="white"/>
</mask>
<g mask="url(#mask1_63_224)">
<path d="M937.536 552.353C930.138 545.205 920.158 540.743 909.873 539.999C899.579 539.255 889.061 542.222 880.697 548.227C877.754 546.284 873.572 546.42 870.758 548.547C867.943 550.674 866.697 554.64 867.799 557.983C857.755 567.93 854.425 583.995 859.701 597.085C849.825 599.827 842.298 609.407 842.009 619.602C841.88 624.112 843.135 628.782 846.15 632.148C849.166 635.515 854.088 637.33 858.422 636.019C861.896 634.963 864.638 632.14 868.152 631.245C871.224 630.469 874.457 631.269 877.625 631.205C883.456 631.077 889.109 627.751 892.028 622.737L905.337 624.776C909.487 634.092 918.903 640.864 929.092 641.872C939.289 642.879 949.856 638.082 955.774 629.766C964.878 630.573 974.15 629.51 982.835 626.671C984.78 626.031 986.775 625.304 988.809 625.503C990.844 625.703 992.935 627.183 993.691 629.494C994.31 631.133 994.929 632.78 995.484 634.787C996.296 637.634 998.693 639.977 1001.56 640.737C1004.43 641.496 1007.68 640.657 1010.26 638.569C1011.65 636.77 1013.05 634.979 1014.61 632.724C1016.74 629.022 1017.66 624.648 1017.23 619.938C1016.87 617.987 1016.51 616.036 1016.05 613.437C1014.9 611.446 1013.74 609.455 1012.74 607.008C1013.83 605.113 1014.91 603.21 1016.3 600.699C1016.82 598.852 1017.33 597.005 1018.01 594.39C1017.96 592.439 1017.9 590.488 1017.75 587.761C1017.29 585.858 1016.84 583.963 1016.15 581.308C1015.02 579.413 1013.88 577.51 1012.59 574.839L1008.1 569.121C1008.35 569.058 1008.61 569.002 1008.87 568.194C1014.36 565.891 1017.25 559.278 1016.17 553.457C1015.09 547.635 1010.65 542.798 1005.32 540.159C1001.35 538.184 996.651 537.304 992.42 538.624C988.182 539.943 984.62 543.789 984.484 548.203L975.766 547.739C976.698 545.676 974.125 543.086 972.043 543.989C973.232 542.774 973.273 540.623 972.131 539.359C970.982 538.096 968.826 537.928 967.491 538.983C965.167 537.008 960.937 538.312 960.149 541.246C956.595 540.263 952.509 543.173 952.308 546.836C946.848 545.644 940.769 547.995 937.552 552.337L937.536 552.353Z" fill="white"/>
<path d="M970.556 550.57C970.556 550.45 971.119 550.234 972.236 550.099C973.354 549.955 975.019 549.915 977.022 550.17C978.983 550.402 981.46 550.93 984.146 551.914C984.942 552.202 985.73 552.521 986.51 552.849L987.314 553.209L987.548 553.321L987.668 553.377C987.668 553.377 987.765 553.433 987.724 553.369C987.668 553.225 987.612 553.081 987.58 552.929C987.571 552.889 987.556 552.857 987.556 552.817L987.531 552.657C987.499 552.457 987.467 552.266 987.467 552.066C987.403 551.274 987.467 550.474 987.652 549.715C987.853 548.827 988.2 547.955 988.666 547.132C989.115 546.34 989.678 545.581 990.371 544.885C991.777 543.518 993.684 542.446 995.968 542.174C998.26 541.91 1000.42 542.478 1002.29 543.31C1004.11 544.133 1005.94 545.293 1007.57 546.876L1008.17 547.484C1008.38 547.692 1008.55 547.924 1008.74 548.147C1009.13 548.587 1009.45 549.083 1009.78 549.587C1010.1 550.075 1010.35 550.61 1010.62 551.13C1010.81 551.69 1011.09 552.225 1011.2 552.809L1011.41 553.665L1011.54 554.544C1011.64 555.128 1011.6 555.728 1011.63 556.32C1011.56 557.503 1011.44 558.702 1011.06 559.846C1010.93 560.438 1010.64 560.982 1010.43 561.541C1010.29 561.813 1010.14 562.077 1009.99 562.341L1009.77 562.741L1009.5 563.116C1008.83 564.148 1007.89 565.004 1006.86 565.699C1005.81 566.395 1004.58 566.763 1003.33 566.971C1003.13 566.995 1003.02 566.987 1002.87 566.995H1002.65C1002.65 566.995 1002.61 567.003 1002.59 567.011L1002.63 567.059L1002.69 567.163L1003.34 568.17C1004.52 569.993 1005.71 571.824 1006.83 573.696C1007.4 574.631 1007.94 575.575 1008.46 576.526C1008.97 577.454 1009.47 578.397 1009.95 579.357C1010.43 580.341 1010.88 581.34 1011.29 582.348C1011.48 582.867 1011.68 583.387 1011.87 583.915L1012.36 585.474C1012.93 587.553 1013.37 589.672 1013.4 591.815L1013.47 593.414L1013.35 594.998C1013.29 595.518 1013.31 596.053 1013.18 596.565L1012.85 598.1L1012.69 598.868L1012.45 599.604L1011.95 601.067C1011.79 601.603 1011.49 602.083 1011.25 602.578C1011 603.066 1010.77 603.562 1010.51 604.002C1009.92 604.857 1009.42 605.705 1008.83 606.432C1008.24 607.144 1007.72 607.856 1007.17 608.472C1006.56 609.119 1005.99 609.823 1005.34 610.455C1004.68 611.07 1004.06 611.734 1003.37 612.326C1002.67 612.894 1001.98 613.509 1001.24 614.053C1000.49 614.581 999.755 615.125 999.007 615.588L996.86 616.876L994.834 617.955C992.3 619.243 989.84 620.434 987.435 621.346C982.779 623.081 979.249 623.992 977.479 624.424C975.759 624.84 974.022 625.208 972.261 625.52C970.507 625.832 968.666 626.039 967.146 626.159C965.578 626.279 964.098 626.335 962.723 626.351L960.745 626.335L959.764 626.295L958.815 626.239C956.394 626.023 954.778 625.696 953.636 625.456C952.51 625.2 951.875 625.032 951.883 624.928C951.883 624.824 952.599 624.808 953.893 624.904C955.188 624.976 957.062 625.16 959.128 625.192H960.753L962.691 625.12C964.034 625.056 965.481 624.952 967.025 624.792C968.61 624.624 970.065 624.432 971.73 624.136C973.378 623.817 975.196 623.449 977.142 622.969C978.855 622.561 982.225 621.697 986.703 620.074C988.851 619.259 991.375 618.139 994.239 616.684L996.314 615.588L998.324 614.405C999.618 613.565 1000.87 612.71 1002.16 611.598C1003.45 610.519 1004.74 609.263 1006.01 607.832C1006.37 607.464 1006.69 607.072 1006.99 606.68L1007.93 605.537C1008.5 604.761 1009.01 603.97 1009.53 603.234C1009.94 602.434 1010.36 601.667 1010.72 600.907L1011.2 599.54C1011.34 599.076 1011.56 598.636 1011.63 598.148L1011.95 596.701L1012.1 595.973L1012.16 595.23C1012.24 594.238 1012.38 593.239 1012.28 592.223C1012.29 590.2 1011.93 588.145 1011.41 586.13C1011.16 585.138 1010.85 584.155 1010.49 583.179C1010.13 582.204 1009.73 581.236 1009.28 580.285C1008.83 579.317 1008.34 578.341 1007.81 577.366C1007.31 576.406 1006.78 575.463 1006.24 574.527C1005.15 572.664 1003.99 570.825 1002.83 568.986L1001.66 567.147L1001.31 566.603L1001.14 566.331L1001.05 566.195C1001.05 566.195 1001.15 566.195 1001.2 566.179L1002.55 566.131C1002.76 566.123 1003.01 566.123 1003.19 566.099L1003.61 566.019C1003.89 565.963 1004.17 565.923 1004.44 565.851C1004.97 565.635 1005.53 565.499 1006.01 565.188C1008.03 564.108 1009.39 562.085 1010.14 559.974C1010.8 557.823 1011.01 555.496 1010.47 553.353L1010.27 552.553L1009.97 551.786C1009.8 551.266 1009.49 550.802 1009.25 550.314C1008.98 549.875 1008.68 549.443 1008.38 549.027C1008.03 548.635 1007.72 548.203 1007.33 547.844C1005.83 546.324 1004.02 545.085 1001.98 544.149C999.98 543.278 997.977 542.894 996.217 543.094C994.456 543.27 992.719 544.125 991.375 545.309C990.716 545.924 990.145 546.644 989.687 547.42C989.244 548.171 988.915 548.963 988.73 549.771C988.545 550.538 988.489 551.306 988.553 552.018C988.553 552.202 988.593 552.353 988.625 552.545C988.657 552.873 988.787 553.209 988.915 553.569C989.164 554.281 989.414 554.912 989.638 555.504C989.518 555.472 989.293 555.352 989.108 555.272L988.545 555L987.451 554.48L986.478 554.033L985.915 553.785C985.175 553.465 984.475 553.193 983.792 552.937C981.154 551.954 978.791 551.402 976.724 551.09C974.705 550.77 973.177 550.722 972.14 550.706C971.102 550.69 970.539 550.682 970.531 550.538L970.556 550.57Z" fill="#014E72"/>
<path d="M924.814 616.812C924.733 616.915 924.556 616.923 924.283 616.819C924.018 616.715 923.672 616.5 923.262 616.212C922.868 615.924 922.361 615.556 921.838 615.076C921.308 614.596 920.737 614.029 920.15 613.373L919.715 612.861L919.273 612.342C918.967 611.982 918.638 611.598 918.356 611.126C918.107 610.63 917.946 610.119 917.745 609.663C917.649 609.431 917.52 609.215 917.391 608.991L917.029 608.263C916.901 608.016 916.772 607.76 916.651 607.488C916.547 607.224 916.426 606.96 916.362 606.68C916.201 606.128 916.064 605.561 915.88 605.001C915.727 604.433 915.622 603.849 915.493 603.258C915.349 602.674 915.325 602.066 915.26 601.467C915.204 600.923 915.14 600.379 915.156 599.827V599.012L915.107 598.212V597.396L915.156 596.581C915.172 596.045 915.252 595.517 915.308 594.998C915.381 594.478 915.413 593.958 915.51 593.462L915.646 592.719C915.695 592.455 915.775 592.183 915.855 591.943C916.008 591.455 916.225 591.039 916.314 590.648C916.418 590.224 916.491 589.784 916.571 589.336C916.668 588.904 916.788 588.457 916.941 588.049C917.094 587.649 917.238 587.281 917.367 586.945C917.624 586.298 917.761 585.634 917.946 585.026L918.807 582.603C918.975 582.203 919.112 581.788 919.265 581.372C919.41 580.956 919.603 580.548 919.772 580.22C919.949 579.877 920.117 579.557 920.278 579.261L920.511 578.837L920.632 578.629L920.769 578.437C921.139 577.949 921.476 577.662 921.702 577.454C921.935 577.246 922.088 577.142 922.184 577.182C922.281 577.222 922.297 577.422 922.208 577.733C922.128 578.045 921.903 578.461 921.702 578.933L921.629 579.109L921.565 579.309L921.412 579.765L921.042 580.772C920.897 581.14 920.769 581.476 920.648 581.876C920.519 582.275 920.391 582.715 920.198 583.171C920.045 583.579 919.748 584.378 919.329 585.474C919.152 586.01 919 586.681 918.686 587.409C918.541 587.761 918.388 588.129 918.236 588.481C918.091 588.832 917.978 589.192 917.866 589.6C917.761 590.008 917.689 590.448 917.56 590.903C917.432 591.391 917.19 591.839 917.038 592.263C916.957 592.479 916.885 592.687 916.836 592.887L916.684 593.598C916.563 594.078 916.515 594.574 916.426 595.07C916.354 595.565 916.241 596.069 916.209 596.581L916.145 597.34L916.105 598.116C916.081 598.38 916.105 598.644 916.105 598.916L916.081 599.707C916.081 599.971 916.056 600.235 916.064 600.499L916.113 601.291C916.169 601.866 916.153 602.458 916.274 603.026C916.386 603.594 916.491 604.153 916.619 604.713C916.804 605.249 916.941 605.793 917.11 606.328C917.182 606.6 917.279 606.856 917.391 607.104C917.496 607.336 917.624 607.568 917.753 607.8L918.549 609.223C918.791 609.711 918.951 610.191 919.169 610.582C919.402 610.958 919.715 611.31 920.029 611.654L920.495 612.166L920.93 612.653C921.509 613.269 922.071 613.805 922.562 614.277C923.069 614.74 923.487 615.132 923.881 615.492C924.243 615.844 924.5 616.132 924.661 616.348C924.822 616.564 924.878 616.723 924.798 616.835L924.814 616.812Z" fill="#014E72"/>
<path d="M970.169 550.578C970.089 550.466 970.169 550.282 970.378 550.018C970.587 549.754 970.933 549.427 971.278 548.995C971.601 548.571 971.962 547.971 971.89 547.316C971.866 546.66 971.246 546.02 970.354 545.812C970.137 545.764 969.904 545.732 969.678 545.74C969.453 545.74 969.236 545.796 968.995 545.868C968.52 546.02 968.054 546.3 967.539 546.628C967.025 546.948 966.494 547.244 966.012 547.587L965.642 546.996L965.682 546.98C966.197 546.82 966.671 546.404 967.089 545.924C967.298 545.676 967.499 545.42 967.708 545.149C967.909 544.893 968.102 544.621 968.271 544.341C968.609 543.781 968.923 543.157 968.995 542.542C969.027 542.398 969.003 542.222 969.003 542.134C968.987 542.038 968.955 541.958 968.898 541.878C968.81 541.846 968.738 541.822 968.617 541.806C968.464 541.806 968.319 541.758 968.167 541.79C967.564 541.822 966.96 542.126 966.43 542.542C965.947 542.926 965.521 543.389 965.143 543.893C964.95 544.141 964.773 544.405 964.604 544.669C964.443 544.925 964.299 545.205 964.17 545.484C964.057 545.724 963.953 545.972 963.856 546.22L962.859 545.724L962.924 545.596L963.35 544.733C963.615 544.165 963.848 543.589 964.049 543.014C964.146 542.726 964.242 542.438 964.323 542.15C964.363 541.998 964.403 541.862 964.427 541.758C964.435 541.694 964.427 541.694 964.427 541.662C964.419 541.614 964.371 541.582 964.323 541.59H964.258C964.258 541.59 964.073 541.654 963.985 541.694C963.792 541.774 963.559 541.958 963.342 542.11C963.133 542.27 962.94 542.43 962.779 542.606C962.425 542.982 962.119 543.397 961.83 543.829L960.993 545.133C960.72 545.548 960.487 545.94 960.302 546.316C960.029 546.876 959.868 547.451 959.739 548.003L958.541 547.515C958.581 547.396 958.621 547.26 958.653 547.116C958.782 546.524 958.742 545.924 958.653 545.508C958.565 545.085 958.412 544.829 958.348 544.781C958.316 544.733 958.316 544.757 958.283 544.765C958.139 544.797 957.97 544.845 957.833 544.941C957.552 545.101 957.27 545.412 957.045 545.724C956.82 546.052 956.635 546.412 956.466 546.756C956.386 546.932 956.305 547.1 956.233 547.268L956.12 547.523L956 547.779C955.67 548.419 955.38 548.851 955.179 549.171C954.978 549.483 954.842 549.65 954.737 549.634C954.641 549.618 954.584 549.387 954.624 548.987C954.665 548.587 954.825 548.027 955.003 547.412L955.067 547.18L955.131 546.924C955.179 546.732 955.244 546.54 955.3 546.332C955.437 545.924 955.606 545.476 955.863 545.021C956.144 544.557 956.466 544.117 957.021 543.733C957.302 543.557 957.64 543.389 958.01 543.325C958.098 543.301 958.227 543.285 958.372 543.301C958.509 543.301 958.645 543.301 958.774 543.357C959.031 543.429 959.297 543.621 959.458 543.813C959.755 544.149 959.972 544.645 960.085 545.245C960.197 545.844 960.238 546.548 960.053 547.404C960.004 547.635 959.932 547.891 959.779 548.211L958.332 547.619C958.468 547.068 958.669 546.412 959.007 545.74C959.24 545.284 959.514 544.853 959.795 544.445L960.664 543.173C960.977 542.726 961.331 542.254 961.766 541.806C961.999 541.566 962.256 541.358 962.513 541.166L962.907 540.903C963.052 540.807 963.213 540.719 963.366 540.647C963.535 540.567 963.663 540.519 963.872 540.455C964.09 540.399 964.299 540.367 964.5 540.375C964.966 540.383 965.392 540.703 965.529 541.15C965.601 541.374 965.601 541.622 965.569 541.862C965.529 542.102 965.481 542.238 965.433 542.398C965.336 542.702 965.231 543.006 965.119 543.309C964.894 543.909 964.628 544.509 964.339 545.101C964.194 545.388 964.041 545.676 963.881 545.964L963.736 546.244L962.915 545.836C963.012 545.628 963.092 545.412 963.205 545.213C963.35 544.901 963.519 544.597 963.712 544.301C963.897 544.013 964.106 543.733 964.315 543.461C964.741 542.926 965.223 542.414 965.786 541.982C966.398 541.502 967.121 541.086 967.974 541.014C968.183 540.99 968.392 540.982 968.609 541.014C968.802 541.014 969.067 541.126 969.317 541.206C969.373 541.23 969.453 541.238 969.493 541.286L969.59 541.454C969.671 541.566 969.711 541.686 969.735 541.814C969.775 541.942 969.815 542.07 969.807 542.19C969.807 542.294 969.823 542.414 969.807 542.51C969.727 543.333 969.389 544.013 969.043 544.653C968.858 544.973 968.665 545.276 968.448 545.564C968.247 545.836 968.046 546.124 967.821 546.396C967.371 546.94 966.848 547.499 966.068 547.827L965.987 547.859L965.392 546.9C965.923 546.492 966.462 546.172 966.928 545.852C967.411 545.524 967.941 545.165 968.561 544.925C968.866 544.805 969.204 544.717 969.558 544.693C969.896 544.669 970.225 544.693 970.547 544.757C971.174 544.885 971.754 545.165 972.211 545.596C972.662 546.028 972.951 546.628 972.992 547.196C973.047 547.763 972.904 548.283 972.702 548.691C972.501 549.099 972.243 549.411 971.994 549.666C971.488 550.154 971.054 550.394 970.748 550.538C970.434 550.674 970.241 550.69 970.161 550.586L970.169 550.578Z" fill="#014E72"/>
<path d="M922.578 576.07C922.61 576.198 922.361 576.358 921.846 576.534C921.331 576.67 920.535 576.798 919.562 576.71C918.621 576.638 917.415 576.406 916.161 575.838C914.914 575.271 913.595 574.391 912.445 573.144C912.164 572.832 911.882 572.504 911.633 572.144C911.384 571.808 911.143 571.44 910.909 571.049C910.435 570.273 910.033 569.385 909.783 568.37C909.542 567.338 909.542 566.323 909.582 565.371C909.623 564.443 909.663 563.444 909.816 562.404C909.896 561.885 910.009 561.349 910.161 560.813C910.322 560.301 910.507 559.79 910.708 559.278C911.118 558.27 911.617 557.295 912.188 556.335C912.751 555.376 913.434 554.456 914.247 553.64C915.067 552.833 916.024 552.137 917.069 551.61C918.026 551.138 919.007 550.81 920.021 550.538C920.527 550.41 921.05 550.298 921.581 550.242C922.095 550.17 922.626 550.154 923.165 550.186C923.712 550.218 924.259 550.33 924.789 550.49C925.312 550.682 925.835 550.93 926.277 551.226C927.178 551.817 927.934 552.561 928.553 553.401C929.172 554.24 929.638 555.168 929.968 556.111C930.137 556.583 930.258 557.063 930.362 557.543C930.475 558.063 930.523 558.598 930.539 559.086C930.547 559.582 930.539 560.046 930.515 560.477V560.637C930.499 560.701 930.499 560.741 930.491 560.749L930.475 560.853C930.475 560.925 930.459 560.997 930.459 561.061V561.325C930.579 561.221 930.724 561.045 930.804 560.949C930.756 560.957 931.198 560.581 931.504 560.317C931.834 560.046 932.147 559.766 932.477 559.526C933.129 559.046 933.732 558.606 934.295 558.222C935.372 557.455 936.393 556.679 937.391 556.023C939.361 554.776 940.881 553.984 941.645 553.608C942.392 553.241 943.148 552.897 943.912 552.545C944.676 552.209 945.497 551.913 946.18 551.705C946.88 551.466 947.555 551.306 948.174 551.13L949.075 550.922L949.525 550.826L949.968 550.746C951.102 550.594 951.882 550.594 952.445 550.602C952.999 550.61 953.313 550.634 953.337 550.738C953.361 550.834 953.064 551.01 952.485 551.186C951.906 551.362 951.053 551.545 950.121 551.793L949.775 551.897L949.405 552.025L948.552 552.313C947.965 552.529 947.322 552.737 946.655 553.001C945.963 553.257 945.328 553.513 944.62 553.84C943.912 554.168 943.14 554.544 942.312 554.952C941.58 555.304 940.141 556.023 938.275 557.183C937.375 557.751 936.337 558.502 935.115 559.358C934.504 559.758 933.908 560.182 933.321 560.597C933.024 560.805 932.75 561.029 932.469 561.261L932.043 561.621C931.898 561.749 931.794 561.829 931.464 562.125C930.692 562.82 929.88 563.556 928.979 564.372C929.019 563.916 929.059 563.38 929.1 562.836C929.14 562.357 929.18 561.877 929.22 561.397C929.244 561.053 929.26 560.717 929.285 560.381C929.317 559.934 929.333 559.502 929.333 559.094C929.333 558.678 929.301 558.278 929.236 557.895C929.156 557.463 929.051 557.031 928.923 556.607C928.657 555.752 928.279 554.928 927.757 554.168C927.242 553.417 926.591 552.729 925.851 552.177C925.473 551.921 925.087 551.681 924.669 551.513C924.25 551.338 923.8 551.234 923.35 551.178C922.891 551.114 922.409 551.13 921.918 551.154C921.444 551.186 920.961 551.266 920.479 551.37C919.53 551.578 918.557 551.889 917.672 552.281C916.691 552.721 915.791 553.337 915.003 554.064C914.223 554.8 913.571 555.664 913.016 556.567C912.477 557.479 911.979 558.422 911.593 559.398C911.4 559.886 911.223 560.365 911.07 560.861C910.934 561.325 910.829 561.805 910.756 562.292C910.604 563.276 910.572 564.276 910.547 565.315C910.523 566.323 910.564 567.242 910.765 568.05C910.95 568.849 911.335 569.649 911.77 570.369C911.979 570.737 912.236 571.08 912.477 571.424C912.727 571.752 912.976 572.064 913.25 572.344C914.311 573.479 915.525 574.263 916.643 574.807C917.777 575.334 918.838 575.59 919.763 575.726C920.672 575.878 921.364 575.862 921.838 575.886C922.312 575.886 922.594 575.926 922.618 576.054L922.578 576.07Z" fill="#014E72"/>
<path d="M927.531 566.499C927.62 566.603 927.604 566.763 927.499 566.955C927.395 567.155 927.202 567.402 926.96 567.706C926.735 568.01 926.454 568.402 926.132 568.85C925.81 569.306 925.473 569.825 925.127 570.425L924.861 570.881C924.781 571.033 924.701 571.193 924.62 571.361C924.467 571.696 924.323 572.056 924.122 572.432C924.017 572.616 923.888 572.792 923.776 572.96L923.591 573.216C923.535 573.296 923.446 573.456 923.382 573.568C923.317 573.688 923.253 573.808 923.189 573.927L923.149 574.023C923.149 574.023 923.084 574.023 923.052 574.023L922.835 573.991C922.57 573.967 922.192 573.912 921.999 573.888C921.765 573.847 921.524 573.8 921.291 573.712C921.066 573.624 920.841 573.528 920.623 573.424C920.181 573.216 919.771 572.944 919.361 572.664C918.951 572.384 918.565 572.056 918.211 571.688C917.865 571.313 917.552 570.905 917.294 570.457C917.053 570.057 916.86 569.625 916.707 569.178C916.627 568.954 916.571 568.73 916.514 568.506C916.474 568.282 916.41 568.066 916.37 567.834C916.321 567.602 916.297 567.37 916.273 567.139C916.265 566.899 916.257 566.659 916.273 566.427C916.297 565.963 916.37 565.499 916.49 565.06C916.603 564.612 916.764 564.18 916.965 563.772C917.061 563.564 917.174 563.372 917.294 563.18C917.423 562.973 917.6 562.789 917.769 562.637C918.114 562.325 918.468 562.125 918.742 561.901C919.047 561.661 919.353 561.413 919.691 561.205C920.02 560.989 920.414 560.829 920.792 560.734C921.17 560.646 921.524 560.614 921.846 560.59C922.473 560.542 923.084 560.486 923.663 560.566C924.797 560.766 925.529 561.237 925.867 561.469C926.188 561.717 926.518 561.957 926.8 562.253C927.097 562.533 927.322 562.9 927.483 563.204C927.652 563.524 927.773 563.836 927.861 564.132C927.901 564.284 927.933 564.428 927.958 564.564C927.974 564.636 927.982 564.708 927.99 564.78V564.996C927.974 565.555 927.797 565.915 927.676 566.155C927.539 566.387 927.435 566.507 927.33 566.499C927.234 566.491 927.129 566.347 927.097 566.115C927.041 565.883 927.057 565.539 926.952 565.172L926.912 565.036C926.896 564.988 926.88 564.94 926.856 564.892C926.808 564.788 926.759 564.676 926.703 564.572C926.591 564.356 926.462 564.124 926.301 563.9C926.14 563.668 925.979 563.452 925.746 563.252C925.529 563.044 925.248 562.869 924.974 562.653C924.725 562.477 924.21 562.141 923.414 561.973C923.02 561.901 922.545 561.933 921.991 561.949C921.717 561.957 921.436 561.965 921.162 562.021C920.889 562.069 920.623 562.165 920.358 562.317C920.085 562.461 919.835 562.669 919.554 562.861C919.265 563.084 918.935 563.252 918.661 563.46C918.525 563.564 918.404 563.676 918.308 563.804C918.211 563.956 918.098 564.1 918.018 564.268C917.833 564.588 917.688 564.94 917.568 565.307C917.447 565.675 917.367 566.059 917.318 566.451C917.294 566.643 917.286 566.843 917.278 567.035C917.278 567.235 917.294 567.435 917.326 567.626C917.351 567.826 917.391 568.026 917.423 568.234C917.463 568.434 917.495 568.634 917.552 568.826C917.648 569.218 917.801 569.601 917.986 569.961C918.195 570.361 918.444 570.745 918.742 571.081C919.047 571.417 919.385 571.713 919.747 571.968C920.117 572.224 920.487 572.464 920.881 572.648C921.074 572.744 921.275 572.824 921.476 572.904C921.669 572.968 921.87 573.008 922.079 573.032C922.176 573.048 922.296 573.056 922.377 573.064L922.489 573.048C922.489 573.048 922.554 573.048 922.578 573.032C922.586 573 922.602 572.968 922.626 572.944L922.658 572.904L922.674 572.888L922.714 572.824L922.891 572.552C923.004 572.376 923.116 572.208 923.197 572.04C923.366 571.705 923.494 571.329 923.639 570.961C923.712 570.777 923.792 570.593 923.88 570.417L924.146 569.921C924.492 569.282 924.837 568.714 925.191 568.242C925.545 567.77 925.875 567.37 926.212 567.067C926.542 566.779 926.832 566.595 927.049 566.507C927.266 566.419 927.419 566.419 927.507 566.515L927.531 566.499Z" fill="#014E72"/>
<path d="M991.23 556.503C991.1 556.487 991.004 556.367 990.964 556.151C990.915 555.928 990.948 555.616 991.036 555.24C991.109 554.872 991.253 554.4 991.495 553.904C991.736 553.409 992.074 552.873 992.533 552.353L992.903 551.977L993.288 551.61C993.57 551.362 993.868 551.09 994.27 550.914C994.672 550.73 995.114 550.698 995.508 550.658C995.893 550.618 996.288 550.53 996.73 550.474C996.947 550.458 997.181 550.434 997.406 550.474C997.63 550.498 997.847 550.546 998.074 550.602C998.508 550.714 998.933 550.882 999.352 551.074C999.769 551.266 1000.18 551.498 1000.55 551.793C1000.91 552.089 1001.27 552.425 1001.55 552.817C1001.81 553.161 1002.03 553.545 1002.2 553.944C1002.29 554.144 1002.36 554.352 1002.42 554.56C1002.48 554.76 1002.53 554.968 1002.59 555.168C1002.63 555.384 1002.69 555.592 1002.71 555.808C1002.74 556.023 1002.74 556.255 1002.74 556.463C1002.74 556.895 1002.69 557.319 1002.59 557.735C1002.51 558.15 1002.37 558.55 1002.21 558.934C1002.12 559.126 1002.03 559.31 1001.93 559.494C1001.81 559.686 1001.67 559.87 1001.52 560.014C1001.21 560.309 1000.9 560.525 1000.59 560.757C1000.28 560.981 999.963 561.173 999.641 561.341C999.327 561.501 998.982 561.637 998.652 561.701C998.491 561.733 998.331 561.765 998.178 561.789L997.51 561.901L997.309 561.933C997.164 561.789 997.028 561.645 996.883 561.509L996.779 561.413L996.714 561.357L996.585 561.253L996.071 560.853C995.395 560.27 994.889 559.87 994.631 559.67C994.39 559.462 994.132 559.294 993.875 559.11C993.618 558.934 993.369 558.718 993.167 558.55L992.58 558.046C992.492 557.967 992.403 557.887 992.323 557.823L992.195 557.711L992.074 557.591C991.784 557.263 991.616 556.967 991.463 556.783C991.326 556.583 991.238 556.447 991.278 556.351C991.31 556.255 991.47 556.215 991.729 556.271C991.986 556.319 992.307 556.519 992.652 556.719L992.79 556.791L992.943 556.863C993.054 556.911 993.16 556.975 993.271 557.031C993.505 557.151 993.739 557.295 993.988 557.455C994.245 557.615 994.47 557.783 994.751 557.951C995.017 558.126 995.331 558.31 995.612 558.558C995.869 558.766 996.377 559.19 997.036 559.79L997.534 560.214L997.783 560.437C997.783 560.437 997.783 560.461 997.783 560.469C997.783 560.469 997.847 560.469 997.88 560.469L998.291 560.421C998.563 560.381 998.812 560.301 999.078 560.182C999.335 560.062 999.601 559.91 999.826 559.766C1000.01 559.646 1000.32 559.47 1000.56 559.27C1000.69 559.174 1000.78 559.062 1000.87 558.95C1000.97 558.814 1001.03 558.662 1001.12 558.518C1001.27 558.214 1001.4 557.895 1001.49 557.559C1001.59 557.223 1001.64 556.871 1001.68 556.519C1001.68 556.343 1001.71 556.167 1001.69 555.992C1001.68 555.816 1001.66 555.64 1001.63 555.464C1001.6 555.288 1001.55 555.112 1001.51 554.928C1001.46 554.752 1001.43 554.576 1001.35 554.408C1001.24 554.064 1001.07 553.737 1000.88 553.433C1000.65 553.097 1000.38 552.793 1000.08 552.521C999.769 552.257 999.416 552.049 999.061 551.873C998.693 551.714 998.331 551.561 997.953 551.466C997.759 551.426 997.574 551.378 997.381 551.362C997.204 551.338 997.019 551.362 996.835 551.378C996.465 551.434 996.111 551.537 995.741 551.602C995.38 551.649 995.025 551.69 994.744 551.825C994.462 551.961 994.213 552.185 993.996 552.417C993.883 552.529 993.779 552.657 993.666 552.769C993.554 552.873 993.465 553.001 993.36 553.105C992.982 553.553 992.718 554.024 992.492 554.44C992.275 554.864 992.114 555.24 991.969 555.576C991.816 555.895 991.687 556.143 991.583 556.311C991.47 556.479 991.359 556.567 991.221 556.551L991.23 556.503Z" fill="#014E72"/>
<path d="M964.106 586.617C962.417 586.801 962.192 587.145 961.468 587.697C960.744 588.249 960.358 589.136 960.406 590.048C960.455 590.959 961.235 591.839 962.135 591.783C962.98 591.727 963.599 590.975 964.057 590.256C964.516 590.735 965.095 591.127 965.746 591.231C966.397 591.335 967.129 591.095 967.499 590.543C967.925 589.92 967.813 589.048 967.451 588.384C966.816 587.217 965.448 586.481 964.106 586.625V586.617Z" fill="#014E72"/>
<path d="M964.105 586.625C964.089 586.498 964.153 586.386 964.29 586.298C964.434 586.218 964.651 586.194 964.917 586.21C965.174 586.226 965.512 586.266 965.866 586.41C966.22 586.546 966.598 586.753 966.959 587.057C967.048 587.137 967.136 587.209 967.225 587.297L967.482 587.553C967.667 587.729 967.852 587.937 967.973 588.217C968.093 588.505 968.069 588.817 968.069 589.088C968.069 589.352 968.125 589.624 968.117 589.944C968.117 590.104 968.093 590.272 968.021 590.432C967.949 590.584 967.86 590.736 967.747 590.864C967.522 591.127 967.225 591.311 966.919 591.447C966.614 591.591 966.276 591.655 965.93 591.655C965.584 591.655 965.255 591.559 964.941 591.439C964.804 591.383 964.668 591.311 964.539 591.239L964.298 591.087C964.249 591.055 964.209 591.024 964.169 590.992C964.153 590.975 964.137 590.968 964.121 590.96C964.105 590.968 964.097 591.024 964.081 591.048L964.024 591.215C964.008 591.263 964.008 591.263 963.896 591.407C963.711 591.631 963.493 591.847 963.236 592.031C962.979 592.215 962.657 592.367 962.303 592.431C962.135 592.463 961.941 592.471 961.765 592.455C961.572 592.439 961.378 592.359 961.234 592.271C960.936 592.079 960.759 591.847 960.574 591.679C960.381 591.495 960.18 591.303 960.028 591.079C959.867 590.856 959.754 590.568 959.738 590.288C959.722 590 959.762 589.8 959.794 589.584C959.851 589.192 959.867 588.8 959.987 588.441C960.253 587.761 960.655 587.353 960.848 587.169C961.065 586.993 961.145 586.897 961.33 586.729C961.491 586.569 961.74 586.426 961.957 586.338C962.183 586.242 962.4 586.186 962.593 586.162C962.689 586.146 962.778 586.146 962.866 586.138H963.003C963.051 586.138 963.091 586.138 963.132 586.154C963.469 586.234 963.687 586.386 963.839 586.498C963.992 586.61 964.081 586.697 964.089 586.801C964.097 586.897 964.032 587.009 963.888 587.073C963.751 587.145 963.534 587.145 963.309 587.193L963.228 587.217L963.148 587.257C963.091 587.289 963.027 587.313 962.963 587.345C962.834 587.409 962.721 587.481 962.601 587.553C962.48 587.633 962.376 587.721 962.255 587.865C962.151 587.993 961.95 588.209 961.813 588.321C961.7 588.425 961.483 588.641 961.314 589.016C961.242 589.208 961.242 589.448 961.169 589.712C961.137 589.84 961.089 590 961.073 590.104C961.057 590.224 961.097 590.344 961.169 590.456C961.242 590.568 961.346 590.672 961.443 590.776C961.547 590.88 961.604 591.039 961.708 591.159C961.756 591.215 961.821 591.263 961.885 591.279C961.957 591.295 962.03 591.295 962.11 591.287C962.271 591.271 962.432 591.223 962.593 591.128C962.754 591.031 962.914 590.904 963.075 590.744L963.188 590.616L963.365 590.392L963.694 589.864C963.775 589.736 963.855 589.584 963.936 589.48L964.072 589.616L964.539 590.104C964.901 590.456 965.037 590.52 965.23 590.64C965.44 590.752 965.673 590.824 965.898 590.856C966.123 590.872 966.348 590.824 966.549 590.736C966.742 590.64 966.927 590.544 967.048 590.392C967.112 590.32 967.161 590.24 967.201 590.152C967.233 590.064 967.241 589.968 967.233 589.872C967.217 589.672 967.136 589.488 967.128 589.272C967.128 589.064 967.144 588.841 967.064 588.673C966.984 588.505 966.831 588.369 966.678 588.249L966.453 588.073C966.388 588.009 966.308 587.961 966.244 587.905C965.962 587.705 965.681 587.569 965.424 587.449C965.174 587.329 964.941 587.273 964.74 587.185C964.547 587.105 964.386 587.017 964.273 586.945C964.161 586.865 964.081 586.769 964.072 586.634L964.105 586.625Z" fill="#014E72"/>
<path d="M971.6 587.745C971.552 587.873 971.464 587.953 971.351 587.993C971.23 588.033 971.086 588.017 970.917 587.977L970.298 587.841C970.056 587.785 969.791 587.705 969.494 587.641L969.268 587.593C969.196 587.577 969.116 587.577 969.035 587.569C968.866 587.569 968.697 587.569 968.512 587.521C968.328 587.473 968.167 587.337 967.998 587.257C967.837 587.177 967.644 587.193 967.443 587.225C967.346 587.241 967.242 587.249 967.137 587.249L966.84 587.209C966.639 587.185 966.438 587.169 966.229 587.177C966.019 587.193 965.81 587.193 965.601 587.217L964.974 587.273C964.781 587.289 964.596 587.321 964.403 587.345L964.122 587.385C964.033 587.401 963.945 587.425 963.848 587.457C963.76 587.481 963.663 587.521 963.575 587.553C963.486 587.585 963.39 587.609 963.301 587.633C963.124 587.681 962.939 587.721 962.771 587.777L962.264 587.945L962.015 588.025C961.926 588.049 961.83 588.057 961.741 588.057C961.556 588.057 961.38 588.025 961.251 588.073C961.106 588.129 960.969 588.209 960.833 588.297C960.696 588.385 960.551 588.457 960.406 588.489C960.262 588.521 960.117 588.529 959.996 588.569C959.763 588.641 959.578 588.817 959.393 588.937C959.023 589.145 958.766 589.32 958.629 589.4C958.492 589.464 958.372 589.56 958.259 589.656C958.139 589.752 958.002 589.816 957.873 589.864C957.745 589.912 957.624 589.952 957.511 589.992L957.343 590.048L957.254 590.072C957.254 590.072 957.19 590.08 957.166 590.08C956.916 590.08 956.691 590.008 956.53 589.968C956.37 589.92 956.265 589.88 956.201 589.792C956.136 589.712 956.136 589.592 956.201 589.488C956.273 589.376 956.434 589.304 956.587 589.193L956.643 589.145L956.699 589.089L956.828 588.953C956.924 588.865 957.029 588.785 957.142 588.689C957.262 588.601 957.375 588.521 957.495 588.401C957.608 588.289 957.745 588.161 957.913 588.081C958.058 588.009 958.34 587.833 958.75 587.633C958.943 587.537 959.16 587.361 959.458 587.281C959.602 587.241 959.763 587.241 959.916 587.217C960.069 587.202 960.197 587.153 960.35 587.073C960.495 587.002 960.648 586.922 960.825 586.866C961.01 586.81 961.227 586.85 961.404 586.866C961.5 586.874 961.581 586.874 961.661 586.866L961.934 586.81L962.489 586.69C962.674 586.65 962.875 586.626 963.068 586.594L963.358 586.546L963.647 586.474C963.744 586.45 963.848 586.434 963.953 586.426L964.258 586.41C964.459 586.41 964.66 586.386 964.861 586.394H965.529C965.746 586.37 965.971 586.37 966.188 586.354C966.406 586.338 966.623 586.354 966.832 586.354L967.145 586.378C967.242 586.378 967.346 586.362 967.451 586.338C967.66 586.29 967.877 586.234 968.086 586.306C968.295 586.37 968.472 586.482 968.641 586.514C968.81 586.538 968.995 586.522 969.18 586.514C969.268 586.514 969.365 586.514 969.453 586.514L969.711 586.546C970.04 586.594 970.338 586.658 970.588 586.738C970.845 586.81 971.062 586.906 971.23 587.018C971.4 587.137 971.504 587.257 971.568 587.369C971.632 587.481 971.641 587.593 971.6 587.713V587.745Z" fill="#014E72"/>
<path d="M964.789 595.237C964.661 595.261 964.548 595.261 964.476 595.237C964.395 595.221 964.363 595.181 964.339 595.125C964.307 595.077 964.275 595.013 964.259 594.933L964.21 594.67V594.598C964.21 594.598 964.186 594.55 964.17 594.526C964.138 594.478 964.09 594.43 964.098 594.366C964.114 594.302 964.218 594.23 964.267 594.166C964.315 594.102 964.267 594.054 964.21 593.998C964.186 593.974 964.162 593.942 964.154 593.91V593.814C964.154 593.75 964.17 593.678 964.146 593.622L964.074 593.43L964.025 593.238L963.977 593.062L963.953 592.974C963.953 592.974 963.921 592.918 963.897 592.894L963.832 592.814C963.832 592.814 963.8 592.758 963.792 592.727L963.72 592.559L963.647 592.399L963.615 592.319C963.615 592.319 963.615 592.255 963.639 592.223C963.688 592.159 963.76 592.095 963.744 592.055C963.728 592.007 963.68 591.967 963.639 591.919C963.599 591.879 963.567 591.823 963.583 591.775C963.599 591.727 963.623 591.679 963.631 591.631C963.647 591.551 963.543 591.487 963.503 591.423L963.382 591.151C963.382 591.103 963.334 591.063 963.31 591.015C963.277 590.967 963.293 590.919 963.31 590.871C963.326 590.823 963.342 590.783 963.366 590.735L963.406 590.671L963.43 590.639C963.43 590.639 963.454 590.615 963.47 590.607C963.599 590.52 963.776 590.447 963.889 590.4C964.009 590.352 964.106 590.312 964.21 590.296C964.307 590.28 964.411 590.28 964.468 590.312C964.524 590.336 964.5 590.4 964.516 590.456V590.48L964.548 590.503L964.596 590.551C964.596 590.551 964.653 590.624 964.677 590.663C964.701 590.703 964.717 590.743 964.765 590.783C964.805 590.823 964.862 590.871 964.87 590.927L964.942 591.199C964.966 591.263 965.055 591.327 965.014 591.423C964.998 591.471 964.958 591.519 964.934 591.567C964.91 591.615 964.91 591.655 964.934 591.703C964.958 591.751 964.998 591.791 965.006 591.847C965.014 591.903 964.926 591.975 964.862 592.039C964.829 592.071 964.805 592.103 964.805 592.127V592.207L964.829 592.375V592.551L964.846 592.639L964.878 592.727C964.878 592.727 964.902 592.782 964.91 592.814V592.91L964.894 593.094V593.294C964.902 593.358 964.926 593.422 964.95 593.486C964.982 593.55 964.966 593.614 964.982 593.678L964.998 593.774C964.998 593.774 965.039 593.83 965.071 593.854C965.135 593.91 965.223 593.958 965.199 594.022C965.175 594.086 965.087 594.158 965.095 594.214C965.095 594.262 965.167 594.31 965.216 594.358C965.24 594.382 965.264 594.406 965.28 594.43L965.312 594.502C965.352 594.598 965.384 594.678 965.384 594.766C965.384 594.846 965.384 594.917 965.336 594.982C965.288 595.045 965.216 595.101 965.135 595.141C965.055 595.181 964.958 595.213 964.821 595.237H964.789Z" fill="#014E72"/>
<path d="M966.519 593.814C966.647 593.854 966.736 593.91 966.792 593.966C966.848 594.022 966.856 594.086 966.84 594.158C966.832 594.222 966.824 594.318 966.768 594.406C966.72 594.494 966.663 594.59 966.599 594.686L966.543 594.758C966.543 594.758 966.511 594.814 966.503 594.846C966.479 594.909 966.462 594.989 966.398 595.029C966.326 595.061 966.197 595.029 966.109 595.037C966.02 595.037 966.004 595.117 965.964 595.189C965.948 595.229 965.932 595.269 965.9 595.293L965.795 595.341C965.731 595.381 965.642 595.389 965.586 595.445L965.385 595.589C965.312 595.629 965.24 595.661 965.16 595.693C965.095 595.725 965.023 595.757 964.951 595.781L964.838 595.821C964.838 595.821 964.766 595.853 964.733 595.877C964.701 595.901 964.661 595.925 964.621 595.949C964.581 595.973 964.54 595.981 964.5 595.989L964.267 596.037C964.187 596.045 964.114 596.061 964.034 596.069H963.921C963.881 596.085 963.841 596.053 963.809 596.021C963.744 595.949 963.696 595.861 963.64 595.853C963.575 595.853 963.503 595.877 963.431 595.885C963.358 595.901 963.286 595.893 963.238 595.853L963.101 595.725C963.021 595.661 962.892 595.693 962.795 595.677C962.618 595.621 962.49 595.565 962.426 595.533C962.369 595.493 962.297 595.477 962.241 595.445C962.176 595.413 962.128 595.357 962.104 595.301C962.08 595.245 962.056 595.189 962.039 595.125L962.023 595.037V594.989C962.023 594.989 962.023 594.957 962.031 594.933C962.08 594.782 962.2 594.622 962.281 594.526C962.369 594.422 962.434 594.358 962.522 594.294C962.602 594.238 962.699 594.19 962.755 594.19C962.82 594.19 962.811 594.238 962.852 594.27H962.9L962.956 594.286C962.956 594.286 963.029 594.302 963.069 594.31C963.101 594.326 963.133 594.334 963.189 594.326C963.238 594.326 963.294 594.31 963.326 594.334C963.358 594.35 963.423 594.382 963.511 594.422C963.559 594.438 963.64 594.39 963.672 594.462C963.688 594.494 963.704 594.55 963.72 594.59C963.736 594.638 963.768 594.646 963.809 594.638C963.849 594.638 963.889 594.614 963.929 594.622C963.969 594.63 963.986 594.742 964.018 594.814C964.034 594.853 964.05 594.886 964.066 594.894L964.13 594.909C964.179 594.918 964.219 594.918 964.267 594.925L964.412 594.942H964.484L964.557 594.909C964.557 594.909 964.605 594.886 964.629 594.886C964.653 594.886 964.677 594.886 964.701 594.886C964.75 594.886 964.806 594.886 964.854 594.886C964.91 594.886 964.967 594.87 965.023 594.853C965.079 594.83 965.119 594.79 965.168 594.758C965.208 594.71 965.264 594.702 965.304 594.67L965.369 594.622C965.369 594.622 965.393 594.566 965.393 594.534C965.401 594.462 965.393 594.366 965.449 594.358C965.514 594.358 965.61 594.382 965.65 594.358C965.682 594.334 965.674 594.254 965.666 594.198C965.666 594.166 965.666 594.142 965.666 594.118L965.69 594.062C965.715 593.982 965.739 593.918 965.779 593.878C965.827 593.83 965.851 593.79 965.924 593.774C965.996 593.758 966.084 593.75 966.173 593.758C966.261 593.758 966.366 593.782 966.495 593.83L966.519 593.814Z" fill="#014E72"/>
<path d="M870.749 611.11C870.628 611.174 870.331 610.863 869.873 610.207C869.43 609.543 868.779 608.576 868.127 607.312L867.026 605.225C866.616 604.458 866.254 603.578 865.828 602.658C865.393 601.739 865.007 600.731 864.605 599.668C864.404 599.132 864.187 598.588 863.986 598.028C863.809 597.453 863.624 596.869 863.431 596.269C863.254 595.67 863.029 595.078 862.892 594.438C862.74 593.83 862.579 593.207 862.418 592.559L862.161 591.567L861.968 590.528C861.839 589.824 861.718 589.089 861.598 588.321C861.533 587.537 861.517 586.77 861.493 586.026L861.461 584.915C861.477 584.547 861.501 584.179 861.517 583.819C861.549 583.115 861.558 582.388 861.558 581.636C861.614 580.884 861.678 580.117 861.742 579.317C861.767 578.518 861.943 577.71 862.112 576.878C862.289 576.079 862.418 575.263 862.707 574.487C862.965 573.704 863.206 572.904 863.488 572.12C863.825 571.353 864.163 570.585 864.501 569.81L864.75 569.226C864.847 569.034 864.959 568.858 865.056 568.666L865.683 567.555L866.31 566.435C866.519 566.059 866.793 565.723 867.034 565.372C867.541 564.676 868.031 563.964 868.554 563.269C869.125 562.621 869.704 561.965 870.275 561.317C870.54 561.03 870.781 560.718 871.063 560.446L871.915 559.638L873.62 558.015C873.91 557.751 874.183 557.463 874.48 557.215L875.405 556.488C875.992 556.016 876.587 555.536 877.19 555.048C877.496 554.8 877.794 554.553 878.107 554.313L879.08 553.665C879.74 553.233 880.423 552.785 881.058 552.378C881.38 552.17 881.702 551.954 882.032 551.754L883.045 551.218L885.063 550.155L886.06 549.627L887.098 549.195L889.148 548.339C889.486 548.195 889.824 548.06 890.162 547.916C890.499 547.788 890.853 547.692 891.199 547.58C891.947 547.34 892.719 547.132 893.427 546.948C894.834 546.524 896.169 546.42 897.311 546.14L899.184 545.717L901.106 545.437C902.377 545.261 903.72 545.029 904.974 545.061C906.221 545.053 907.363 545.029 908.408 545.045C909.43 545.117 910.427 545.165 911.4 545.197C911.89 545.221 912.373 545.221 912.839 545.261L914.23 545.437L916.707 545.789C917.471 545.877 918.147 546.1 918.766 546.228L921.597 546.9L925.231 548.124C925.851 548.299 926.438 548.579 927.009 548.851C927.572 549.123 928.118 549.387 928.617 549.627C929.124 549.875 929.614 550.115 930.097 550.346L931.399 551.154C931.818 551.418 932.212 551.674 932.598 551.914L933.185 552.298L933.748 552.681C935.115 553.761 935.919 554.649 936.522 555.216C937.101 555.8 937.423 556.152 937.358 556.232C937.302 556.312 936.827 556.096 936.056 555.584C935.669 555.336 935.211 555 934.696 554.632L933.892 554.041L933.466 553.729L933 553.457L932.517 553.185L931.986 552.897L930.78 552.226L929.477 551.506L928.014 550.858L926.494 550.179C925.987 549.963 925.489 549.707 924.902 549.547C923.76 549.187 922.505 548.787 921.162 548.323C920.551 548.171 919.651 547.956 918.493 547.676C917.905 547.548 917.27 547.34 916.554 547.236C915.839 547.132 915.059 547.012 914.222 546.892C912.606 546.58 910.628 546.636 908.344 546.428L904.999 546.412C903.889 546.372 902.811 546.524 901.597 546.692L899.731 546.94C899.088 547.02 898.445 547.212 897.761 547.34C896.322 547.652 894.89 547.788 893.636 548.156C893 548.315 892.381 548.467 891.794 548.643L890.789 548.947C890.459 549.059 890.13 549.203 889.8 549.331L887.797 550.139C887.122 550.41 886.438 550.666 885.795 551.026L883.817 552.034C883.157 552.378 882.474 552.681 881.855 553.113C881.227 553.513 880.6 553.905 879.973 554.305C879.354 554.728 878.686 555.088 878.115 555.584L876.274 557.031C875.671 557.511 875.019 557.935 874.472 558.487L872.776 560.054C872.221 560.59 871.61 561.07 871.119 561.661L869.414 563.556C868.843 564.188 868.401 564.908 867.886 565.571L867.147 566.595C866.929 566.955 866.728 567.323 866.519 567.683C866.125 568.418 865.667 569.114 865.329 569.873C864.999 570.633 864.67 571.385 864.348 572.136C864.018 572.888 863.833 573.68 863.568 574.447C863.447 574.831 863.319 575.215 863.214 575.599C863.134 575.991 863.053 576.382 862.973 576.774C862.844 577.518 862.659 578.254 862.611 579.021C862.563 579.789 862.506 580.565 862.458 581.356C862.402 582.14 862.458 582.947 862.418 583.771C862.402 584.171 862.394 584.555 862.378 584.939C862.394 585.314 862.41 585.69 862.426 586.05C862.458 586.77 862.482 587.457 862.539 588.113C862.643 588.753 862.764 589.409 862.892 590.072C863.021 590.736 863.142 591.4 863.335 592.047C863.512 592.703 863.689 593.359 863.857 594.014C863.994 594.654 864.227 595.254 864.412 595.853C864.605 596.445 864.79 597.021 864.975 597.589C865.16 598.148 865.393 598.684 865.594 599.212C866.005 600.267 866.374 601.275 866.801 602.187C867.219 603.106 867.565 603.978 867.951 604.761C868.337 605.545 868.69 606.281 869.012 606.96C869.631 608.296 870.146 609.271 870.427 609.967C870.725 610.655 870.83 611.055 870.709 611.118L870.749 611.11Z" fill="#014E72"/>
<path d="M909.358 621.785C909.39 621.913 909.342 622.033 909.229 622.129C909.116 622.225 908.923 622.297 908.69 622.361C908.457 622.425 908.167 622.529 907.822 622.577L906.664 622.761L906.342 622.793C906.237 622.801 906.125 622.825 906.012 622.849C905.787 622.897 905.546 622.969 905.28 622.969C905.007 622.961 904.75 622.857 904.5 622.817C904.259 622.769 904.002 622.833 903.736 622.873C903.6 622.897 903.463 622.913 903.318 622.913L902.9 622.897C902.619 622.897 902.337 622.841 902.048 622.849C901.758 622.849 901.469 622.849 901.171 622.849L900.287 622.785C900.021 622.769 899.748 622.745 899.482 622.713L899.08 622.665C898.952 622.649 898.823 622.649 898.686 622.649C898.55 622.649 898.421 622.641 898.284 622.633C898.147 622.625 898.011 622.601 897.882 622.585L897.102 622.473L896.346 622.337L895.976 622.273C895.84 622.249 895.719 622.185 895.606 622.129C895.381 622.001 895.188 621.865 894.995 621.817C894.786 621.761 894.561 621.745 894.344 621.697C894.127 621.657 893.901 621.593 893.709 621.505L893.178 621.241C892.864 621.082 892.526 621.042 892.221 620.954C891.642 620.754 891.232 620.57 891.023 620.49C890.822 620.394 890.612 620.338 890.411 620.242C890.21 620.162 890.017 620.034 889.865 619.93C889.704 619.818 889.559 619.714 889.422 619.602L889.237 619.434L889.149 619.346C889.149 619.346 889.093 619.282 889.068 619.25C888.884 618.979 888.811 618.715 888.755 618.539C888.707 618.355 888.69 618.235 888.747 618.147C888.803 618.059 888.924 618.019 889.085 618.059C889.245 618.091 889.422 618.235 889.631 618.363L889.712 618.403L889.808 618.443L890.025 618.531L890.508 618.723C890.685 618.803 890.838 618.875 891.039 618.931C891.232 618.995 891.449 619.051 891.666 619.154C891.859 619.234 892.229 619.418 892.752 619.618C893.009 619.714 893.339 619.762 893.676 619.954L894.167 620.242C894.328 620.338 894.497 620.394 894.698 620.45C894.891 620.506 895.108 620.538 895.333 620.602C895.566 620.674 895.767 620.842 895.96 620.97C896.057 621.034 896.153 621.098 896.25 621.122L896.595 621.21L897.303 621.393C897.544 621.457 897.786 621.505 898.035 621.561L898.405 621.641L898.783 621.689C898.911 621.697 899.04 621.713 899.177 621.729L899.563 621.801C899.82 621.849 900.069 621.905 900.327 621.937L901.179 622.049C901.461 622.081 901.75 622.065 902.032 622.073C902.313 622.057 902.587 622.105 902.86 622.097H903.27C903.399 622.097 903.527 622.065 903.656 622.041C903.913 621.993 904.179 621.905 904.46 621.921C904.734 621.937 904.983 622.025 905.2 622.017C905.417 622.017 905.642 621.921 905.868 621.857C905.98 621.825 906.093 621.793 906.205 621.769L906.527 621.713C906.937 621.641 907.307 621.553 907.645 621.513C907.983 621.481 908.264 621.417 908.521 621.425C908.771 621.425 908.972 621.473 909.116 621.529C909.261 621.585 909.35 621.673 909.382 621.801L909.358 621.785Z" fill="#014E72"/>
<path d="M989.549 619.954C989.573 619.826 989.783 619.754 990.161 619.786C990.531 619.826 991.061 619.986 991.64 620.306C992.211 620.618 992.887 621.098 993.514 621.777C994.14 622.457 994.752 623.305 995.283 624.304C995.411 624.552 995.532 624.808 995.66 625.072L996.022 625.847C996.272 626.383 996.538 626.951 996.755 627.583C996.972 628.222 997.093 628.862 997.285 629.446C997.47 630.021 997.784 630.589 998.154 631.149C998.339 631.429 998.531 631.709 998.741 631.997C998.926 632.276 999.143 632.548 999.368 632.804C999.819 633.316 1000.32 633.812 1000.91 634.18C1001.5 634.555 1002.14 634.843 1002.81 634.987C1003.48 635.139 1004.18 635.139 1004.84 634.987C1005.45 634.843 1006.03 634.571 1006.56 634.212C1006.82 634.036 1007.08 633.836 1007.32 633.628C1007.55 633.428 1007.77 633.196 1007.99 632.956C1008.21 632.716 1008.41 632.46 1008.6 632.196C1008.8 631.941 1009.01 631.669 1009.19 631.413C1009.56 630.893 1009.89 630.349 1010.2 629.806C1010.49 629.254 1010.76 628.694 1010.98 628.126C1011.09 627.846 1011.2 627.567 1011.29 627.279C1011.4 626.975 1011.53 626.671 1011.63 626.391C1011.87 625.831 1012.07 625.312 1012.15 624.824C1012.24 624.304 1012.27 623.76 1012.28 623.225L1012.31 621.617C1012.34 621.106 1012.33 620.626 1012.31 620.194C1012.26 619.346 1012 618.563 1011.79 617.835C1011.39 616.412 1010.92 615.436 1010.7 614.948C1010.48 614.469 1010.22 614.013 1009.94 613.565L1009.16 612.262C1008.93 611.862 1008.68 611.494 1008.46 611.158L1008.13 610.67C1008.07 610.582 1008.01 610.51 1007.96 610.431L1007.8 610.191C1007.43 609.559 1007.2 609.071 1007.02 608.743C1006.85 608.407 1006.77 608.191 1006.84 608.12C1006.9 608.04 1007.14 608.12 1007.47 608.375C1007.81 608.623 1008.22 609.071 1008.66 609.567L1008.83 609.751C1008.9 609.815 1008.96 609.879 1009.03 609.943L1009.45 610.407C1009.73 610.734 1010.04 611.094 1010.33 611.51C1010.63 611.926 1010.88 612.326 1011.2 612.781C1011.5 613.237 1011.82 613.757 1012.09 614.349C1012.32 614.877 1012.79 615.908 1013.2 617.419C1013.4 618.147 1013.67 619.027 1013.71 620.09C1013.74 620.61 1013.73 621.13 1013.7 621.633L1013.63 623.201C1013.59 623.752 1013.55 624.352 1013.43 624.976C1013.3 625.647 1013.05 626.255 1012.81 626.799L1012.47 627.599C1012.36 627.894 1012.25 628.19 1012.11 628.486C1011.87 629.086 1011.57 629.67 1011.25 630.253C1010.92 630.829 1010.55 631.397 1010.14 631.941C1009.93 632.204 1009.73 632.476 1009.51 632.732C1009.3 632.996 1009.08 633.26 1008.85 633.516C1008.62 633.78 1008.36 634.028 1008.08 634.268C1007.8 634.499 1007.51 634.715 1007.21 634.907C1006.61 635.299 1005.93 635.619 1005.21 635.787C1004.41 635.987 1003.57 635.979 1002.79 635.811C1002 635.651 1001.26 635.323 1000.6 634.923C999.93 634.523 999.36 633.996 998.854 633.452C998.603 633.172 998.363 632.884 998.146 632.588C997.937 632.308 997.72 632.029 997.518 631.733C997.116 631.149 996.723 630.525 996.457 629.83C996.2 629.15 996.062 628.518 995.862 627.974C995.66 627.439 995.396 626.895 995.13 626.367L994.737 625.576C994.616 625.32 994.486 625.08 994.358 624.848C993.851 623.928 993.281 623.161 992.726 622.537C992.171 621.921 991.616 621.473 991.118 621.122C990.635 620.77 990.232 620.554 989.968 620.378C989.694 620.218 989.541 620.082 989.573 619.954H989.549Z" fill="#014E72"/>
<path d="M926.799 617.619C926.888 617.507 927.177 617.611 927.692 617.803C928.207 617.995 928.946 618.283 929.903 618.475C930.844 618.651 932.075 618.731 933.482 618.627C934.889 618.539 936.482 618.235 938.251 617.907L939.602 617.675L940.993 617.459C941.966 617.331 943.003 617.219 944.161 617.331C945.335 617.435 946.405 617.851 947.354 618.323C948.279 618.795 949.252 619.362 950.096 620.226C950.506 620.666 950.884 621.17 951.157 621.753C951.415 622.321 951.56 622.937 951.632 623.561C951.745 624.816 951.439 626.071 950.9 627.199C950.361 628.326 949.605 629.35 948.729 630.245C947.86 631.149 946.839 631.917 945.794 632.604C944.845 633.228 943.856 633.796 942.834 634.284C942.336 634.556 941.797 634.739 941.274 634.971C940.776 635.203 940.245 635.363 939.722 635.563C939.192 635.779 938.645 635.915 938.106 636.083C937.559 636.259 936.98 636.355 936.441 636.467C935.348 636.683 934.246 636.834 933.144 636.898C932.597 636.954 932.051 636.954 931.512 636.962C930.973 636.978 930.434 636.962 929.895 636.922C929.365 636.898 928.834 636.866 928.311 636.786C927.748 636.722 927.169 636.618 926.663 636.475C925.617 636.227 924.725 635.867 923.904 635.643L922.577 635.211C922.135 635.067 921.701 634.875 921.259 634.707C920.816 634.547 920.39 634.324 919.964 634.108C919.538 633.892 919.12 633.668 918.75 633.412C918.372 633.164 918.01 632.932 917.672 632.684L916.723 631.957C916.136 631.509 915.589 631.037 915.034 630.605C914.52 630.126 913.973 629.702 913.514 629.214C911.705 627.359 910.644 625.775 910.137 624.984C909.638 624.208 909.18 623.409 908.738 622.593C908.328 621.761 907.934 620.89 907.692 620.13C907.411 619.362 907.218 618.619 907.041 617.931C906.944 617.587 906.888 617.251 906.832 616.932L906.743 616.428L906.679 615.94C906.591 614.677 906.655 613.829 906.743 613.221C906.824 612.622 906.888 612.294 906.993 612.286C907.089 612.278 907.226 612.622 907.33 613.269C907.419 613.917 907.547 614.853 907.749 615.876L907.845 616.26L907.958 616.668C908.038 616.972 908.119 617.283 908.239 617.603C908.456 618.251 908.681 618.939 908.987 619.658C909.26 620.41 909.606 621.066 909.984 621.825C910.41 622.553 910.869 623.361 911.416 624.208C911.882 624.952 912.855 626.415 914.488 628.142C915.284 628.982 916.345 629.87 917.6 630.885L918.524 631.621L919.489 632.293C919.803 632.524 920.141 632.716 920.495 632.892C920.848 633.068 921.194 633.284 921.596 633.444L922.819 633.948L924.154 634.411C925.143 634.723 926.084 635.083 926.984 635.323C927.426 635.467 927.877 635.547 928.303 635.611C928.794 635.683 929.284 635.755 929.791 635.771C930.804 635.859 931.833 635.867 932.879 635.827C933.924 635.787 934.978 635.675 936.031 635.499C936.546 635.395 937.068 635.315 937.583 635.187C938.098 635.035 938.621 634.915 939.127 634.747C939.642 634.563 940.173 634.396 940.695 634.196C941.202 633.988 941.717 633.804 942.223 633.572C942.714 633.332 943.22 633.116 943.703 632.852C944.177 632.58 944.668 632.325 945.126 632.037C946.14 631.373 947.145 630.701 947.989 629.854C948.841 629.022 949.565 628.079 950.088 627.063C950.587 626.039 950.908 624.936 950.828 623.856C950.796 623.321 950.683 622.785 950.474 622.297C950.281 621.833 949.999 621.402 949.646 621.026C948.946 620.25 948.021 619.69 947.016 619.203C946.035 618.731 945.07 618.411 944.161 618.339C943.252 618.259 942.279 618.339 941.331 618.491L939.899 618.731L938.532 618.987C936.771 619.339 935.114 619.682 933.594 619.754C932.083 619.842 930.748 619.738 929.63 619.434C928.544 619.131 927.796 618.699 927.346 618.355C926.896 618.011 926.727 617.747 926.807 617.643L926.799 617.619Z" fill="#014E72"/>
<path d="M942.489 592.391C942.618 592.375 942.731 592.407 942.811 592.511C942.891 592.607 942.948 592.767 942.964 592.967C942.98 593.158 943.02 593.406 942.98 593.686C942.956 593.966 942.891 594.278 942.803 594.614L942.722 594.862C942.69 594.942 942.682 595.03 942.658 595.118C942.602 595.294 942.57 595.493 942.457 595.677C942.328 595.853 942.136 595.981 941.983 596.109C941.822 596.229 941.766 596.429 941.653 596.621C941.605 596.717 941.548 596.813 941.476 596.909L941.235 597.141C941.082 597.301 940.881 597.42 940.72 597.58C940.551 597.732 940.366 597.876 940.173 598.02C939.972 598.14 939.771 598.276 939.554 598.372C939.361 598.476 939.16 598.556 938.951 598.62C938.846 598.652 938.742 598.7 938.637 598.716C938.533 598.74 938.428 598.78 938.324 598.82C938.219 598.86 938.107 598.892 938.002 598.916C937.889 598.94 937.777 598.956 937.664 598.972C937.447 598.988 937.222 598.988 937.005 598.988C936.788 598.964 936.571 598.964 936.362 598.924L936.048 598.868C935.935 598.852 935.831 598.788 935.742 598.724C935.565 598.596 935.421 598.468 935.276 598.396C935.115 598.324 934.93 598.292 934.761 598.22C934.592 598.156 934.407 598.076 934.287 597.948C934.158 597.828 934.046 597.708 933.949 597.604C933.756 597.396 933.491 597.285 933.298 597.109C932.928 596.765 932.695 596.469 932.582 596.317C932.485 596.165 932.357 596.029 932.26 595.861C932.156 595.701 932.083 595.525 932.051 595.365C932.011 595.206 931.979 595.054 931.963 594.91V594.598C931.963 594.598 931.963 594.526 931.979 594.494C932.051 594.222 932.228 594.038 932.333 593.918C932.445 593.798 932.534 593.734 932.638 593.718C932.735 593.71 932.847 593.758 932.912 593.862C932.984 593.958 932.96 594.118 933.016 594.286L933.04 594.342L933.073 594.406L933.145 594.55L933.322 594.862C933.378 594.982 933.442 595.078 933.539 595.182C933.627 595.286 933.74 595.389 933.828 595.525C933.901 595.645 934.07 595.861 934.335 596.133C934.464 596.269 934.673 596.357 934.834 596.557L935.067 596.861C935.147 596.965 935.252 597.029 935.38 597.085C935.501 597.149 935.646 597.181 935.791 597.245C935.935 597.325 936.048 597.46 936.161 597.588C936.217 597.644 936.281 597.7 936.346 597.724L936.579 597.788C936.74 597.844 936.908 597.852 937.069 597.884C937.238 597.908 937.407 597.908 937.584 597.932L937.841 597.916C937.93 597.9 938.01 597.9 938.099 597.868C938.187 597.844 938.267 597.82 938.356 597.804C938.444 597.804 938.533 597.78 938.621 597.756C938.798 597.716 938.975 597.676 939.144 597.612C939.337 597.549 939.514 597.452 939.691 597.365C939.86 597.261 940.012 597.125 940.165 597.005C940.302 596.853 940.471 596.757 940.6 596.605L940.801 596.397C940.857 596.325 940.897 596.237 940.929 596.149C941.01 595.973 941.042 595.781 941.179 595.637C941.315 595.501 941.468 595.389 941.557 595.262C941.637 595.126 941.637 594.95 941.661 594.79C941.677 594.71 941.677 594.63 941.693 594.55L941.741 594.334L941.862 593.574C941.918 593.35 941.91 593.158 941.975 592.983C942.031 592.815 942.087 592.679 942.168 592.583C942.248 592.487 942.345 592.423 942.473 592.399L942.489 592.391Z" fill="#014E72"/>
<path d="M995.597 583.107C995.725 583.083 995.838 583.115 995.927 583.219C996.015 583.323 996.08 583.483 996.112 583.691C996.136 583.891 996.2 584.155 996.168 584.45C996.168 584.746 996.112 585.074 996.047 585.434L995.976 585.706C995.951 585.794 995.943 585.89 995.927 585.986C995.887 586.178 995.862 586.386 995.758 586.593C995.638 586.793 995.46 586.945 995.308 587.097C995.155 587.241 995.106 587.457 995.002 587.665C994.954 587.769 994.905 587.881 994.841 587.985L994.607 588.249C994.463 588.433 994.269 588.585 994.118 588.769C993.956 588.952 993.771 589.112 993.595 589.28C993.393 589.424 993.201 589.592 992.984 589.72C992.791 589.848 992.589 589.96 992.38 590.056C992.276 590.104 992.179 590.168 992.066 590.2C991.962 590.24 991.858 590.288 991.753 590.344C991.649 590.4 991.543 590.448 991.432 590.488C991.319 590.528 991.198 590.56 991.086 590.584C990.86 590.632 990.627 590.664 990.403 590.696C990.177 590.704 989.952 590.736 989.727 590.728H989.397C989.276 590.712 989.164 590.672 989.059 590.624C988.849 590.52 988.681 590.416 988.513 590.368C988.336 590.32 988.134 590.32 987.941 590.272C987.756 590.232 987.556 590.184 987.403 590.072L986.984 589.776C986.743 589.6 986.454 589.52 986.221 589.368C985.778 589.072 985.481 588.808 985.336 588.673C985.207 588.529 985.055 588.409 984.926 588.265C984.789 588.121 984.677 587.953 984.613 587.793C984.539 587.633 984.475 587.489 984.435 587.337L984.387 587.121L984.371 587.017C984.371 587.017 984.371 586.945 984.371 586.905C984.387 586.618 984.524 586.386 984.596 586.242C984.685 586.09 984.756 586.01 984.853 585.978C984.949 585.946 985.07 585.978 985.151 586.074C985.247 586.162 985.255 586.338 985.344 586.498L985.385 586.554L985.432 586.61L985.536 586.746L985.786 587.041C985.866 587.153 985.963 587.249 986.076 587.337C986.188 587.433 986.325 587.521 986.446 587.649C986.55 587.761 986.767 587.961 987.097 588.201C987.258 588.321 987.499 588.385 987.709 588.569L988.022 588.848C988.126 588.944 988.255 588.984 988.4 589.024C988.545 589.072 988.706 589.08 988.858 589.128C989.027 589.184 989.172 589.312 989.317 589.416C989.389 589.472 989.461 589.512 989.542 589.52L989.807 589.552C989.984 589.584 990.169 589.568 990.346 589.576C990.531 589.576 990.716 589.552 990.901 589.544L991.173 589.496C991.262 589.464 991.358 589.448 991.439 589.408C991.528 589.368 991.617 589.336 991.713 589.304C991.809 589.288 991.898 589.248 991.987 589.216C992.172 589.152 992.348 589.088 992.525 588.992C992.718 588.904 992.895 588.776 993.08 588.665C993.248 588.529 993.401 588.377 993.546 588.225C993.675 588.057 993.844 587.929 993.965 587.753L994.158 587.513C994.205 587.433 994.246 587.337 994.278 587.241C994.35 587.049 994.375 586.841 994.503 586.673C994.632 586.514 994.785 586.378 994.866 586.234C994.938 586.082 994.93 585.89 994.945 585.722C994.954 585.634 994.945 585.546 994.962 585.466L995.002 585.234L995.083 584.411C995.123 584.163 995.098 583.955 995.155 583.771C995.203 583.587 995.251 583.443 995.324 583.331C995.396 583.219 995.485 583.147 995.621 583.123L995.597 583.107Z" fill="#014E72"/>
<path d="M892.897 610.295C893.026 610.335 893.042 610.647 892.945 611.214C892.841 611.774 892.591 612.566 892.197 613.501C891.82 614.421 891.273 615.572 890.485 616.788C889.696 618.003 888.715 619.323 887.461 620.61C887.147 620.93 886.826 621.25 886.48 621.554C886.158 621.857 885.804 622.161 885.443 622.481C884.703 623.105 883.898 623.729 882.942 624.296C881.969 624.864 880.963 625.232 879.998 625.592C879.057 625.936 878.068 626.343 876.975 626.687C876.428 626.855 875.865 627.015 875.27 627.127C874.699 627.231 874.12 627.319 873.525 627.383C872.359 627.511 871.16 627.527 869.962 627.495C868.764 627.455 867.582 627.359 866.448 627.511C866.15 627.551 865.933 627.607 865.668 627.703C865.419 627.807 865.161 627.927 864.912 628.079C864.413 628.366 863.931 628.702 863.457 629.062C862.604 629.718 861.8 630.445 861.028 631.205L860.457 631.781C860.208 632.021 859.894 632.229 859.564 632.325C858.921 632.516 858.294 632.445 857.715 632.325C857.128 632.197 856.581 631.997 856.058 631.765C855.527 631.533 855.021 631.237 854.554 630.941C853.589 630.382 852.729 629.662 851.925 628.918C851.153 628.135 850.437 627.295 849.89 626.367C849.593 625.92 849.376 625.432 849.134 624.96C848.917 624.432 848.708 623.88 848.596 623.361C848.33 622.321 848.266 621.37 848.153 620.538C848.097 620.082 848.073 619.626 848.025 619.171C848.009 618.707 847.992 618.243 847.984 617.779C847.992 616.86 848.081 615.892 848.25 615.021C848.411 614.149 848.636 613.365 848.829 612.646C849.247 611.254 849.689 609.919 850.268 608.719C851.474 606.425 852.858 605.057 853.541 604.393L854.611 603.498C854.981 603.218 855.367 602.954 855.753 602.69C856.541 602.195 857.409 601.755 858.157 601.491C858.905 601.155 859.661 600.995 860.336 600.787L861.333 600.587L861.832 600.491C862.001 600.459 862.162 600.435 862.323 600.435C862.95 600.395 863.473 600.387 863.915 600.395C864.357 600.419 864.719 600.467 865.017 600.499C865.604 600.571 865.941 600.635 865.949 600.739C865.958 600.835 865.62 600.979 864.976 601.083C864.333 601.179 863.408 601.307 862.395 601.491C862.274 601.515 862.146 601.555 862.017 601.587L861.615 601.707L860.69 601.979C860.071 602.227 859.379 602.418 858.696 602.762C857.972 603.066 857.353 603.426 856.653 603.858L855.616 604.617L854.546 605.521C853.935 606.105 852.713 607.288 851.611 609.311C851.105 610.303 850.63 611.558 850.172 613.062L849.85 614.173L849.585 615.3C849.432 616.052 849.343 616.796 849.319 617.635C849.287 618.467 849.343 619.355 849.416 620.29C849.544 621.282 849.593 622.257 849.818 623.121C849.898 623.569 850.051 623.968 850.196 624.36C850.373 624.8 850.606 625.224 850.831 625.648C851.33 626.487 851.909 627.295 852.616 628.015C853.316 628.734 854.104 629.406 854.973 629.966C855.399 630.246 855.833 630.525 856.291 630.749C856.75 630.973 857.224 631.173 857.707 631.309C858.189 631.437 858.704 631.525 859.13 631.453C859.347 631.429 859.516 631.341 859.669 631.237L859.781 631.149L859.926 631.005L860.224 630.709C861.028 629.942 861.864 629.206 862.757 628.526C863.248 628.151 863.762 627.791 864.301 627.471C864.848 627.159 865.427 626.855 866.118 626.743C867.381 626.543 868.611 626.647 869.785 626.687C870.951 626.719 872.109 626.711 873.243 626.591C873.806 626.535 874.369 626.447 874.916 626.351C875.431 626.247 875.953 626.111 876.468 625.944C877.505 625.616 878.519 625.192 879.596 624.768C880.633 624.36 881.582 623.976 882.37 623.505C883.151 623.033 883.923 622.449 884.622 621.825C884.976 621.514 885.33 621.194 885.676 620.866C886.013 620.554 886.327 620.242 886.633 619.922C887.831 618.675 888.772 617.396 889.544 616.228C890.316 615.061 890.871 613.989 891.337 613.053C891.787 612.158 892.125 611.478 892.374 610.974C892.608 610.503 892.793 610.263 892.921 610.303L892.897 610.295Z" fill="#014E72"/>
<path d="M880.745 553.233C880.649 553.321 880.528 553.361 880.416 553.353C880.295 553.345 880.182 553.281 880.062 553.185C879.925 553.113 879.748 553.025 879.571 552.905C879.37 552.817 879.161 552.681 878.888 552.601L878.686 552.529C878.622 552.505 878.55 552.497 878.477 552.489C878.325 552.481 878.164 552.473 878.003 552.425C877.834 552.377 877.681 552.241 877.521 552.161C877.36 552.098 877.183 552.13 876.998 552.161C876.909 552.178 876.813 552.202 876.716 552.21H876.435C876.242 552.21 876.049 552.21 875.856 552.241C875.663 552.281 875.478 552.337 875.285 552.385L874.722 552.561L874.231 552.769L874.006 552.897C873.934 552.937 873.862 552.985 873.805 553.049L873.628 553.225C873.564 553.281 873.5 553.329 873.451 553.385C873.339 553.497 873.226 553.593 873.162 553.713C873.081 553.809 873.009 553.953 872.937 554.089C872.896 554.153 872.872 554.225 872.84 554.297C872.808 554.368 872.744 554.432 872.695 554.488C872.583 554.6 872.446 554.696 872.422 554.824C872.39 554.952 872.382 555.096 872.39 555.24C872.39 555.376 872.382 555.52 872.342 555.64C872.293 555.768 872.261 555.88 872.237 555.992C872.197 556.208 872.285 556.416 872.342 556.599C872.406 556.967 872.502 557.215 872.551 557.343C872.575 557.471 872.655 557.583 872.712 557.695C872.768 557.807 872.816 557.935 872.84 558.047L872.921 558.367C872.929 558.423 872.937 558.471 872.953 558.519L872.969 558.599C872.969 558.599 872.969 558.655 872.969 558.679C872.945 558.91 872.889 559.126 872.856 559.278C872.816 559.438 872.776 559.542 872.695 559.614C872.623 559.678 872.502 559.694 872.39 559.622C872.269 559.558 872.181 559.398 872.076 559.23L872.028 559.174L871.972 559.118C871.923 559.078 871.883 559.03 871.843 558.974C871.763 558.87 871.666 558.758 871.594 558.623C871.521 558.487 871.441 558.359 871.353 558.215C871.264 558.071 871.152 557.911 871.111 557.711C871.063 557.543 870.958 557.207 870.91 556.727C870.878 556.495 870.79 556.216 870.862 555.888C870.894 555.728 870.95 555.576 871.015 555.424C871.071 555.272 871.095 555.128 871.119 554.952C871.135 554.784 871.159 554.592 871.232 554.409C871.288 554.209 871.481 554.065 871.618 553.929C871.69 553.865 871.755 553.801 871.803 553.729C871.851 553.649 871.891 553.561 871.948 553.481C872.06 553.321 872.157 553.153 872.317 553.001C872.462 552.833 872.623 552.697 872.792 552.569C872.872 552.505 872.953 552.441 873.041 552.393L873.291 552.21C873.371 552.146 873.468 552.09 873.564 552.05L873.853 551.93C874.047 551.858 874.248 551.81 874.441 551.746C874.658 551.69 874.875 551.642 875.092 551.594L875.735 551.442C875.944 551.394 876.161 551.386 876.379 551.37H876.692C876.789 551.354 876.893 551.322 876.99 551.29C877.191 551.242 877.416 551.178 877.633 551.226C877.842 551.29 878.027 551.41 878.196 551.442C878.365 551.474 878.558 551.466 878.743 551.466C878.839 551.466 878.936 551.466 879.024 551.49L879.282 551.562C879.619 551.642 879.909 551.794 880.158 551.93C880.391 552.098 880.592 552.241 880.729 552.417C880.842 552.601 880.898 552.769 880.914 552.897C880.922 553.025 880.89 553.129 880.785 553.217L880.745 553.233Z" fill="#014E72"/>
</g>
</g>
<path d="M966.687 462.874C975.672 466.408 975.362 476.441 963.846 475.453C953.261 474.233 942.569 474.233 931.983 475.453C920.327 477.28 908.478 477.49 896.766 476.077C889.314 475.146 881.789 474.972 874.301 475.557C863.2 476.285 863.975 466.356 872.238 463.965C877.286 462.664 881.967 460.209 885.922 456.792C893.978 449.982 898.419 448.318 907.61 450.554C909.817 451.157 912.139 451.187 914.361 450.642C916.584 450.096 918.63 448.993 920.312 447.435C929.04 440.001 940.71 439.274 950.833 451.074C954.791 456.551 960.326 460.67 966.687 462.874Z" fill="#8ABEF5" fill-opacity="0.25"/>
<path d="M825.561 507.547L828.939 500.663C829.037 500.464 829.189 500.296 829.376 500.179C829.563 500.062 829.779 500 829.999 500C830.219 500 830.435 500.062 830.622 500.179C830.809 500.296 830.96 500.464 831.059 500.663L834.437 507.547L841.988 508.658C842.206 508.688 842.411 508.78 842.58 508.923C842.748 509.066 842.874 509.254 842.942 509.465C843.01 509.677 843.018 509.904 842.965 510.12C842.912 510.336 842.8 510.532 842.642 510.687L837.179 516.042L838.469 523.608C838.634 524.579 837.619 525.318 836.752 524.86L829.999 521.287L823.244 524.86C822.378 525.32 821.364 524.579 821.529 523.607L822.819 516.041L817.355 510.685C817.198 510.531 817.087 510.334 817.034 510.119C816.982 509.903 816.99 509.677 817.058 509.466C817.126 509.255 817.251 509.067 817.42 508.925C817.588 508.782 817.792 508.69 818.009 508.659L825.561 507.547Z" fill="#8ABEF5" fill-opacity="0.25"/>
<path d="M1012.85 512.306C1018.19 514.389 1018.01 520.304 1011.16 519.722C1004.87 519.002 998.516 519.002 992.223 519.722C985.294 520.799 978.25 520.922 971.289 520.089C966.859 519.541 962.385 519.438 957.935 519.783C951.336 520.212 951.796 514.359 956.708 512.949C959.709 512.182 962.492 510.735 964.843 508.72C969.631 504.706 972.271 503.725 977.735 505.043C979.047 505.398 980.427 505.416 981.748 505.095C983.069 504.773 984.285 504.123 985.286 503.204C990.473 498.822 997.411 498.393 1003.43 505.349C1005.78 508.578 1009.07 511.007 1012.85 512.306Z" fill="#8ABEF5" fill-opacity="0.25"/>
</g>
<path opacity="0.25" d="M682.412 94.8434L679.814 89.6114C679.738 89.4599 679.622 89.3326 679.478 89.2436C679.334 89.1546 679.168 89.1074 678.999 89.1074C678.83 89.1074 678.664 89.1546 678.52 89.2436C678.376 89.3326 678.259 89.4599 678.184 89.6114L675.586 94.8434L669.778 95.6874C669.61 95.7106 669.453 95.7805 669.323 95.889C669.193 95.9975 669.097 96.1403 669.044 96.3011C668.992 96.4619 668.986 96.6342 669.026 96.7983C669.067 96.9625 669.153 97.1118 669.275 97.2294L673.477 101.299L672.485 107.049C672.358 107.787 673.138 108.349 673.805 108.001L678.999 105.285L684.194 108.001C684.86 108.35 685.64 107.787 685.513 107.048L684.521 101.298L688.723 97.2284C688.844 97.1107 688.929 96.9615 688.97 96.7977C689.01 96.6338 689.004 96.4619 688.952 96.3015C688.899 96.1411 688.803 95.9986 688.673 95.8902C688.544 95.7818 688.387 95.7119 688.22 95.6884L682.412 94.8434Z" fill="#8ABEF5"/>
<path opacity="0.25" d="M600.122 77.8623L596.224 69.8766C596.111 69.6455 595.936 69.4511 595.72 69.3152C595.504 69.1794 595.255 69.1074 595.001 69.1074C594.747 69.1074 594.499 69.1794 594.283 69.3152C594.067 69.4511 593.892 69.6455 593.779 69.8766L589.881 77.8623L581.167 79.1505C580.916 79.186 580.68 79.2926 580.485 79.4582C580.29 79.6239 580.145 79.8418 580.067 80.0872C579.988 80.3327 579.979 80.5956 580.04 80.8462C580.101 81.0967 580.23 81.3247 580.413 81.5041L586.717 87.7162L585.229 96.4925C585.038 97.619 586.208 98.4767 587.209 97.9456L595.001 93.8001L602.795 97.9456C603.794 98.4783 604.965 97.619 604.774 96.491L603.286 87.7147L609.59 81.5026C609.772 81.323 609.9 81.0953 609.961 80.8452C610.021 80.5951 610.012 80.3327 609.933 80.0879C609.855 79.843 609.71 79.6255 609.516 79.4601C609.322 79.2947 609.086 79.1879 608.835 79.152L600.122 77.8623Z" fill="#8ABEF5"/>
<defs>
<clipPath id="clip0_63_224">
<rect width="214" height="265" fill="white" transform="translate(803 388.107)"/>
</clipPath>
</defs>
</svg>
