<svg width="1000" height="683" viewBox="0 0 1000 683" fill="none" xmlns="http://www.w3.org/2000/svg">
<path d="M128.157 108.226C26.9788 97.9991 11.2286 101.863 -10 108.226V143C-10 143 935.58 637 1004 618C1072.42 599 1063 515.5 1033.03 360C1003.05 204.5 1040.1 80.8706 1010 47.7847C939.673 -73.0791 803.571 82.5393 612.321 15.6566C421.071 -51.2261 229.335 118.454 128.157 108.226Z" fill="#ECF3FF"/>
<rect width="1018" height="449" transform="matrix(-1 0 0 1 1016 143.107)" fill="#ECF3FF"/>
<path d="M866.656 618.256C967.239 625.978 982.896 623.061 1004 618.256L1004 592C1004 592 9.00001 102.5 -7.49999 107.5C-24 112.5 -64 155.5 -28.5 277C6.99998 398.5 -59.5 428.5 -55.5 511C-51.5 593.5 -7.5 635.5 -7.5 635.5C61.4275 719.416 202.399 623.919 514.87 671.025C827.341 718.131 766.073 610.534 866.656 618.256Z" fill="#ECF3FF"/>
<path opacity="0.25" d="M844.412 59.7359L841.814 54.5039C841.738 54.3525 841.622 54.2252 841.478 54.1362C841.334 54.0471 841.168 54 840.999 54C840.83 54 840.664 54.0471 840.52 54.1362C840.376 54.2252 840.259 54.3525 840.184 54.5039L837.586 59.7359L831.778 60.5799C831.61 60.6032 831.453 60.673 831.323 60.7816C831.193 60.8901 831.097 61.0329 831.044 61.1937C830.992 61.3545 830.986 61.5268 831.026 61.6909C831.067 61.855 831.153 62.0044 831.275 62.1219L835.477 66.1919L834.485 71.9419C834.358 72.6799 835.138 73.2419 835.805 72.8939L840.999 70.1779L846.194 72.8939C846.86 73.2429 847.64 72.6799 847.513 71.9409L846.521 66.1909L850.723 62.1209C850.844 62.0033 850.929 61.8541 850.97 61.6903C851.01 61.5264 851.004 61.3545 850.952 61.1941C850.899 61.0337 850.803 60.8912 850.673 60.7828C850.544 60.6744 850.387 60.6045 850.22 60.5809L844.412 59.7359Z" fill="#8ABEF5"/>
<path opacity="0.25" d="M848.256 96.7388C837.913 100.922 838.287 112.341 851.579 111.211C863.74 109.832 876.016 109.832 888.176 111.211C901.565 113.328 915.181 113.567 928.636 111.922C937.208 110.858 945.865 110.676 954.473 111.378C967.226 112.173 966.312 100.754 956.841 97.9518C951.071 96.5406 945.708 93.7904 941.181 89.9211C931.959 82.0993 926.808 80.1752 916.257 82.7267C913.727 83.4336 911.06 83.4782 908.508 82.8558C905.956 82.2337 903.605 80.9655 901.676 79.1713C891.624 70.8058 878.248 69.802 866.617 83.354C862.002 89.6038 855.593 94.276 848.256 96.7388Z" fill="#8ABEF5"/>
<g clip-path="url(#clip0_63_224)">
<mask id="mask0_63_224" style="mask-type:luminance" maskUnits="userSpaceOnUse" x="747" y="388" width="215" height="274">
<path d="M962 388H747V662H962V388Z" fill="white"/>
</mask>
<g mask="url(#mask0_63_224)">
<mask id="mask1_63_224" style="mask-type:luminance" maskUnits="userSpaceOnUse" x="786" y="538" width="176" height="104">
<path d="M962 538H786V642H962V538Z" fill="white"/>
</mask>
<g mask="url(#mask1_63_224)">
<path d="M881.536 552.353C874.138 545.205 864.158 540.743 853.873 539.999C843.579 539.255 833.061 542.222 824.697 548.227C821.754 546.284 817.572 546.42 814.758 548.547C811.943 550.674 810.697 554.64 811.799 557.983C801.755 567.93 798.425 583.995 803.701 597.085C793.825 599.827 786.298 609.407 786.009 619.602C785.88 624.112 787.135 628.782 790.15 632.148C793.166 635.515 798.088 637.33 802.422 636.019C805.896 634.963 808.638 632.14 812.152 631.245C815.224 630.469 818.457 631.269 821.625 631.205C827.456 631.077 833.109 627.751 836.028 622.737L849.337 624.776C853.487 634.092 862.903 640.864 873.092 641.872C883.289 642.879 893.856 638.082 899.774 629.766C908.878 630.573 918.15 629.51 926.835 626.671C928.78 626.031 930.775 625.304 932.809 625.503C934.844 625.703 936.935 627.183 937.691 629.494C938.31 631.133 938.929 632.78 939.484 634.787C940.296 637.634 942.693 639.977 945.563 640.737C948.434 641.496 951.683 640.657 954.257 638.569C955.648 636.77 957.047 634.979 958.608 632.724C960.738 629.022 961.663 624.648 961.229 619.938C960.868 617.987 960.505 616.036 960.047 613.437C958.897 611.446 957.739 609.455 956.741 607.008C957.827 605.113 958.912 603.21 960.304 600.699C960.819 598.852 961.334 597.005 962.008 594.39C961.961 592.439 961.904 590.488 961.751 587.761C961.293 585.858 960.835 583.963 960.151 581.308C959.018 579.413 957.883 577.51 956.588 574.839L952.102 569.121C952.351 569.058 952.608 569.002 952.873 568.194C958.359 565.891 961.245 559.278 960.167 553.457C959.09 547.635 954.651 542.798 949.32 540.159C945.346 538.184 940.651 537.304 936.42 538.624C932.182 539.943 928.62 543.789 928.484 548.203L919.766 547.739C920.698 545.676 918.125 543.086 916.043 543.989C917.232 542.774 917.273 540.623 916.131 539.359C914.982 538.096 912.826 537.928 911.491 538.983C909.167 537.008 904.937 538.312 904.149 541.246C900.595 540.263 896.509 543.173 896.308 546.836C890.848 545.644 884.769 547.995 881.552 552.337L881.536 552.353Z" fill="white"/>
<path d="M914.556 550.57C914.556 550.45 915.119 550.234 916.236 550.099C917.354 549.955 919.019 549.915 921.022 550.17C922.983 550.402 925.46 550.93 928.146 551.914C928.942 552.202 929.73 552.521 930.51 552.849L931.314 553.209L931.548 553.321L931.668 553.377C931.668 553.377 931.765 553.433 931.724 553.369C931.668 553.225 931.612 553.081 931.58 552.929C931.571 552.889 931.556 552.857 931.556 552.817L931.531 552.657C931.499 552.457 931.467 552.266 931.467 552.066C931.403 551.274 931.467 550.474 931.652 549.715C931.853 548.827 932.2 547.955 932.666 547.132C933.115 546.34 933.678 545.581 934.371 544.885C935.777 543.518 937.684 542.446 939.968 542.174C942.26 541.91 944.422 542.478 946.289 543.31C948.114 544.133 949.94 545.293 951.571 546.876L952.175 547.484C952.375 547.692 952.553 547.924 952.738 548.147C953.132 548.587 953.453 549.083 953.783 549.587C954.104 550.075 954.346 550.61 954.62 551.13C954.812 551.69 955.086 552.225 955.198 552.809L955.415 553.665L955.536 554.544C955.641 555.128 955.6 555.728 955.632 556.32C955.56 557.503 955.439 558.702 955.062 559.846C954.925 560.438 954.643 560.982 954.426 561.541C954.289 561.813 954.137 562.077 953.991 562.341L953.767 562.741L953.502 563.116C952.834 564.148 951.894 565.004 950.863 565.699C949.81 566.395 948.58 566.763 947.333 566.971C947.133 566.995 947.02 566.987 946.867 566.995H946.65C946.65 566.995 946.61 567.003 946.594 567.011L946.626 567.059L946.691 567.163L947.342 568.17C948.524 569.993 949.706 571.824 950.831 573.696C951.395 574.631 951.941 575.575 952.464 576.526C952.97 577.454 953.47 578.397 953.952 579.357C954.435 580.341 954.877 581.34 955.286 582.348C955.479 582.867 955.681 583.387 955.866 583.915L956.356 585.474C956.935 587.553 957.37 589.672 957.402 591.815L957.474 593.414L957.353 594.998C957.289 595.518 957.314 596.053 957.176 596.565L956.855 598.1L956.694 598.868L956.445 599.604L955.947 601.067C955.794 601.603 955.488 602.083 955.254 602.578C954.997 603.066 954.772 603.562 954.507 604.002C953.919 604.857 953.421 605.705 952.834 606.432C952.239 607.144 951.724 607.856 951.169 608.472C950.559 609.119 949.987 609.823 949.343 610.455C948.684 611.07 948.058 611.734 947.365 612.326C946.674 612.894 945.975 613.509 945.235 614.053C944.486 614.581 943.755 615.125 943.007 615.588L940.86 616.876L938.834 617.955C936.3 619.243 933.84 620.434 931.435 621.346C926.779 623.081 923.249 623.992 921.479 624.424C919.759 624.84 918.022 625.208 916.261 625.52C914.507 625.832 912.666 626.039 911.146 626.159C909.578 626.279 908.098 626.335 906.723 626.351L904.745 626.335L903.764 626.295L902.815 626.239C900.394 626.023 898.778 625.696 897.636 625.456C896.51 625.2 895.875 625.032 895.883 624.928C895.883 624.824 896.599 624.808 897.893 624.904C899.188 624.976 901.062 625.16 903.128 625.192H904.753L906.691 625.12C908.034 625.056 909.481 624.952 911.025 624.792C912.61 624.624 914.065 624.432 915.73 624.136C917.378 623.817 919.196 623.449 921.142 622.969C922.855 622.561 926.225 621.697 930.703 620.074C932.851 619.259 935.375 618.139 938.239 616.684L940.314 615.588L942.324 614.405C943.618 613.565 944.865 612.71 946.159 611.598C947.454 610.519 948.741 609.263 950.012 607.832C950.374 607.464 950.687 607.072 950.993 606.68L951.926 605.537C952.504 604.761 953.011 603.97 953.525 603.234C953.944 602.434 954.361 601.667 954.724 600.907L955.198 599.54C955.343 599.076 955.56 598.636 955.632 598.148L955.947 596.701L956.098 595.973L956.164 595.23C956.243 594.238 956.381 593.239 956.283 592.223C956.292 590.2 955.93 588.145 955.415 586.13C955.158 585.138 954.852 584.155 954.491 583.179C954.129 582.204 953.727 581.236 953.276 580.285C952.834 579.317 952.335 578.341 951.813 577.366C951.314 576.406 950.784 575.463 950.236 574.527C949.151 572.664 947.993 570.825 946.835 568.986L945.66 567.147L945.315 566.603L945.137 566.331L945.05 566.195C945.05 566.195 945.154 566.195 945.203 566.179L946.545 566.131C946.763 566.123 947.012 566.123 947.189 566.099L947.607 566.019C947.888 565.963 948.169 565.923 948.443 565.851C948.966 565.635 949.528 565.499 950.012 565.188C952.03 564.108 953.389 562.085 954.137 559.974C954.805 557.823 955.013 555.496 954.467 553.353L954.265 552.553L953.968 551.786C953.799 551.266 953.485 550.802 953.253 550.314C952.979 549.875 952.681 549.443 952.375 549.027C952.03 548.635 951.716 548.203 951.33 547.844C949.834 546.324 948.016 545.085 945.975 544.149C943.98 543.278 941.977 542.894 940.217 543.094C938.456 543.27 936.719 544.125 935.375 545.309C934.716 545.924 934.145 546.644 933.687 547.42C933.244 548.171 932.915 548.963 932.73 549.771C932.545 550.538 932.489 551.306 932.553 552.018C932.553 552.202 932.593 552.353 932.625 552.545C932.657 552.873 932.787 553.209 932.915 553.569C933.164 554.281 933.414 554.912 933.638 555.504C933.518 555.472 933.293 555.352 933.108 555.272L932.545 555L931.451 554.48L930.478 554.033L929.915 553.785C929.175 553.465 928.475 553.193 927.792 552.937C925.154 551.954 922.791 551.402 920.724 551.09C918.705 550.77 917.177 550.722 916.14 550.706C915.102 550.69 914.539 550.682 914.531 550.538L914.556 550.57Z" fill="#014E72"/>
<path d="M868.814 616.812C868.733 616.915 868.556 616.923 868.283 616.819C868.018 616.715 867.672 616.5 867.262 616.212C866.868 615.924 866.361 615.556 865.838 615.076C865.308 614.596 864.737 614.029 864.15 613.373L863.715 612.861L863.273 612.342C862.967 611.982 862.638 611.598 862.356 611.126C862.107 610.63 861.946 610.119 861.745 609.663C861.649 609.431 861.52 609.215 861.391 608.991L861.029 608.263C860.901 608.016 860.772 607.76 860.651 607.488C860.547 607.224 860.426 606.96 860.362 606.68C860.201 606.128 860.064 605.561 859.88 605.001C859.727 604.433 859.622 603.849 859.493 603.258C859.349 602.674 859.325 602.066 859.26 601.467C859.204 600.923 859.14 600.379 859.156 599.827V599.012L859.107 598.212V597.396L859.156 596.581C859.172 596.045 859.252 595.517 859.308 594.998C859.381 594.478 859.413 593.958 859.51 593.462L859.646 592.719C859.695 592.455 859.775 592.183 859.855 591.943C860.008 591.455 860.225 591.039 860.314 590.648C860.418 590.224 860.491 589.784 860.571 589.336C860.668 588.904 860.788 588.457 860.941 588.049C861.094 587.649 861.238 587.281 861.367 586.945C861.624 586.298 861.761 585.634 861.946 585.026L862.807 582.603C862.975 582.203 863.112 581.788 863.265 581.372C863.41 580.956 863.603 580.548 863.772 580.22C863.949 579.877 864.117 579.557 864.278 579.261L864.511 578.837L864.632 578.629L864.769 578.437C865.139 577.949 865.476 577.662 865.702 577.454C865.935 577.246 866.088 577.142 866.184 577.182C866.281 577.222 866.297 577.422 866.208 577.733C866.128 578.045 865.903 578.461 865.702 578.933L865.629 579.109L865.565 579.309L865.412 579.765L865.042 580.772C864.897 581.14 864.769 581.476 864.648 581.876C864.519 582.275 864.391 582.715 864.198 583.171C864.045 583.579 863.748 584.378 863.329 585.474C863.152 586.01 863 586.681 862.686 587.409C862.541 587.761 862.388 588.129 862.236 588.481C862.091 588.832 861.978 589.192 861.866 589.6C861.761 590.008 861.689 590.448 861.56 590.903C861.432 591.391 861.19 591.839 861.038 592.263C860.957 592.479 860.885 592.687 860.836 592.887L860.684 593.598C860.563 594.078 860.515 594.574 860.426 595.07C860.354 595.565 860.241 596.069 860.209 596.581L860.145 597.34L860.105 598.116C860.081 598.38 860.105 598.644 860.105 598.916L860.081 599.707C860.081 599.971 860.056 600.235 860.064 600.499L860.113 601.291C860.169 601.866 860.153 602.458 860.274 603.026C860.386 603.594 860.491 604.153 860.619 604.713C860.804 605.249 860.941 605.793 861.11 606.328C861.182 606.6 861.279 606.856 861.391 607.104C861.496 607.336 861.624 607.568 861.753 607.8L862.549 609.223C862.791 609.711 862.951 610.191 863.169 610.582C863.402 610.958 863.715 611.31 864.029 611.654L864.495 612.166L864.93 612.653C865.509 613.269 866.071 613.805 866.562 614.277C867.069 614.74 867.487 615.132 867.881 615.492C868.243 615.844 868.5 616.132 868.661 616.348C868.822 616.564 868.878 616.723 868.798 616.835L868.814 616.812Z" fill="#014E72"/>
<path d="M914.169 550.578C914.089 550.466 914.169 550.282 914.378 550.018C914.587 549.754 914.933 549.427 915.278 548.995C915.601 548.571 915.962 547.971 915.89 547.316C915.866 546.66 915.246 546.02 914.354 545.812C914.137 545.764 913.904 545.732 913.678 545.74C913.453 545.74 913.236 545.796 912.995 545.868C912.52 546.02 912.054 546.3 911.539 546.628C911.025 546.948 910.494 547.244 910.012 547.587L909.642 546.996L909.682 546.98C910.197 546.82 910.671 546.404 911.089 545.924C911.298 545.676 911.499 545.42 911.708 545.149C911.909 544.893 912.102 544.621 912.271 544.341C912.609 543.781 912.923 543.157 912.995 542.542C913.027 542.398 913.003 542.222 913.003 542.134C912.987 542.038 912.955 541.958 912.898 541.878C912.81 541.846 912.738 541.822 912.617 541.806C912.464 541.806 912.319 541.758 912.167 541.79C911.564 541.822 910.96 542.126 910.43 542.542C909.947 542.926 909.521 543.389 909.143 543.893C908.95 544.141 908.773 544.405 908.604 544.669C908.443 544.925 908.299 545.205 908.17 545.484C908.057 545.724 907.953 545.972 907.856 546.22L906.859 545.724L906.924 545.596L907.35 544.733C907.615 544.165 907.848 543.589 908.049 543.014C908.146 542.726 908.242 542.438 908.323 542.15C908.363 541.998 908.403 541.862 908.427 541.758C908.435 541.694 908.427 541.694 908.427 541.662C908.419 541.614 908.371 541.582 908.323 541.59H908.258C908.258 541.59 908.073 541.654 907.985 541.694C907.792 541.774 907.559 541.958 907.342 542.11C907.133 542.27 906.94 542.43 906.779 542.606C906.425 542.982 906.119 543.397 905.83 543.829L904.993 545.133C904.72 545.548 904.487 545.94 904.302 546.316C904.029 546.876 903.868 547.451 903.739 548.003L902.541 547.515C902.581 547.396 902.621 547.26 902.653 547.116C902.782 546.524 902.742 545.924 902.653 545.508C902.565 545.085 902.412 544.829 902.348 544.781C902.316 544.733 902.316 544.757 902.283 544.765C902.139 544.797 901.97 544.845 901.833 544.941C901.552 545.101 901.27 545.412 901.045 545.724C900.82 546.052 900.635 546.412 900.466 546.756C900.386 546.932 900.305 547.1 900.233 547.268L900.12 547.523L900 547.779C899.67 548.419 899.38 548.851 899.179 549.171C898.978 549.483 898.842 549.65 898.737 549.634C898.641 549.618 898.584 549.387 898.624 548.987C898.665 548.587 898.825 548.027 899.003 547.412L899.067 547.18L899.131 546.924C899.179 546.732 899.244 546.54 899.3 546.332C899.437 545.924 899.606 545.476 899.863 545.021C900.144 544.557 900.466 544.117 901.021 543.733C901.302 543.557 901.64 543.389 902.01 543.325C902.098 543.301 902.227 543.285 902.372 543.301C902.509 543.301 902.645 543.301 902.774 543.357C903.031 543.429 903.297 543.621 903.458 543.813C903.755 544.149 903.972 544.645 904.085 545.245C904.197 545.844 904.238 546.548 904.053 547.404C904.004 547.635 903.932 547.891 903.779 548.211L902.332 547.619C902.468 547.068 902.669 546.412 903.007 545.74C903.24 545.284 903.514 544.853 903.795 544.445L904.664 543.173C904.977 542.726 905.331 542.254 905.766 541.806C905.999 541.566 906.256 541.358 906.513 541.166L906.907 540.903C907.052 540.807 907.213 540.719 907.366 540.647C907.535 540.567 907.663 540.519 907.872 540.455C908.09 540.399 908.299 540.367 908.5 540.375C908.966 540.383 909.392 540.703 909.529 541.15C909.601 541.374 909.601 541.622 909.569 541.862C909.529 542.102 909.481 542.238 909.433 542.398C909.336 542.702 909.231 543.006 909.119 543.309C908.894 543.909 908.628 544.509 908.339 545.101C908.194 545.388 908.041 545.676 907.881 545.964L907.736 546.244L906.915 545.836C907.012 545.628 907.092 545.412 907.205 545.213C907.35 544.901 907.519 544.597 907.712 544.301C907.897 544.013 908.106 543.733 908.315 543.461C908.741 542.926 909.223 542.414 909.786 541.982C910.398 541.502 911.121 541.086 911.974 541.014C912.183 540.99 912.392 540.982 912.609 541.014C912.802 541.014 913.067 541.126 913.317 541.206C913.373 541.23 913.453 541.238 913.493 541.286L913.59 541.454C913.671 541.566 913.711 541.686 913.735 541.814C913.775 541.942 913.815 542.07 913.807 542.19C913.807 542.294 913.823 542.414 913.807 542.51C913.727 543.333 913.389 544.013 913.043 544.653C912.858 544.973 912.665 545.276 912.448 545.564C912.247 545.836 912.046 546.124 911.821 546.396C911.371 546.94 910.848 547.499 910.068 547.827L909.987 547.859L909.392 546.9C909.923 546.492 910.462 546.172 910.928 545.852C911.411 545.524 911.941 545.165 912.561 544.925C912.866 544.805 913.204 544.717 913.558 544.693C913.896 544.669 914.225 544.693 914.547 544.757C915.174 544.885 915.754 545.165 916.211 545.596C916.662 546.028 916.951 546.628 916.992 547.196C917.047 547.763 916.904 548.283 916.702 548.691C916.501 549.099 916.243 549.411 915.994 549.666C915.488 550.154 915.054 550.394 914.748 550.538C914.434 550.674 914.241 550.69 914.161 550.586L914.169 550.578Z" fill="#014E72"/>
<path d="M866.578 576.07C866.61 576.198 866.361 576.358 865.846 576.534C865.331 576.67 864.535 576.798 863.562 576.71C862.621 576.638 861.415 576.406 860.161 575.838C858.914 575.271 857.595 574.391 856.445 573.144C856.164 572.832 855.882 572.504 855.633 572.144C855.384 571.808 855.143 571.44 854.909 571.049C854.435 570.273 854.033 569.385 853.783 568.37C853.542 567.338 853.542 566.323 853.582 565.371C853.623 564.443 853.663 563.444 853.816 562.404C853.896 561.885 854.009 561.349 854.161 560.813C854.322 560.301 854.507 559.79 854.708 559.278C855.118 558.27 855.617 557.295 856.188 556.335C856.751 555.376 857.434 554.456 858.247 553.64C859.067 552.833 860.024 552.137 861.069 551.61C862.026 551.138 863.007 550.81 864.021 550.538C864.527 550.41 865.05 550.298 865.581 550.242C866.095 550.17 866.626 550.154 867.165 550.186C867.712 550.218 868.259 550.33 868.789 550.49C869.312 550.682 869.835 550.93 870.277 551.226C871.178 551.817 871.934 552.561 872.553 553.401C873.172 554.24 873.638 555.168 873.968 556.111C874.137 556.583 874.258 557.063 874.362 557.543C874.475 558.063 874.523 558.598 874.539 559.086C874.547 559.582 874.539 560.046 874.515 560.477V560.637C874.499 560.701 874.499 560.741 874.491 560.749L874.475 560.853C874.475 560.925 874.459 560.997 874.459 561.061V561.325C874.579 561.221 874.724 561.045 874.804 560.949C874.756 560.957 875.198 560.581 875.504 560.317C875.834 560.046 876.147 559.766 876.477 559.526C877.129 559.046 877.732 558.606 878.295 558.222C879.372 557.455 880.393 556.679 881.391 556.023C883.361 554.776 884.881 553.984 885.645 553.608C886.392 553.241 887.148 552.897 887.912 552.545C888.676 552.209 889.497 551.913 890.18 551.705C890.88 551.466 891.555 551.306 892.174 551.13L893.075 550.922L893.525 550.826L893.968 550.746C895.102 550.594 895.882 550.594 896.445 550.602C896.999 550.61 897.313 550.634 897.337 550.738C897.361 550.834 897.064 551.01 896.485 551.186C895.906 551.362 895.053 551.545 894.121 551.793L893.775 551.897L893.405 552.025L892.552 552.313C891.965 552.529 891.322 552.737 890.655 553.001C889.963 553.257 889.328 553.513 888.62 553.84C887.912 554.168 887.14 554.544 886.312 554.952C885.58 555.304 884.141 556.023 882.275 557.183C881.375 557.751 880.337 558.502 879.115 559.358C878.504 559.758 877.908 560.182 877.321 560.597C877.024 560.805 876.75 561.029 876.469 561.261L876.043 561.621C875.898 561.749 875.794 561.829 875.464 562.125C874.692 562.82 873.88 563.556 872.979 564.372C873.019 563.916 873.059 563.38 873.1 562.836C873.14 562.357 873.18 561.877 873.22 561.397C873.244 561.053 873.26 560.717 873.285 560.381C873.317 559.934 873.333 559.502 873.333 559.094C873.333 558.678 873.301 558.278 873.236 557.895C873.156 557.463 873.051 557.031 872.923 556.607C872.657 555.752 872.279 554.928 871.757 554.168C871.242 553.417 870.591 552.729 869.851 552.177C869.473 551.921 869.087 551.681 868.669 551.513C868.25 551.338 867.8 551.234 867.35 551.178C866.891 551.114 866.409 551.13 865.918 551.154C865.444 551.186 864.961 551.266 864.479 551.37C863.53 551.578 862.557 551.889 861.672 552.281C860.691 552.721 859.791 553.337 859.003 554.064C858.223 554.8 857.571 555.664 857.016 556.567C856.477 557.479 855.979 558.422 855.593 559.398C855.4 559.886 855.223 560.365 855.07 560.861C854.934 561.325 854.829 561.805 854.756 562.292C854.604 563.276 854.572 564.276 854.547 565.315C854.523 566.323 854.564 567.242 854.765 568.05C854.95 568.849 855.335 569.649 855.77 570.369C855.979 570.737 856.236 571.08 856.477 571.424C856.727 571.752 856.976 572.064 857.25 572.344C858.311 573.479 859.525 574.263 860.643 574.807C861.777 575.334 862.838 575.59 863.763 575.726C864.672 575.878 865.364 575.862 865.838 575.886C866.312 575.886 866.594 575.926 866.618 576.054L866.578 576.07Z" fill="#014E72"/>
<path d="M871.531 566.499C871.62 566.603 871.604 566.763 871.499 566.955C871.395 567.155 871.202 567.402 870.96 567.706C870.735 568.01 870.454 568.402 870.132 568.85C869.81 569.306 869.473 569.825 869.127 570.425L868.861 570.881C868.781 571.033 868.701 571.193 868.62 571.361C868.467 571.696 868.323 572.056 868.122 572.432C868.017 572.616 867.888 572.792 867.776 572.96L867.591 573.216C867.535 573.296 867.446 573.456 867.382 573.568C867.317 573.688 867.253 573.808 867.189 573.927L867.149 574.023C867.149 574.023 867.084 574.023 867.052 574.023L866.835 573.991C866.57 573.967 866.192 573.912 865.999 573.888C865.765 573.847 865.524 573.8 865.291 573.712C865.066 573.624 864.841 573.528 864.623 573.424C864.181 573.216 863.771 572.944 863.361 572.664C862.951 572.384 862.565 572.056 862.211 571.688C861.865 571.313 861.552 570.905 861.294 570.457C861.053 570.057 860.86 569.625 860.707 569.178C860.627 568.954 860.571 568.73 860.514 568.506C860.474 568.282 860.41 568.066 860.37 567.834C860.321 567.602 860.297 567.37 860.273 567.139C860.265 566.899 860.257 566.659 860.273 566.427C860.297 565.963 860.37 565.499 860.49 565.06C860.603 564.612 860.764 564.18 860.965 563.772C861.061 563.564 861.174 563.372 861.294 563.18C861.423 562.973 861.6 562.789 861.769 562.637C862.114 562.325 862.468 562.125 862.742 561.901C863.047 561.661 863.353 561.413 863.691 561.205C864.02 560.989 864.414 560.829 864.792 560.734C865.17 560.646 865.524 560.614 865.846 560.59C866.473 560.542 867.084 560.486 867.663 560.566C868.797 560.766 869.529 561.237 869.867 561.469C870.188 561.717 870.518 561.957 870.8 562.253C871.097 562.533 871.322 562.9 871.483 563.204C871.652 563.524 871.773 563.836 871.861 564.132C871.901 564.284 871.933 564.428 871.958 564.564C871.974 564.636 871.982 564.708 871.99 564.78V564.996C871.974 565.555 871.797 565.915 871.676 566.155C871.539 566.387 871.435 566.507 871.33 566.499C871.234 566.491 871.129 566.347 871.097 566.115C871.041 565.883 871.057 565.539 870.952 565.172L870.912 565.036C870.896 564.988 870.88 564.94 870.856 564.892C870.808 564.788 870.759 564.676 870.703 564.572C870.591 564.356 870.462 564.124 870.301 563.9C870.14 563.668 869.979 563.452 869.746 563.252C869.529 563.044 869.248 562.869 868.974 562.653C868.725 562.477 868.21 562.141 867.414 561.973C867.02 561.901 866.545 561.933 865.991 561.949C865.717 561.957 865.436 561.965 865.162 562.021C864.889 562.069 864.623 562.165 864.358 562.317C864.085 562.461 863.835 562.669 863.554 562.861C863.265 563.084 862.935 563.252 862.661 563.46C862.525 563.564 862.404 563.676 862.308 563.804C862.211 563.956 862.098 564.1 862.018 564.268C861.833 564.588 861.688 564.94 861.568 565.307C861.447 565.675 861.367 566.059 861.318 566.451C861.294 566.643 861.286 566.843 861.278 567.035C861.278 567.235 861.294 567.435 861.326 567.626C861.351 567.826 861.391 568.026 861.423 568.234C861.463 568.434 861.495 568.634 861.552 568.826C861.648 569.218 861.801 569.601 861.986 569.961C862.195 570.361 862.444 570.745 862.742 571.081C863.047 571.417 863.385 571.713 863.747 571.968C864.117 572.224 864.487 572.464 864.881 572.648C865.074 572.744 865.275 572.824 865.476 572.904C865.669 572.968 865.87 573.008 866.079 573.032C866.176 573.048 866.296 573.056 866.377 573.064L866.489 573.048C866.489 573.048 866.554 573.048 866.578 573.032C866.586 573 866.602 572.968 866.626 572.944L866.658 572.904L866.674 572.888L866.714 572.824L866.891 572.552C867.004 572.376 867.116 572.208 867.197 572.04C867.366 571.705 867.494 571.329 867.639 570.961C867.712 570.777 867.792 570.593 867.88 570.417L868.146 569.921C868.492 569.282 868.837 568.714 869.191 568.242C869.545 567.77 869.875 567.37 870.212 567.067C870.542 566.779 870.832 566.595 871.049 566.507C871.266 566.419 871.419 566.419 871.507 566.515L871.531 566.499Z" fill="#014E72"/>
<path d="M935.23 556.503C935.1 556.487 935.004 556.367 934.964 556.151C934.915 555.928 934.948 555.616 935.036 555.24C935.109 554.872 935.253 554.4 935.495 553.904C935.736 553.409 936.074 552.873 936.533 552.353L936.903 551.977L937.288 551.61C937.57 551.362 937.868 551.09 938.27 550.914C938.672 550.73 939.114 550.698 939.508 550.658C939.893 550.618 940.288 550.53 940.73 550.474C940.947 550.458 941.181 550.434 941.406 550.474C941.63 550.498 941.847 550.546 942.074 550.602C942.508 550.714 942.933 550.882 943.352 551.074C943.769 551.266 944.18 551.498 944.55 551.793C944.911 552.089 945.266 552.425 945.547 552.817C945.812 553.161 946.029 553.545 946.199 553.944C946.287 554.144 946.359 554.352 946.416 554.56C946.48 554.76 946.528 554.968 946.592 555.168C946.633 555.384 946.689 555.592 946.713 555.808C946.745 556.023 946.745 556.255 946.745 556.463C946.745 556.895 946.689 557.319 946.592 557.735C946.512 558.15 946.367 558.55 946.206 558.934C946.118 559.126 946.029 559.31 945.925 559.494C945.812 559.686 945.668 559.87 945.515 560.014C945.209 560.309 944.904 560.525 944.59 560.757C944.277 560.981 943.963 561.173 943.641 561.341C943.327 561.501 942.982 561.637 942.652 561.701C942.491 561.733 942.331 561.765 942.178 561.789L941.51 561.901L941.309 561.933C941.164 561.789 941.028 561.645 940.883 561.509L940.779 561.413L940.714 561.357L940.585 561.253L940.071 560.853C939.395 560.27 938.889 559.87 938.631 559.67C938.39 559.462 938.132 559.294 937.875 559.11C937.618 558.934 937.369 558.718 937.167 558.55L936.58 558.046C936.492 557.967 936.403 557.887 936.323 557.823L936.195 557.711L936.074 557.591C935.784 557.263 935.616 556.967 935.463 556.783C935.326 556.583 935.238 556.447 935.278 556.351C935.31 556.255 935.47 556.215 935.729 556.271C935.986 556.319 936.307 556.519 936.652 556.719L936.79 556.791L936.943 556.863C937.054 556.911 937.16 556.975 937.271 557.031C937.505 557.151 937.739 557.295 937.988 557.455C938.245 557.615 938.47 557.783 938.751 557.951C939.017 558.126 939.331 558.31 939.612 558.558C939.869 558.766 940.377 559.19 941.036 559.79L941.534 560.214L941.783 560.437C941.783 560.437 941.783 560.461 941.783 560.469C941.783 560.469 941.847 560.469 941.88 560.469L942.291 560.421C942.563 560.381 942.812 560.301 943.078 560.182C943.335 560.062 943.601 559.91 943.826 559.766C944.011 559.646 944.324 559.47 944.558 559.27C944.687 559.174 944.783 559.062 944.872 558.95C944.968 558.814 945.032 558.662 945.121 558.518C945.266 558.214 945.402 557.895 945.491 557.559C945.595 557.223 945.644 556.871 945.684 556.519C945.684 556.343 945.708 556.167 945.691 555.992C945.684 555.816 945.659 555.64 945.627 555.464C945.604 555.288 945.547 555.112 945.506 554.928C945.459 554.752 945.427 554.576 945.353 554.408C945.242 554.064 945.072 553.737 944.879 553.433C944.654 553.097 944.381 552.793 944.083 552.521C943.769 552.257 943.416 552.049 943.061 551.873C942.693 551.714 942.331 551.561 941.953 551.466C941.759 551.426 941.574 551.378 941.381 551.362C941.204 551.338 941.019 551.362 940.835 551.378C940.465 551.434 940.111 551.537 939.741 551.602C939.38 551.649 939.025 551.69 938.744 551.825C938.462 551.961 938.213 552.185 937.996 552.417C937.883 552.529 937.779 552.657 937.666 552.769C937.554 552.873 937.465 553.001 937.36 553.105C936.982 553.553 936.718 554.024 936.492 554.44C936.275 554.864 936.114 555.24 935.969 555.576C935.816 555.895 935.687 556.143 935.583 556.311C935.47 556.479 935.359 556.567 935.221 556.551L935.23 556.503Z" fill="#014E72"/>
<path d="M908.106 586.617C906.417 586.801 906.192 587.145 905.468 587.697C904.744 588.249 904.358 589.136 904.406 590.048C904.455 590.959 905.235 591.839 906.135 591.783C906.98 591.727 907.599 590.975 908.057 590.256C908.516 590.735 909.095 591.127 909.746 591.231C910.397 591.335 911.129 591.095 911.499 590.543C911.925 589.92 911.813 589.048 911.451 588.384C910.816 587.217 909.448 586.481 908.106 586.625V586.617Z" fill="#014E72"/>
<path d="M908.105 586.625C908.089 586.498 908.153 586.386 908.29 586.298C908.434 586.218 908.651 586.194 908.917 586.21C909.174 586.226 909.512 586.266 909.866 586.41C910.22 586.546 910.598 586.753 910.959 587.057C911.048 587.137 911.136 587.209 911.225 587.297L911.482 587.553C911.667 587.729 911.852 587.937 911.973 588.217C912.093 588.505 912.069 588.817 912.069 589.088C912.069 589.352 912.125 589.624 912.117 589.944C912.117 590.104 912.093 590.272 912.021 590.432C911.949 590.584 911.86 590.736 911.747 590.864C911.522 591.127 911.225 591.311 910.919 591.447C910.614 591.591 910.276 591.655 909.93 591.655C909.584 591.655 909.255 591.559 908.941 591.439C908.804 591.383 908.668 591.311 908.539 591.239L908.298 591.087C908.249 591.055 908.209 591.024 908.169 590.992C908.153 590.975 908.137 590.968 908.121 590.96C908.105 590.968 908.097 591.024 908.081 591.048L908.024 591.215C908.008 591.263 908.008 591.263 907.896 591.407C907.711 591.631 907.493 591.847 907.236 592.031C906.979 592.215 906.657 592.367 906.303 592.431C906.135 592.463 905.941 592.471 905.765 592.455C905.572 592.439 905.378 592.359 905.234 592.271C904.936 592.079 904.759 591.847 904.574 591.679C904.381 591.495 904.18 591.303 904.028 591.079C903.867 590.856 903.754 590.568 903.738 590.288C903.722 590 903.762 589.8 903.794 589.584C903.851 589.192 903.867 588.8 903.987 588.441C904.253 587.761 904.655 587.353 904.848 587.169C905.065 586.993 905.145 586.897 905.33 586.729C905.491 586.569 905.74 586.426 905.957 586.338C906.183 586.242 906.4 586.186 906.593 586.162C906.689 586.146 906.778 586.146 906.866 586.138H907.003C907.051 586.138 907.091 586.138 907.132 586.154C907.469 586.234 907.687 586.386 907.839 586.498C907.992 586.61 908.081 586.697 908.089 586.801C908.097 586.897 908.032 587.009 907.888 587.073C907.751 587.145 907.534 587.145 907.309 587.193L907.228 587.217L907.148 587.257C907.091 587.289 907.027 587.313 906.963 587.345C906.834 587.409 906.721 587.481 906.601 587.553C906.48 587.633 906.376 587.721 906.255 587.865C906.151 587.993 905.95 588.209 905.813 588.321C905.7 588.425 905.483 588.641 905.314 589.016C905.242 589.208 905.242 589.448 905.169 589.712C905.137 589.84 905.089 590 905.073 590.104C905.057 590.224 905.097 590.344 905.169 590.456C905.242 590.568 905.346 590.672 905.443 590.776C905.547 590.88 905.604 591.039 905.708 591.159C905.756 591.215 905.821 591.263 905.885 591.279C905.957 591.295 906.03 591.295 906.11 591.287C906.271 591.271 906.432 591.223 906.593 591.128C906.754 591.031 906.914 590.904 907.075 590.744L907.188 590.616L907.365 590.392L907.694 589.864C907.775 589.736 907.855 589.584 907.936 589.48L908.072 589.616L908.539 590.104C908.901 590.456 909.037 590.52 909.23 590.64C909.44 590.752 909.673 590.824 909.898 590.856C910.123 590.872 910.348 590.824 910.549 590.736C910.742 590.64 910.927 590.544 911.048 590.392C911.112 590.32 911.161 590.24 911.201 590.152C911.233 590.064 911.241 589.968 911.233 589.872C911.217 589.672 911.136 589.488 911.128 589.272C911.128 589.064 911.144 588.841 911.064 588.673C910.984 588.505 910.831 588.369 910.678 588.249L910.453 588.073C910.388 588.009 910.308 587.961 910.244 587.905C909.962 587.705 909.681 587.569 909.424 587.449C909.174 587.329 908.941 587.273 908.74 587.185C908.547 587.105 908.386 587.017 908.273 586.945C908.161 586.865 908.081 586.769 908.072 586.634L908.105 586.625Z" fill="#014E72"/>
<path d="M915.6 587.745C915.552 587.873 915.464 587.953 915.351 587.993C915.23 588.033 915.086 588.017 914.917 587.977L914.298 587.841C914.056 587.785 913.791 587.705 913.494 587.641L913.268 587.593C913.196 587.577 913.116 587.577 913.035 587.569C912.866 587.569 912.697 587.569 912.512 587.521C912.328 587.473 912.167 587.337 911.998 587.257C911.837 587.177 911.644 587.193 911.443 587.225C911.346 587.241 911.242 587.249 911.137 587.249L910.84 587.209C910.639 587.185 910.438 587.169 910.229 587.177C910.019 587.193 909.81 587.193 909.601 587.217L908.974 587.273C908.781 587.289 908.596 587.321 908.403 587.345L908.122 587.385C908.033 587.401 907.945 587.425 907.848 587.457C907.76 587.481 907.663 587.521 907.575 587.553C907.486 587.585 907.39 587.609 907.301 587.633C907.124 587.681 906.939 587.721 906.771 587.777L906.264 587.945L906.015 588.025C905.926 588.049 905.83 588.057 905.741 588.057C905.556 588.057 905.38 588.025 905.251 588.073C905.106 588.129 904.969 588.209 904.833 588.297C904.696 588.385 904.551 588.457 904.406 588.489C904.262 588.521 904.117 588.529 903.996 588.569C903.763 588.641 903.578 588.817 903.393 588.937C903.023 589.145 902.766 589.32 902.629 589.4C902.492 589.464 902.372 589.56 902.259 589.656C902.139 589.752 902.002 589.816 901.873 589.864C901.745 589.912 901.624 589.952 901.511 589.992L901.343 590.048L901.254 590.072C901.254 590.072 901.19 590.08 901.166 590.08C900.916 590.08 900.691 590.008 900.53 589.968C900.37 589.92 900.265 589.88 900.201 589.792C900.136 589.712 900.136 589.592 900.201 589.488C900.273 589.376 900.434 589.304 900.587 589.193L900.643 589.145L900.699 589.089L900.828 588.953C900.924 588.865 901.029 588.785 901.142 588.689C901.262 588.601 901.375 588.521 901.495 588.401C901.608 588.289 901.745 588.161 901.913 588.081C902.058 588.009 902.34 587.833 902.75 587.633C902.943 587.537 903.16 587.361 903.458 587.281C903.602 587.241 903.763 587.241 903.916 587.217C904.069 587.202 904.197 587.153 904.35 587.073C904.495 587.002 904.648 586.922 904.825 586.866C905.01 586.81 905.227 586.85 905.404 586.866C905.5 586.874 905.581 586.874 905.661 586.866L905.934 586.81L906.489 586.69C906.674 586.65 906.875 586.626 907.068 586.594L907.358 586.546L907.647 586.474C907.744 586.45 907.848 586.434 907.953 586.426L908.258 586.41C908.459 586.41 908.66 586.386 908.861 586.394H909.529C909.746 586.37 909.971 586.37 910.188 586.354C910.406 586.338 910.623 586.354 910.832 586.354L911.145 586.378C911.242 586.378 911.346 586.362 911.451 586.338C911.66 586.29 911.877 586.234 912.086 586.306C912.295 586.37 912.472 586.482 912.641 586.514C912.81 586.538 912.995 586.522 913.18 586.514C913.268 586.514 913.365 586.514 913.453 586.514L913.711 586.546C914.04 586.594 914.338 586.658 914.588 586.738C914.845 586.81 915.062 586.906 915.23 587.018C915.4 587.137 915.504 587.257 915.568 587.369C915.632 587.481 915.641 587.593 915.6 587.713V587.745Z" fill="#014E72"/>
<path d="M908.789 595.237C908.661 595.261 908.548 595.261 908.476 595.237C908.395 595.221 908.363 595.181 908.339 595.125C908.307 595.077 908.275 595.013 908.259 594.933L908.21 594.67V594.598C908.21 594.598 908.186 594.55 908.17 594.526C908.138 594.478 908.09 594.43 908.098 594.366C908.114 594.302 908.218 594.23 908.267 594.166C908.315 594.102 908.267 594.054 908.21 593.998C908.186 593.974 908.162 593.942 908.154 593.91V593.814C908.154 593.75 908.17 593.678 908.146 593.622L908.074 593.43L908.025 593.238L907.977 593.062L907.953 592.974C907.953 592.974 907.921 592.918 907.897 592.894L907.832 592.814C907.832 592.814 907.8 592.758 907.792 592.727L907.72 592.559L907.647 592.399L907.615 592.319C907.615 592.319 907.615 592.255 907.639 592.223C907.688 592.159 907.76 592.095 907.744 592.055C907.728 592.007 907.68 591.967 907.639 591.919C907.599 591.879 907.567 591.823 907.583 591.775C907.599 591.727 907.623 591.679 907.631 591.631C907.647 591.551 907.543 591.487 907.503 591.423L907.382 591.151C907.382 591.103 907.334 591.063 907.31 591.015C907.277 590.967 907.293 590.919 907.31 590.871C907.326 590.823 907.342 590.783 907.366 590.735L907.406 590.671L907.43 590.639C907.43 590.639 907.454 590.615 907.47 590.607C907.599 590.52 907.776 590.447 907.889 590.4C908.009 590.352 908.106 590.312 908.21 590.296C908.307 590.28 908.411 590.28 908.468 590.312C908.524 590.336 908.5 590.4 908.516 590.456V590.48L908.548 590.503L908.596 590.551C908.596 590.551 908.653 590.624 908.677 590.663C908.701 590.703 908.717 590.743 908.765 590.783C908.805 590.823 908.862 590.871 908.87 590.927L908.942 591.199C908.966 591.263 909.055 591.327 909.014 591.423C908.998 591.471 908.958 591.519 908.934 591.567C908.91 591.615 908.91 591.655 908.934 591.703C908.958 591.751 908.998 591.791 909.006 591.847C909.014 591.903 908.926 591.975 908.862 592.039C908.829 592.071 908.805 592.103 908.805 592.127V592.207L908.829 592.375V592.551L908.846 592.639L908.878 592.727C908.878 592.727 908.902 592.782 908.91 592.814V592.91L908.894 593.094V593.294C908.902 593.358 908.926 593.422 908.95 593.486C908.982 593.55 908.966 593.614 908.982 593.678L908.998 593.774C908.998 593.774 909.039 593.83 909.071 593.854C909.135 593.91 909.223 593.958 909.199 594.022C909.175 594.086 909.087 594.158 909.095 594.214C909.095 594.262 909.167 594.31 909.216 594.358C909.24 594.382 909.264 594.406 909.28 594.43L909.312 594.502C909.352 594.598 909.384 594.678 909.384 594.766C909.384 594.846 909.384 594.917 909.336 594.982C909.288 595.045 909.216 595.101 909.135 595.141C909.055 595.181 908.958 595.213 908.821 595.237H908.789Z" fill="#014E72"/>
<path d="M910.519 593.814C910.647 593.854 910.736 593.91 910.792 593.966C910.848 594.022 910.856 594.086 910.84 594.158C910.832 594.222 910.824 594.318 910.768 594.406C910.72 594.494 910.663 594.59 910.599 594.686L910.543 594.758C910.543 594.758 910.511 594.814 910.503 594.846C910.479 594.909 910.462 594.989 910.398 595.029C910.326 595.061 910.197 595.029 910.109 595.037C910.02 595.037 910.004 595.117 909.964 595.189C909.948 595.229 909.932 595.269 909.9 595.293L909.795 595.341C909.731 595.381 909.642 595.389 909.586 595.445L909.385 595.589C909.312 595.629 909.24 595.661 909.16 595.693C909.095 595.725 909.023 595.757 908.951 595.781L908.838 595.821C908.838 595.821 908.766 595.853 908.733 595.877C908.701 595.901 908.661 595.925 908.621 595.949C908.581 595.973 908.54 595.981 908.5 595.989L908.267 596.037C908.187 596.045 908.114 596.061 908.034 596.069H907.921C907.881 596.085 907.841 596.053 907.809 596.021C907.744 595.949 907.696 595.861 907.64 595.853C907.575 595.853 907.503 595.877 907.431 595.885C907.358 595.901 907.286 595.893 907.238 595.853L907.101 595.725C907.021 595.661 906.892 595.693 906.795 595.677C906.618 595.621 906.49 595.565 906.426 595.533C906.369 595.493 906.297 595.477 906.241 595.445C906.176 595.413 906.128 595.357 906.104 595.301C906.08 595.245 906.056 595.189 906.039 595.125L906.023 595.037V594.989C906.023 594.989 906.023 594.957 906.031 594.933C906.08 594.782 906.2 594.622 906.281 594.526C906.369 594.422 906.434 594.358 906.522 594.294C906.602 594.238 906.699 594.19 906.755 594.19C906.82 594.19 906.811 594.238 906.852 594.27H906.9L906.956 594.286C906.956 594.286 907.029 594.302 907.069 594.31C907.101 594.326 907.133 594.334 907.189 594.326C907.238 594.326 907.294 594.31 907.326 594.334C907.358 594.35 907.423 594.382 907.511 594.422C907.559 594.438 907.64 594.39 907.672 594.462C907.688 594.494 907.704 594.55 907.72 594.59C907.736 594.638 907.768 594.646 907.809 594.638C907.849 594.638 907.889 594.614 907.929 594.622C907.969 594.63 907.986 594.742 908.018 594.814C908.034 594.853 908.05 594.886 908.066 594.894L908.13 594.909C908.179 594.918 908.219 594.918 908.267 594.925L908.412 594.942H908.484L908.557 594.909C908.557 594.909 908.605 594.886 908.629 594.886C908.653 594.886 908.677 594.886 908.701 594.886C908.75 594.886 908.806 594.886 908.854 594.886C908.91 594.886 908.967 594.87 909.023 594.853C909.079 594.83 909.119 594.79 909.168 594.758C909.208 594.71 909.264 594.702 909.304 594.67L909.369 594.622C909.369 594.622 909.393 594.566 909.393 594.534C909.401 594.462 909.393 594.366 909.449 594.358C909.514 594.358 909.61 594.382 909.65 594.358C909.682 594.334 909.674 594.254 909.666 594.198C909.666 594.166 909.666 594.142 909.666 594.118L909.69 594.062C909.715 593.982 909.739 593.918 909.779 593.878C909.827 593.83 909.851 593.79 909.924 593.774C909.996 593.758 910.084 593.75 910.173 593.758C910.261 593.758 910.366 593.782 910.495 593.83L910.519 593.814Z" fill="#014E72"/>
<path d="M814.749 611.11C814.628 611.174 814.331 610.863 813.873 610.207C813.43 609.543 812.779 608.576 812.127 607.312L811.026 605.225C810.616 604.458 810.254 603.578 809.828 602.658C809.393 601.739 809.007 600.731 808.605 599.668C808.404 599.132 808.187 598.588 807.986 598.028C807.809 597.453 807.624 596.869 807.431 596.269C807.254 595.67 807.029 595.078 806.892 594.438C806.74 593.83 806.579 593.207 806.418 592.559L806.161 591.567L805.968 590.528C805.839 589.824 805.718 589.089 805.598 588.321C805.533 587.537 805.517 586.77 805.493 586.026L805.461 584.915C805.477 584.547 805.501 584.179 805.517 583.819C805.549 583.115 805.558 582.388 805.558 581.636C805.614 580.884 805.678 580.117 805.742 579.317C805.767 578.518 805.943 577.71 806.112 576.878C806.289 576.079 806.418 575.263 806.707 574.487C806.965 573.704 807.206 572.904 807.488 572.12C807.825 571.353 808.163 570.585 808.501 569.81L808.75 569.226C808.847 569.034 808.959 568.858 809.056 568.666L809.683 567.555L810.31 566.435C810.519 566.059 810.793 565.723 811.034 565.372C811.541 564.676 812.031 563.964 812.554 563.269C813.125 562.621 813.704 561.965 814.275 561.317C814.54 561.03 814.781 560.718 815.063 560.446L815.915 559.638L817.62 558.015C817.91 557.751 818.183 557.463 818.48 557.215L819.405 556.488C819.992 556.016 820.587 555.536 821.19 555.048C821.496 554.8 821.794 554.553 822.107 554.313L823.08 553.665C823.74 553.233 824.423 552.785 825.058 552.378C825.38 552.17 825.702 551.954 826.032 551.754L827.045 551.218L829.063 550.155L830.06 549.627L831.098 549.195L833.148 548.339C833.486 548.195 833.824 548.06 834.162 547.916C834.499 547.788 834.853 547.692 835.199 547.58C835.947 547.34 836.719 547.132 837.427 546.948C838.834 546.524 840.169 546.42 841.311 546.14L843.184 545.717L845.106 545.437C846.377 545.261 847.72 545.029 848.974 545.061C850.221 545.053 851.363 545.029 852.408 545.045C853.43 545.117 854.427 545.165 855.4 545.197C855.89 545.221 856.373 545.221 856.839 545.261L858.23 545.437L860.707 545.789C861.471 545.877 862.147 546.1 862.766 546.228L865.597 546.9L869.231 548.124C869.851 548.299 870.438 548.579 871.009 548.851C871.572 549.123 872.118 549.387 872.617 549.627C873.124 549.875 873.614 550.115 874.097 550.346L875.399 551.154C875.818 551.418 876.212 551.674 876.598 551.914L877.185 552.298L877.748 552.681C879.115 553.761 879.919 554.649 880.522 555.216C881.101 555.8 881.423 556.152 881.358 556.232C881.302 556.312 880.827 556.096 880.056 555.584C879.669 555.336 879.211 555 878.696 554.632L877.892 554.041L877.466 553.729L877 553.457L876.517 553.185L875.986 552.897L874.78 552.226L873.477 551.506L872.014 550.858L870.494 550.179C869.987 549.963 869.489 549.707 868.902 549.547C867.76 549.187 866.505 548.787 865.162 548.323C864.551 548.171 863.651 547.956 862.493 547.676C861.905 547.548 861.27 547.34 860.554 547.236C859.839 547.132 859.059 547.012 858.222 546.892C856.606 546.58 854.628 546.636 852.344 546.428L848.999 546.412C847.889 546.372 846.811 546.524 845.597 546.692L843.731 546.94C843.088 547.02 842.445 547.212 841.761 547.34C840.322 547.652 838.89 547.788 837.636 548.156C837 548.315 836.381 548.467 835.794 548.643L834.789 548.947C834.459 549.059 834.13 549.203 833.8 549.331L831.797 550.139C831.122 550.41 830.438 550.666 829.795 551.026L827.817 552.034C827.157 552.378 826.474 552.681 825.855 553.113C825.227 553.513 824.6 553.905 823.973 554.305C823.354 554.728 822.686 555.088 822.115 555.584L820.274 557.031C819.671 557.511 819.019 557.935 818.472 558.487L816.776 560.054C816.221 560.59 815.61 561.07 815.119 561.661L813.414 563.556C812.843 564.188 812.401 564.908 811.886 565.571L811.147 566.595C810.929 566.955 810.728 567.323 810.519 567.683C810.125 568.418 809.667 569.114 809.329 569.873C808.999 570.633 808.67 571.385 808.348 572.136C808.018 572.888 807.833 573.68 807.568 574.447C807.447 574.831 807.319 575.215 807.214 575.599C807.134 575.991 807.053 576.382 806.973 576.774C806.844 577.518 806.659 578.254 806.611 579.021C806.563 579.789 806.506 580.565 806.458 581.356C806.402 582.14 806.458 582.947 806.418 583.771C806.402 584.171 806.394 584.555 806.378 584.939C806.394 585.314 806.41 585.69 806.426 586.05C806.458 586.77 806.482 587.457 806.539 588.113C806.643 588.753 806.764 589.409 806.892 590.072C807.021 590.736 807.142 591.4 807.335 592.047C807.512 592.703 807.689 593.359 807.857 594.014C807.994 594.654 808.227 595.254 808.412 595.853C808.605 596.445 808.79 597.021 808.975 597.589C809.16 598.148 809.393 598.684 809.594 599.212C810.005 600.267 810.374 601.275 810.801 602.187C811.219 603.106 811.565 603.978 811.951 604.761C812.337 605.545 812.69 606.281 813.012 606.96C813.631 608.296 814.146 609.271 814.427 609.967C814.725 610.655 814.83 611.055 814.709 611.118L814.749 611.11Z" fill="#014E72"/>
<path d="M853.358 621.785C853.39 621.913 853.342 622.033 853.229 622.129C853.116 622.225 852.923 622.297 852.69 622.361C852.457 622.425 852.167 622.529 851.822 622.577L850.664 622.761L850.342 622.793C850.237 622.801 850.125 622.825 850.012 622.849C849.787 622.897 849.546 622.969 849.28 622.969C849.007 622.961 848.75 622.857 848.5 622.817C848.259 622.769 848.002 622.833 847.736 622.873C847.6 622.897 847.463 622.913 847.318 622.913L846.9 622.897C846.619 622.897 846.337 622.841 846.048 622.849C845.758 622.849 845.469 622.849 845.171 622.849L844.287 622.785C844.021 622.769 843.748 622.745 843.482 622.713L843.08 622.665C842.952 622.649 842.823 622.649 842.686 622.649C842.55 622.649 842.421 622.641 842.284 622.633C842.147 622.625 842.011 622.601 841.882 622.585L841.102 622.473L840.346 622.337L839.976 622.273C839.84 622.249 839.719 622.185 839.606 622.129C839.381 622.001 839.188 621.865 838.995 621.817C838.786 621.761 838.561 621.745 838.344 621.697C838.127 621.657 837.901 621.593 837.709 621.505L837.178 621.241C836.864 621.082 836.526 621.042 836.221 620.954C835.642 620.754 835.232 620.57 835.023 620.49C834.822 620.394 834.612 620.338 834.411 620.242C834.21 620.162 834.017 620.034 833.865 619.93C833.704 619.818 833.559 619.714 833.422 619.602L833.237 619.434L833.149 619.346C833.149 619.346 833.093 619.282 833.068 619.25C832.884 618.979 832.811 618.715 832.755 618.539C832.707 618.355 832.69 618.235 832.747 618.147C832.803 618.059 832.924 618.019 833.085 618.059C833.245 618.091 833.422 618.235 833.631 618.363L833.712 618.403L833.808 618.443L834.025 618.531L834.508 618.723C834.685 618.803 834.838 618.875 835.039 618.931C835.232 618.995 835.449 619.051 835.666 619.154C835.859 619.234 836.229 619.418 836.752 619.618C837.009 619.714 837.339 619.762 837.676 619.954L838.167 620.242C838.328 620.338 838.497 620.394 838.698 620.45C838.891 620.506 839.108 620.538 839.333 620.602C839.566 620.674 839.767 620.842 839.96 620.97C840.057 621.034 840.153 621.098 840.25 621.122L840.595 621.21L841.303 621.393C841.544 621.457 841.786 621.505 842.035 621.561L842.405 621.641L842.783 621.689C842.911 621.697 843.04 621.713 843.177 621.729L843.563 621.801C843.82 621.849 844.069 621.905 844.327 621.937L845.179 622.049C845.461 622.081 845.75 622.065 846.032 622.073C846.313 622.057 846.587 622.105 846.86 622.097H847.27C847.399 622.097 847.527 622.065 847.656 622.041C847.913 621.993 848.179 621.905 848.46 621.921C848.734 621.937 848.983 622.025 849.2 622.017C849.417 622.017 849.642 621.921 849.868 621.857C849.98 621.825 850.093 621.793 850.205 621.769L850.527 621.713C850.937 621.641 851.307 621.553 851.645 621.513C851.983 621.481 852.264 621.417 852.521 621.425C852.771 621.425 852.972 621.473 853.116 621.529C853.261 621.585 853.35 621.673 853.382 621.801L853.358 621.785Z" fill="#014E72"/>
<path d="M933.549 619.954C933.573 619.826 933.783 619.754 934.161 619.786C934.531 619.826 935.061 619.986 935.64 620.306C936.211 620.618 936.887 621.098 937.514 621.777C938.14 622.457 938.752 623.305 939.283 624.304C939.411 624.552 939.532 624.808 939.66 625.072L940.022 625.847C940.272 626.383 940.538 626.951 940.755 627.583C940.972 628.222 941.093 628.862 941.285 629.446C941.47 630.021 941.784 630.589 942.154 631.149C942.339 631.429 942.531 631.709 942.741 631.997C942.926 632.276 943.143 632.548 943.368 632.804C943.819 633.316 944.317 633.812 944.912 634.18C945.499 634.555 946.143 634.843 946.809 634.987C947.477 635.139 948.176 635.139 948.844 634.987C949.447 634.843 950.026 634.571 950.557 634.212C950.823 634.036 951.08 633.836 951.321 633.628C951.555 633.428 951.772 633.196 951.989 632.956C952.206 632.716 952.407 632.46 952.599 632.196C952.801 631.941 953.011 631.669 953.187 631.413C953.564 630.893 953.887 630.349 954.2 629.806C954.489 629.254 954.755 628.694 954.98 628.126C955.093 627.846 955.205 627.567 955.293 627.279C955.399 626.975 955.527 626.671 955.631 626.391C955.865 625.831 956.065 625.312 956.146 624.824C956.243 624.304 956.275 623.76 956.283 623.225L956.315 621.617C956.339 621.106 956.331 620.626 956.307 620.194C956.258 619.346 956.001 618.563 955.792 617.835C955.39 616.412 954.923 615.436 954.699 614.948C954.481 614.469 954.216 614.013 953.943 613.565L953.162 612.262C952.93 611.862 952.68 611.494 952.456 611.158L952.125 610.67C952.069 610.582 952.012 610.51 951.957 610.431L951.804 610.191C951.425 609.559 951.2 609.071 951.023 608.743C950.855 608.407 950.766 608.191 950.838 608.12C950.902 608.04 951.136 608.12 951.474 608.375C951.812 608.623 952.222 609.071 952.664 609.567L952.833 609.751C952.897 609.815 952.962 609.879 953.026 609.943L953.452 610.407C953.734 610.734 954.04 611.094 954.329 611.51C954.634 611.926 954.884 612.326 955.197 612.781C955.495 613.237 955.816 613.757 956.09 614.349C956.324 614.877 956.79 615.908 957.2 617.419C957.4 618.147 957.666 619.027 957.714 620.09C957.738 620.61 957.73 621.13 957.698 621.633L957.626 623.201C957.594 623.752 957.553 624.352 957.432 624.976C957.304 625.647 957.055 626.255 956.805 626.799L956.468 627.599C956.363 627.894 956.25 628.19 956.114 628.486C955.865 629.086 955.567 629.67 955.246 630.253C954.916 630.829 954.546 631.397 954.136 631.941C953.926 632.204 953.734 632.476 953.509 632.732C953.3 632.996 953.082 633.26 952.849 633.516C952.616 633.78 952.358 634.028 952.077 634.268C951.804 634.499 951.514 634.715 951.208 634.907C950.606 635.299 949.93 635.619 949.207 635.787C948.41 635.987 947.566 635.979 946.786 635.811C945.997 635.651 945.258 635.323 944.598 634.923C943.93 634.523 943.36 633.996 942.854 633.452C942.603 633.172 942.363 632.884 942.146 632.588C941.937 632.308 941.72 632.029 941.518 631.733C941.116 631.149 940.723 630.525 940.457 629.83C940.2 629.15 940.062 628.518 939.862 627.974C939.66 627.439 939.396 626.895 939.13 626.367L938.737 625.576C938.616 625.32 938.486 625.08 938.358 624.848C937.851 623.928 937.281 623.161 936.726 622.537C936.171 621.921 935.616 621.473 935.118 621.122C934.635 620.77 934.232 620.554 933.968 620.378C933.694 620.218 933.541 620.082 933.573 619.954H933.549Z" fill="#014E72"/>
<path d="M870.799 617.619C870.888 617.507 871.177 617.611 871.692 617.803C872.207 617.995 872.946 618.283 873.903 618.475C874.844 618.651 876.075 618.731 877.482 618.627C878.889 618.539 880.482 618.235 882.251 617.907L883.602 617.675L884.993 617.459C885.966 617.331 887.003 617.219 888.161 617.331C889.335 617.435 890.405 617.851 891.354 618.323C892.279 618.795 893.252 619.362 894.096 620.226C894.506 620.666 894.884 621.17 895.157 621.753C895.415 622.321 895.56 622.937 895.632 623.561C895.745 624.816 895.439 626.071 894.9 627.199C894.361 628.326 893.605 629.35 892.729 630.245C891.86 631.149 890.839 631.917 889.794 632.604C888.845 633.228 887.856 633.796 886.834 634.284C886.336 634.556 885.797 634.739 885.274 634.971C884.776 635.203 884.245 635.363 883.722 635.563C883.192 635.779 882.645 635.915 882.106 636.083C881.559 636.259 880.98 636.355 880.441 636.467C879.348 636.683 878.246 636.834 877.144 636.898C876.597 636.954 876.051 636.954 875.512 636.962C874.973 636.978 874.434 636.962 873.895 636.922C873.365 636.898 872.834 636.866 872.311 636.786C871.748 636.722 871.169 636.618 870.663 636.475C869.617 636.227 868.725 635.867 867.904 635.643L866.577 635.211C866.135 635.067 865.701 634.875 865.259 634.707C864.816 634.547 864.39 634.324 863.964 634.108C863.538 633.892 863.12 633.668 862.75 633.412C862.372 633.164 862.01 632.932 861.672 632.684L860.723 631.957C860.136 631.509 859.589 631.037 859.034 630.605C858.52 630.126 857.973 629.702 857.514 629.214C855.705 627.359 854.644 625.775 854.137 624.984C853.638 624.208 853.18 623.409 852.738 622.593C852.328 621.761 851.934 620.89 851.692 620.13C851.411 619.362 851.218 618.619 851.041 617.931C850.944 617.587 850.888 617.251 850.832 616.932L850.743 616.428L850.679 615.94C850.591 614.677 850.655 613.829 850.743 613.221C850.824 612.622 850.888 612.294 850.993 612.286C851.089 612.278 851.226 612.622 851.33 613.269C851.419 613.917 851.547 614.853 851.749 615.876L851.845 616.26L851.958 616.668C852.038 616.972 852.119 617.283 852.239 617.603C852.456 618.251 852.681 618.939 852.987 619.658C853.26 620.41 853.606 621.066 853.984 621.825C854.41 622.553 854.869 623.361 855.416 624.208C855.882 624.952 856.855 626.415 858.488 628.142C859.284 628.982 860.345 629.87 861.6 630.885L862.524 631.621L863.489 632.293C863.803 632.524 864.141 632.716 864.495 632.892C864.848 633.068 865.194 633.284 865.596 633.444L866.819 633.948L868.154 634.411C869.143 634.723 870.084 635.083 870.984 635.323C871.426 635.467 871.877 635.547 872.303 635.611C872.794 635.683 873.284 635.755 873.791 635.771C874.804 635.859 875.833 635.867 876.879 635.827C877.924 635.787 878.978 635.675 880.031 635.499C880.546 635.395 881.068 635.315 881.583 635.187C882.098 635.035 882.621 634.915 883.127 634.747C883.642 634.563 884.173 634.396 884.695 634.196C885.202 633.988 885.717 633.804 886.223 633.572C886.714 633.332 887.22 633.116 887.703 632.852C888.177 632.58 888.668 632.325 889.126 632.037C890.14 631.373 891.145 630.701 891.989 629.854C892.841 629.022 893.565 628.079 894.088 627.063C894.587 626.039 894.908 624.936 894.828 623.856C894.796 623.321 894.683 622.785 894.474 622.297C894.281 621.833 893.999 621.402 893.646 621.026C892.946 620.25 892.021 619.69 891.016 619.203C890.035 618.731 889.07 618.411 888.161 618.339C887.252 618.259 886.279 618.339 885.331 618.491L883.899 618.731L882.532 618.987C880.771 619.339 879.114 619.682 877.594 619.754C876.083 619.842 874.748 619.738 873.63 619.434C872.544 619.131 871.796 618.699 871.346 618.355C870.896 618.011 870.727 617.747 870.807 617.643L870.799 617.619Z" fill="#014E72"/>
<path d="M886.489 592.391C886.618 592.375 886.731 592.407 886.811 592.511C886.891 592.607 886.948 592.767 886.964 592.967C886.98 593.158 887.02 593.406 886.98 593.686C886.956 593.966 886.891 594.278 886.803 594.614L886.722 594.862C886.69 594.942 886.682 595.03 886.658 595.118C886.602 595.294 886.57 595.493 886.457 595.677C886.328 595.853 886.136 595.981 885.983 596.109C885.822 596.229 885.766 596.429 885.653 596.621C885.605 596.717 885.548 596.813 885.476 596.909L885.235 597.141C885.082 597.301 884.881 597.42 884.72 597.58C884.551 597.732 884.366 597.876 884.173 598.02C883.972 598.14 883.771 598.276 883.554 598.372C883.361 598.476 883.16 598.556 882.951 598.62C882.846 598.652 882.742 598.7 882.637 598.716C882.533 598.74 882.428 598.78 882.324 598.82C882.219 598.86 882.107 598.892 882.002 598.916C881.889 598.94 881.777 598.956 881.664 598.972C881.447 598.988 881.222 598.988 881.005 598.988C880.788 598.964 880.571 598.964 880.362 598.924L880.048 598.868C879.935 598.852 879.831 598.788 879.742 598.724C879.565 598.596 879.421 598.468 879.276 598.396C879.115 598.324 878.93 598.292 878.761 598.22C878.592 598.156 878.407 598.076 878.287 597.948C878.158 597.828 878.046 597.708 877.949 597.604C877.756 597.396 877.491 597.285 877.298 597.109C876.928 596.765 876.695 596.469 876.582 596.317C876.485 596.165 876.357 596.029 876.26 595.861C876.156 595.701 876.083 595.525 876.051 595.365C876.011 595.206 875.979 595.054 875.963 594.91V594.598C875.963 594.598 875.963 594.526 875.979 594.494C876.051 594.222 876.228 594.038 876.333 593.918C876.445 593.798 876.534 593.734 876.638 593.718C876.735 593.71 876.847 593.758 876.912 593.862C876.984 593.958 876.96 594.118 877.016 594.286L877.04 594.342L877.073 594.406L877.145 594.55L877.322 594.862C877.378 594.982 877.442 595.078 877.539 595.182C877.627 595.286 877.74 595.389 877.828 595.525C877.901 595.645 878.07 595.861 878.335 596.133C878.464 596.269 878.673 596.357 878.834 596.557L879.067 596.861C879.147 596.965 879.252 597.029 879.38 597.085C879.501 597.149 879.646 597.181 879.791 597.245C879.935 597.325 880.048 597.46 880.161 597.588C880.217 597.644 880.281 597.7 880.346 597.724L880.579 597.788C880.74 597.844 880.908 597.852 881.069 597.884C881.238 597.908 881.407 597.908 881.584 597.932L881.841 597.916C881.93 597.9 882.01 597.9 882.099 597.868C882.187 597.844 882.267 597.82 882.356 597.804C882.444 597.804 882.533 597.78 882.621 597.756C882.798 597.716 882.975 597.676 883.144 597.612C883.337 597.549 883.514 597.452 883.691 597.365C883.86 597.261 884.012 597.125 884.165 597.005C884.302 596.853 884.471 596.757 884.6 596.605L884.801 596.397C884.857 596.325 884.897 596.237 884.929 596.149C885.01 595.973 885.042 595.781 885.179 595.637C885.315 595.501 885.468 595.389 885.557 595.262C885.637 595.126 885.637 594.95 885.661 594.79C885.677 594.71 885.677 594.63 885.693 594.55L885.741 594.334L885.862 593.574C885.918 593.35 885.91 593.158 885.975 592.983C886.031 592.815 886.087 592.679 886.168 592.583C886.248 592.487 886.345 592.423 886.473 592.399L886.489 592.391Z" fill="#014E72"/>
<path d="M939.597 583.107C939.725 583.083 939.838 583.115 939.927 583.219C940.015 583.323 940.08 583.483 940.112 583.691C940.136 583.891 940.2 584.155 940.168 584.45C940.168 584.746 940.112 585.074 940.047 585.434L939.976 585.706C939.951 585.794 939.943 585.89 939.927 585.986C939.887 586.178 939.862 586.386 939.758 586.593C939.638 586.793 939.46 586.945 939.308 587.097C939.155 587.241 939.106 587.457 939.002 587.665C938.954 587.769 938.905 587.881 938.841 587.985L938.607 588.249C938.463 588.433 938.269 588.585 938.118 588.769C937.956 588.952 937.771 589.112 937.595 589.28C937.393 589.424 937.201 589.592 936.984 589.72C936.791 589.848 936.589 589.96 936.38 590.056C936.276 590.104 936.179 590.168 936.066 590.2C935.962 590.24 935.858 590.288 935.753 590.344C935.649 590.4 935.543 590.448 935.432 590.488C935.319 590.528 935.198 590.56 935.086 590.584C934.86 590.632 934.627 590.664 934.403 590.696C934.177 590.704 933.952 590.736 933.727 590.728H933.397C933.276 590.712 933.164 590.672 933.059 590.624C932.849 590.52 932.681 590.416 932.513 590.368C932.336 590.32 932.134 590.32 931.941 590.272C931.756 590.232 931.556 590.184 931.403 590.072L930.984 589.776C930.743 589.6 930.454 589.52 930.221 589.368C929.778 589.072 929.481 588.808 929.336 588.673C929.207 588.529 929.055 588.409 928.926 588.265C928.789 588.121 928.677 587.953 928.613 587.793C928.539 587.633 928.475 587.489 928.435 587.337L928.387 587.121L928.371 587.017C928.371 587.017 928.371 586.945 928.371 586.905C928.387 586.618 928.524 586.386 928.596 586.242C928.685 586.09 928.756 586.01 928.853 585.978C928.949 585.946 929.07 585.978 929.151 586.074C929.247 586.162 929.255 586.338 929.344 586.498L929.385 586.554L929.432 586.61L929.536 586.746L929.786 587.041C929.866 587.153 929.963 587.249 930.076 587.337C930.188 587.433 930.325 587.521 930.446 587.649C930.55 587.761 930.767 587.961 931.097 588.201C931.258 588.321 931.499 588.385 931.709 588.569L932.022 588.848C932.126 588.944 932.255 588.984 932.4 589.024C932.545 589.072 932.706 589.08 932.858 589.128C933.027 589.184 933.172 589.312 933.317 589.416C933.389 589.472 933.461 589.512 933.542 589.52L933.807 589.552C933.984 589.584 934.169 589.568 934.346 589.576C934.531 589.576 934.716 589.552 934.901 589.544L935.173 589.496C935.262 589.464 935.358 589.448 935.439 589.408C935.528 589.368 935.617 589.336 935.713 589.304C935.809 589.288 935.898 589.248 935.987 589.216C936.172 589.152 936.348 589.088 936.525 588.992C936.718 588.904 936.895 588.776 937.08 588.665C937.248 588.529 937.401 588.377 937.546 588.225C937.675 588.057 937.844 587.929 937.965 587.753L938.158 587.513C938.205 587.433 938.246 587.337 938.278 587.241C938.35 587.049 938.375 586.841 938.503 586.673C938.632 586.514 938.785 586.378 938.866 586.234C938.938 586.082 938.93 585.89 938.945 585.722C938.954 585.634 938.945 585.546 938.962 585.466L939.002 585.234L939.083 584.411C939.123 584.163 939.098 583.955 939.155 583.771C939.203 583.587 939.251 583.443 939.324 583.331C939.396 583.219 939.485 583.147 939.621 583.123L939.597 583.107Z" fill="#014E72"/>
<path d="M836.897 610.295C837.026 610.335 837.042 610.647 836.945 611.214C836.841 611.774 836.591 612.566 836.197 613.501C835.82 614.421 835.273 615.572 834.485 616.788C833.696 618.003 832.715 619.323 831.461 620.61C831.147 620.93 830.826 621.25 830.48 621.554C830.158 621.857 829.804 622.161 829.443 622.481C828.703 623.105 827.898 623.729 826.942 624.296C825.969 624.864 824.963 625.232 823.998 625.592C823.057 625.936 822.068 626.343 820.975 626.687C820.428 626.855 819.865 627.015 819.27 627.127C818.699 627.231 818.12 627.319 817.525 627.383C816.359 627.511 815.16 627.527 813.962 627.495C812.764 627.455 811.582 627.359 810.448 627.511C810.15 627.551 809.933 627.607 809.668 627.703C809.419 627.807 809.161 627.927 808.912 628.079C808.413 628.366 807.931 628.702 807.457 629.062C806.604 629.718 805.8 630.445 805.028 631.205L804.457 631.781C804.208 632.021 803.894 632.229 803.564 632.325C802.921 632.516 802.294 632.445 801.715 632.325C801.128 632.197 800.581 631.997 800.058 631.765C799.527 631.533 799.021 631.237 798.554 630.941C797.589 630.382 796.729 629.662 795.925 628.918C795.153 628.135 794.437 627.295 793.89 626.367C793.593 625.92 793.376 625.432 793.134 624.96C792.917 624.432 792.708 623.88 792.596 623.361C792.33 622.321 792.266 621.37 792.153 620.538C792.097 620.082 792.073 619.626 792.025 619.171C792.009 618.707 791.992 618.243 791.984 617.779C791.992 616.86 792.081 615.892 792.25 615.021C792.411 614.149 792.636 613.365 792.829 612.646C793.247 611.254 793.689 609.919 794.268 608.719C795.474 606.425 796.858 605.057 797.541 604.393L798.611 603.498C798.981 603.218 799.367 602.954 799.753 602.69C800.541 602.195 801.409 601.755 802.157 601.491C802.905 601.155 803.661 600.995 804.336 600.787L805.333 600.587L805.832 600.491C806.001 600.459 806.162 600.435 806.323 600.435C806.95 600.395 807.473 600.387 807.915 600.395C808.357 600.419 808.719 600.467 809.017 600.499C809.604 600.571 809.941 600.635 809.949 600.739C809.958 600.835 809.62 600.979 808.976 601.083C808.333 601.179 807.408 601.307 806.395 601.491C806.274 601.515 806.146 601.555 806.017 601.587L805.615 601.707L804.69 601.979C804.071 602.227 803.379 602.418 802.696 602.762C801.972 603.066 801.353 603.426 800.653 603.858L799.616 604.617L798.546 605.521C797.935 606.105 796.713 607.288 795.611 609.311C795.105 610.303 794.63 611.558 794.172 613.062L793.85 614.173L793.585 615.3C793.432 616.052 793.343 616.796 793.319 617.635C793.287 618.467 793.343 619.355 793.416 620.29C793.544 621.282 793.593 622.257 793.818 623.121C793.898 623.569 794.051 623.968 794.196 624.36C794.373 624.8 794.606 625.224 794.831 625.648C795.33 626.487 795.909 627.295 796.616 628.015C797.316 628.734 798.104 629.406 798.973 629.966C799.399 630.246 799.833 630.525 800.291 630.749C800.75 630.973 801.224 631.173 801.707 631.309C802.189 631.437 802.704 631.525 803.13 631.453C803.347 631.429 803.516 631.341 803.669 631.237L803.781 631.149L803.926 631.005L804.224 630.709C805.028 629.942 805.864 629.206 806.757 628.526C807.248 628.151 807.762 627.791 808.301 627.471C808.848 627.159 809.427 626.855 810.118 626.743C811.381 626.543 812.611 626.647 813.785 626.687C814.951 626.719 816.109 626.711 817.243 626.591C817.806 626.535 818.369 626.447 818.916 626.351C819.431 626.247 819.953 626.111 820.468 625.944C821.505 625.616 822.519 625.192 823.596 624.768C824.633 624.36 825.582 623.976 826.37 623.505C827.151 623.033 827.923 622.449 828.622 621.825C828.976 621.514 829.33 621.194 829.676 620.866C830.013 620.554 830.327 620.242 830.633 619.922C831.831 618.675 832.772 617.396 833.544 616.228C834.316 615.061 834.871 613.989 835.337 613.053C835.787 612.158 836.125 611.478 836.374 610.974C836.608 610.503 836.793 610.263 836.921 610.303L836.897 610.295Z" fill="#014E72"/>
<path d="M824.745 553.233C824.649 553.321 824.528 553.361 824.416 553.353C824.295 553.345 824.182 553.281 824.062 553.185C823.925 553.113 823.748 553.025 823.571 552.905C823.37 552.817 823.161 552.681 822.888 552.601L822.686 552.529C822.622 552.505 822.55 552.497 822.477 552.489C822.325 552.481 822.164 552.473 822.003 552.425C821.834 552.377 821.681 552.241 821.521 552.161C821.36 552.098 821.183 552.13 820.998 552.161C820.909 552.178 820.813 552.202 820.716 552.21H820.435C820.242 552.21 820.049 552.21 819.856 552.241C819.663 552.281 819.478 552.337 819.285 552.385L818.722 552.561L818.231 552.769L818.006 552.897C817.934 552.937 817.862 552.985 817.805 553.049L817.628 553.225C817.564 553.281 817.5 553.329 817.451 553.385C817.339 553.497 817.226 553.593 817.162 553.713C817.081 553.809 817.009 553.953 816.937 554.089C816.896 554.153 816.872 554.225 816.84 554.297C816.808 554.368 816.744 554.432 816.695 554.488C816.583 554.6 816.446 554.696 816.422 554.824C816.39 554.952 816.382 555.096 816.39 555.24C816.39 555.376 816.382 555.52 816.342 555.64C816.293 555.768 816.261 555.88 816.237 555.992C816.197 556.208 816.285 556.416 816.342 556.599C816.406 556.967 816.502 557.215 816.551 557.343C816.575 557.471 816.655 557.583 816.712 557.695C816.768 557.807 816.816 557.935 816.84 558.047L816.921 558.367C816.929 558.423 816.937 558.471 816.953 558.519L816.969 558.599C816.969 558.599 816.969 558.655 816.969 558.679C816.945 558.91 816.889 559.126 816.856 559.278C816.816 559.438 816.776 559.542 816.695 559.614C816.623 559.678 816.502 559.694 816.39 559.622C816.269 559.558 816.181 559.398 816.076 559.23L816.028 559.174L815.972 559.118C815.923 559.078 815.883 559.03 815.843 558.974C815.763 558.87 815.666 558.758 815.594 558.623C815.521 558.487 815.441 558.359 815.353 558.215C815.264 558.071 815.152 557.911 815.111 557.711C815.063 557.543 814.958 557.207 814.91 556.727C814.878 556.495 814.79 556.216 814.862 555.888C814.894 555.728 814.95 555.576 815.015 555.424C815.071 555.272 815.095 555.128 815.119 554.952C815.135 554.784 815.159 554.592 815.232 554.409C815.288 554.209 815.481 554.065 815.618 553.929C815.69 553.865 815.755 553.801 815.803 553.729C815.851 553.649 815.891 553.561 815.948 553.481C816.06 553.321 816.157 553.153 816.317 553.001C816.462 552.833 816.623 552.697 816.792 552.569C816.872 552.505 816.953 552.441 817.041 552.393L817.291 552.21C817.371 552.146 817.468 552.09 817.564 552.05L817.853 551.93C818.047 551.858 818.248 551.81 818.441 551.746C818.658 551.69 818.875 551.642 819.092 551.594L819.735 551.442C819.944 551.394 820.161 551.386 820.379 551.37H820.692C820.789 551.354 820.893 551.322 820.99 551.29C821.191 551.242 821.416 551.178 821.633 551.226C821.842 551.29 822.027 551.41 822.196 551.442C822.365 551.474 822.558 551.466 822.743 551.466C822.839 551.466 822.936 551.466 823.024 551.49L823.282 551.562C823.619 551.642 823.909 551.794 824.158 551.93C824.391 552.098 824.592 552.241 824.729 552.417C824.842 552.601 824.898 552.769 824.914 552.897C824.922 553.025 824.89 553.129 824.785 553.217L824.745 553.233Z" fill="#014E72"/>
</g>
</g>
<path d="M910.687 462.874C919.672 466.408 919.362 476.441 907.846 475.453C897.261 474.233 886.569 474.233 875.983 475.453C864.327 477.28 852.478 477.49 840.766 476.077C833.314 475.146 825.789 474.972 818.301 475.557C807.2 476.285 807.975 466.356 816.238 463.965C821.286 462.664 825.967 460.209 829.922 456.792C837.978 449.982 842.419 448.318 851.61 450.554C853.817 451.157 856.139 451.187 858.361 450.642C860.584 450.096 862.63 448.993 864.312 447.435C873.04 440.001 884.71 439.274 894.833 451.074C898.791 456.551 904.326 460.67 910.687 462.874Z" fill="#8ABEF5" fill-opacity="0.25"/>
<path d="M769.561 507.547L772.939 500.663C773.037 500.464 773.189 500.296 773.376 500.179C773.563 500.062 773.779 500 773.999 500C774.219 500 774.435 500.062 774.622 500.179C774.809 500.296 774.96 500.464 775.059 500.663L778.437 507.547L785.988 508.658C786.206 508.688 786.411 508.78 786.58 508.923C786.748 509.066 786.874 509.254 786.942 509.465C787.01 509.677 787.018 509.904 786.965 510.12C786.912 510.336 786.8 510.532 786.642 510.687L781.179 516.042L782.469 523.608C782.634 524.579 781.619 525.318 780.752 524.86L773.999 521.287L767.244 524.86C766.378 525.32 765.364 524.579 765.529 523.607L766.819 516.041L761.355 510.685C761.198 510.531 761.087 510.334 761.034 510.119C760.982 509.903 760.99 509.677 761.058 509.466C761.126 509.255 761.251 509.067 761.42 508.925C761.588 508.782 761.792 508.69 762.009 508.659L769.561 507.547Z" fill="#8ABEF5" fill-opacity="0.25"/>
<path d="M956.852 512.306C962.194 514.389 962.009 520.304 955.164 519.722C948.871 519.002 942.516 519.002 936.223 519.722C929.294 520.799 922.25 520.922 915.289 520.089C910.859 519.541 906.385 519.438 901.935 519.783C895.336 520.212 895.796 514.359 900.708 512.949C903.709 512.182 906.492 510.735 908.843 508.72C913.631 504.706 916.271 503.725 921.735 505.043C923.047 505.398 924.427 505.416 925.748 505.095C927.069 504.773 928.285 504.123 929.286 503.204C934.473 498.822 941.411 498.393 947.428 505.349C949.781 508.578 953.071 511.007 956.852 512.306Z" fill="#8ABEF5" fill-opacity="0.25"/>
</g>
<path opacity="0.25" d="M626.412 94.8434L623.814 89.6114C623.738 89.4599 623.622 89.3326 623.478 89.2436C623.334 89.1546 623.168 89.1074 622.999 89.1074C622.83 89.1074 622.664 89.1546 622.52 89.2436C622.376 89.3326 622.259 89.4599 622.184 89.6114L619.586 94.8434L613.778 95.6874C613.61 95.7106 613.453 95.7805 613.323 95.889C613.193 95.9975 613.097 96.1403 613.044 96.3011C612.992 96.4619 612.986 96.6342 613.026 96.7983C613.067 96.9625 613.153 97.1118 613.275 97.2294L617.477 101.299L616.485 107.049C616.358 107.787 617.138 108.349 617.805 108.001L622.999 105.285L628.194 108.001C628.86 108.35 629.64 107.787 629.513 107.048L628.521 101.298L632.723 97.2284C632.844 97.1107 632.929 96.9615 632.97 96.7977C633.01 96.6338 633.004 96.4619 632.952 96.3015C632.899 96.1411 632.803 95.9986 632.673 95.8902C632.544 95.7818 632.387 95.7119 632.22 95.6884L626.412 94.8434Z" fill="#8ABEF5"/>
<path opacity="0.25" d="M544.122 77.8623L540.224 69.8766C540.111 69.6455 539.936 69.4511 539.72 69.3152C539.504 69.1794 539.255 69.1074 539.001 69.1074C538.747 69.1074 538.499 69.1794 538.283 69.3152C538.067 69.4511 537.892 69.6455 537.779 69.8766L533.881 77.8623L525.167 79.1505C524.916 79.186 524.68 79.2926 524.485 79.4582C524.29 79.6239 524.145 79.8418 524.067 80.0872C523.988 80.3327 523.979 80.5956 524.04 80.8462C524.101 81.0967 524.23 81.3247 524.413 81.5041L530.717 87.7162L529.229 96.4925C529.038 97.619 530.208 98.4767 531.209 97.9456L539.001 93.8001L546.795 97.9456C547.794 98.4783 548.965 97.619 548.774 96.491L547.286 87.7147L553.59 81.5026C553.772 81.323 553.9 81.0953 553.961 80.8452C554.021 80.5951 554.012 80.3327 553.933 80.0879C553.855 79.843 553.71 79.6255 553.516 79.4601C553.322 79.2947 553.086 79.1879 552.835 79.152L544.122 77.8623Z" fill="#8ABEF5"/>
<defs>
<clipPath id="clip0_63_224">
<rect width="214" height="265" fill="white" transform="translate(747 388.107)"/>
</clipPath>
</defs>
</svg>
