<svg width="112" height="164" viewBox="0 0 112 164" fill="none" xmlns="http://www.w3.org/2000/svg">
<g id="Frame 12">
<path id="Vector" d="M33.9947 131.528C46.9571 136.357 59.9196 141.79 71.0672 146.62C81.4312 151.568 92.2002 155.622 103.257 158.737L103.776 158.737C104.55 158.738 105.3 158.466 105.893 157.969C106.486 157.472 106.884 156.781 107.016 156.02C107.104 155.579 107.104 155.125 107.016 154.683C107.036 154.468 107.036 154.252 107.016 154.037C100.406 139.117 95.6524 126.267 92.1957 116.91C90.2321 110.445 87.5664 104.213 84.2456 98.3254C83.7607 97.6728 83.0501 97.223 82.2516 97.0637C81.4532 96.9043 80.6241 97.0467 79.9249 97.463L79.2766 97.7648C71.0239 103.112 61.7342 108.416 53.3517 113.116C46.3717 116.813 39.6324 120.947 33.1737 125.491C32.7332 125.882 32.3989 126.378 32.2017 126.932C32.0044 127.487 31.9507 128.082 32.0456 128.662C32.1404 129.243 32.3807 129.79 32.7441 130.254C33.1076 130.717 33.5821 131.081 34.1242 131.312L33.9947 131.528Z" fill="white"/>
<path id="Vector_2" d="M78.9284 100.955C78.9284 100.955 78.9284 101.343 78.9284 101.602C78.63 101.942 78.2799 102.233 77.8912 102.464L76.2062 103.585L73.9594 104.965L73.311 105.353L72.6632 105.784C72.2324 106.13 71.7692 106.433 71.2804 106.69C70.7485 106.942 70.1999 107.158 69.6385 107.337C69.1057 107.581 68.6107 107.9 68.1694 108.285L67.3915 108.846L66.5274 109.32C66.0089 109.622 65.4042 109.924 64.8857 110.269L63.2005 111.39L61.5154 112.425L59.96 113.417L59.1822 113.891L58.4475 114.408L57.7564 114.969L56.9785 115.486L55.5094 116.435L54.0837 117.427L53.3922 117.901L52.5714 118.289C52.0529 118.289 51.5342 118.677 51.1454 118.893L49.9789 119.798L48.7257 120.618L47.516 121.221C46.8634 121.603 46.242 122.035 45.6582 122.515L43.2817 124.11L42.0717 124.93C41.6779 125.212 41.2584 125.458 40.8189 125.663C40.43 125.663 40.0842 126.051 39.6954 126.18L39.2202 126.18L38.9609 126.18L38.7017 126.18C38.157 126.255 37.6045 126.255 37.0597 126.18C36.714 126.18 36.4547 126.18 36.3684 126.18C36.2819 126.18 36.3684 125.792 36.6275 125.533C37.0304 125.251 37.4489 124.992 37.8807 124.757L38.356 124.455L39.3497 123.722L40.4299 122.946C40.8139 122.6 41.2339 122.297 41.6829 122.041L44.0594 120.531C44.6212 120.186 45.2259 119.669 46.0469 119.238L47.2569 118.72C47.664 118.523 48.0542 118.292 48.4235 118.03C48.8124 117.772 49.2012 117.427 49.6764 117.168C50.174 116.905 50.6947 116.689 51.2319 116.521C51.4852 116.461 51.7314 116.374 51.9664 116.262L52.6579 115.831L54.1267 114.926L55.6392 114.063L56.4169 113.589L57.1514 113.115L57.929 112.597L58.75 112.166L60.3057 111.261L62.077 110.269L63.7622 109.191L65.4042 108.199L66.2252 107.682C66.48 107.524 66.7252 107.351 66.9597 107.164C67.4349 106.734 67.9565 106.358 68.515 106.043C69.0767 105.741 69.6384 105.569 70.0705 105.31C70.5299 105.033 70.9639 104.715 71.3669 104.361L72.0149 103.887L72.6632 103.456C73.484 102.895 74.2184 102.421 74.9097 102.033L76.7679 101.041C77.1794 100.859 77.6167 100.743 78.0642 100.696C78.6259 100.696 78.8419 100.739 78.9284 100.955Z" fill="#0867C5"/>
<path id="Vector_3" d="M104.594 155.415C104.81 155.415 104.853 155.114 104.853 154.683C104.759 154.148 104.6 153.626 104.378 153.13C104.162 152.526 103.86 151.707 103.514 150.845L102.261 147.826L101.915 147.007C101.915 146.748 101.915 146.447 101.569 146.145C101.224 145.843 101.18 144.894 100.878 144.248C100.576 143.601 100.1 142.997 99.7545 142.393C99.4252 141.762 99.1645 141.097 98.9767 140.41C98.8517 140.029 98.7075 139.655 98.5447 139.289C98.5447 138.944 98.2424 138.599 98.0695 138.211C97.8967 137.823 97.4214 136.788 97.162 136.055L96.2547 133.769L95.3474 131.527C95.045 130.837 94.7857 130.147 94.5265 129.457L94.0942 128.422C93.9237 128.03 93.7794 127.627 93.6622 127.215L93.3165 126.137L92.9279 125.102L92.15 123.076C91.8909 122.429 91.6314 121.782 91.4154 121.135L91.0267 120.143C90.8944 119.815 90.7354 119.498 90.5514 119.195C90.2177 118.666 89.9147 118.119 89.6439 117.556C89.4279 116.996 89.255 116.392 89.0822 115.788C88.9094 115.185 88.6502 114.624 88.391 114.107C88.1317 113.589 87.8724 113.115 87.6562 112.64C87.4402 112.166 87.0515 110.873 86.749 110.053L85.4959 106.776C85.4959 106.216 85.1069 105.612 84.8909 105.051C84.6749 104.491 84.4157 103.93 84.1997 103.456L83.5085 102.162L83.1627 101.559L83.1627 101.3C83.171 101.199 83.171 101.099 83.1627 100.998C82.7375 100.517 82.2752 100.07 81.78 99.6613C81.4344 99.3595 81.2185 99.2302 81.0889 99.2733C80.9592 99.3165 81.0889 99.6183 81.0889 100.093C81.2724 100.665 81.4885 101.227 81.7369 101.774L81.7369 102.076L81.7369 102.723C81.7369 103.154 82.0392 103.628 82.212 104.103C82.4252 104.611 82.6127 105.129 82.7737 105.655C82.7737 106.216 83.1195 106.819 83.3787 107.466L84.6749 110.657C84.9504 111.574 85.297 112.467 85.7119 113.33L86.4899 114.753C86.7576 115.233 86.9747 115.739 87.1379 116.263C87.1379 116.823 87.5269 117.384 87.8292 118.031C88.1232 118.649 88.47 119.24 88.8662 119.798C89.0265 120.048 89.1709 120.307 89.2982 120.575L89.6872 121.523L90.5514 123.464L91.372 125.404C91.372 125.749 91.6747 126.094 91.8044 126.396L92.193 127.431C92.3185 127.783 92.4629 128.129 92.6254 128.466L93.0572 129.5C93.3597 130.147 93.7055 130.837 94.008 131.527L95.0017 133.769L95.9092 136.011C96.1684 136.788 96.5139 137.478 96.8164 138.211C97.1189 138.944 97.1191 138.944 97.2486 139.289C97.3896 139.639 97.5049 140 97.594 140.367C97.7762 141.111 98.037 141.834 98.372 142.523C98.7177 143.256 99.1065 143.816 99.3657 144.42C99.6187 145.02 99.8212 145.64 99.9707 146.274C100.091 146.569 100.192 146.872 100.273 147.18L100.619 148.085C101.051 149.206 101.44 150.241 101.872 151.104C102.191 151.884 102.551 152.647 102.952 153.389C103.203 153.878 103.523 154.328 103.903 154.726C104.162 155.416 104.378 155.502 104.594 155.415Z" fill="#0867C5"/>
<path id="Vector_4" d="M34.4687 128.81C34.4687 128.81 34.4688 129.242 34.9441 129.543C35.5036 129.89 36.0973 130.179 36.7158 130.406L39.5673 131.57L43.2834 133.036L44.3636 133.424L45.4006 133.855C46.1609 134.213 46.9397 134.529 47.7337 134.804C48.5979 135.106 49.4621 135.235 50.2831 135.451C51.1324 135.707 51.9568 136.038 52.7459 136.443L54.0854 137.046L55.4248 137.521L58.1899 138.512L60.9552 139.677L63.7639 140.755L66.3562 141.79L67.6093 142.307L68.8624 142.824L70.1154 143.385L71.3686 143.946L73.8313 144.937L76.2509 145.929L77.4176 146.447L78.7138 146.835C79.4604 147.007 80.1963 147.223 80.9174 147.481C81.6246 147.762 82.3171 148.078 82.9916 148.43C83.6644 148.747 84.3572 149.021 85.0654 149.249L86.9666 149.896C88.0901 150.284 89.1269 150.802 90.0774 151.233L94.1391 152.914L96.1699 153.777C96.8613 154.079 97.5958 154.294 98.2006 154.51L99.9291 155.027L100.75 155.286L101.139 155.286L101.528 155.286C102.304 155.343 103.084 155.343 103.861 155.286C104.379 155.286 104.682 155.286 104.725 155.286C104.768 155.286 104.725 154.855 104.077 154.596C103.429 154.337 102.867 154.122 102.046 153.777L101.744 153.777L101.398 153.777L100.663 153.432L98.9783 152.699L97.1204 151.88C96.4722 151.578 95.7809 151.233 94.9599 150.931L91.0283 149.379C90.1208 148.991 89.0406 148.473 87.7444 148.042L85.8433 147.481C85.1779 147.302 84.5278 147.072 83.8988 146.791L81.7816 145.886C80.9761 145.615 80.1533 145.399 79.3188 145.239L78.2386 144.937L77.0718 144.506L74.6093 143.601L72.1462 142.695L70.8931 142.221L69.6403 141.703L68.3439 141.186L67.0478 140.712L64.4551 139.806L61.6036 138.771L58.8381 137.65L56.0727 136.615L54.7766 135.839L53.5236 135.235C52.6727 134.788 51.7919 134.399 50.8877 134.071C49.9804 133.812 49.1164 133.64 48.3819 133.381C47.6416 133.08 46.9201 132.734 46.2214 132.346L45.0981 131.872L44.0179 131.398C42.6352 130.837 41.3822 130.32 40.2587 129.932C39.2854 129.543 38.2899 129.212 37.2774 128.94C36.6302 128.742 35.9639 128.612 35.2897 128.552C34.8144 128.552 34.5119 128.595 34.4687 128.81Z" fill="#0867C5"/>
<path id="Vector_5" d="M97.9851 148.774C97.9851 148.774 97.9851 148.386 97.9851 148.084C97.7189 147.722 97.4302 147.376 97.1207 147.05C96.6767 146.559 96.2004 146.098 95.6949 145.67L93.7507 143.859L93.1891 143.341C93.0056 143.18 92.8324 143.007 92.6706 142.824C92.3044 142.4 91.9149 141.997 91.5039 141.616C91.0286 141.272 90.4669 141.013 89.9916 140.711C89.5117 140.361 89.0889 139.939 88.7384 139.46L88.0472 138.771L87.3557 138.167C86.8804 137.736 86.3621 137.348 85.8869 136.873L84.4609 135.493L83.0349 134.114L81.6956 132.863L81.0476 132.216C80.8139 132.033 80.6097 131.815 80.4426 131.569L79.8376 130.923C79.6326 130.696 79.4164 130.481 79.1896 130.276L77.9364 129.025L76.6836 127.818L76.1217 127.214C75.8959 127.004 75.6501 126.816 75.3872 126.654C74.9492 126.397 74.5304 126.109 74.1341 125.791C73.7884 125.446 73.4861 125.058 73.1404 124.67C72.8131 124.293 72.4514 123.946 72.0602 123.635L71.0232 122.816C70.4711 122.303 69.9516 121.756 69.4679 121.178L67.4369 119.151C67.0696 118.813 66.7232 118.453 66.3999 118.073C66.0617 117.746 65.7007 117.443 65.3197 117.167L64.3261 116.434L63.8939 116.133L63.6346 116.133C63.1287 115.947 62.6086 115.803 62.0792 115.701C61.6902 115.701 61.4744 115.701 61.3447 115.701C61.2151 115.701 61.3447 116.089 61.3447 116.391C61.6759 116.752 62.0372 117.084 62.4249 117.383L62.7704 117.814L63.5914 118.72C63.9371 119.022 64.1964 119.323 64.5421 119.668C64.8507 120.088 65.1977 120.478 65.5791 120.833L67.6097 122.773C68.1417 123.335 68.7042 123.868 69.2949 124.368C69.6406 124.67 70.0294 124.886 70.3751 125.145C70.7506 125.41 71.0981 125.714 71.4119 126.05C71.7506 126.43 72.1112 126.79 72.4922 127.128C72.9302 127.485 73.4089 127.789 73.9181 128.034L74.5231 128.465L75.1281 129.025L76.4242 130.19L77.7204 131.354L78.3687 131.914L79.0166 132.561L79.6649 133.208L80.3561 133.769L81.7821 134.976L83.2942 136.27L84.7201 137.649L86.1461 138.986L86.8372 139.633C87.0606 139.827 87.2634 140.044 87.4422 140.28C87.8392 140.785 88.2724 141.26 88.7384 141.703C89.2569 142.091 89.7756 142.349 90.1644 142.695C90.5466 143.061 90.9072 143.45 91.2446 143.859L91.7631 144.506L92.3247 145.023C93.0161 145.713 93.6642 146.36 94.2692 146.877L95.8679 148.171C96.2477 148.416 96.6534 148.618 97.0776 148.774C97.4664 148.774 97.6826 148.774 97.9851 148.774Z" fill="#0867C5"/>
<path id="Vector_6" d="M21.2017 82.4369L21.9295 83.0062C21.9949 83.2571 22.4666 83.3572 22.688 83.5227L23.0674 83.7811C23.1972 83.858 23.3034 83.9697 23.3742 84.1031C23.4396 84.3539 23.5268 84.6884 24.0294 84.7359C24.532 84.7834 24.5955 84.8561 24.806 84.9798C25.0026 85.1568 25.1864 85.3477 25.356 85.551L25.4432 85.8853L25.5195 86.1779C25.8526 86.4494 26.2011 86.7016 26.5631 86.9329C26.8387 87.1091 27.1311 87.2569 27.436 87.375C27.6828 87.3636 27.9244 87.3007 28.1452 87.19C28.2474 87.1608 28.3424 87.111 28.4245 87.0436C28.5065 86.9761 28.5738 86.8924 28.6223 86.7977C28.6819 86.7176 28.7236 86.6253 28.7443 86.5274C28.7648 86.4295 28.764 86.3283 28.7418 86.2307C28.6579 86.0234 28.5185 85.8434 28.3387 85.7106L27.5584 85.1104L26.5784 84.4284L26.2626 84.2429L26.1863 83.9502C26.0263 83.743 25.8294 83.567 25.6055 83.4318C25.3145 83.3472 25.0161 83.2903 24.7145 83.2621C24.4652 83.1523 24.2501 82.9771 24.092 82.7548L23.7435 82.4437L23.3751 82.2272C23.3206 82.0182 22.8072 81.929 22.5857 81.7634L21.847 81.1523C21.684 81.1082 21.5109 81.1217 21.3569 81.1906C21.2028 81.2594 21.0773 81.3798 21.0015 81.5306C20.9256 81.6817 20.9042 81.8543 20.9406 82.0195C20.9771 82.1846 21.0693 82.3319 21.2017 82.4369Z" fill="#0867C5"/>
<path id="Vector_7" d="M9.80025 72.7298L10.4664 73.4043C10.5427 73.697 10.931 73.819 11.1216 74.0373L11.4702 74.3484L11.5792 74.7663C11.6591 75.0644 11.8536 75.3187 12.1201 75.4736C12.3675 75.617 12.6239 75.7439 12.8877 75.8539C13.0554 76.053 13.2014 76.2693 13.3234 76.4993L13.4216 76.8757L13.5089 77.2104L14.4073 78.0924C14.6574 78.3203 14.9333 78.5181 15.2295 78.6816C15.447 78.7758 15.6868 78.8063 15.9208 78.7693C16.0234 78.7843 16.1279 78.7785 16.2283 78.7524C16.3286 78.7262 16.4227 78.6801 16.5049 78.617C16.6295 78.4517 16.6872 78.2453 16.6661 78.0391C16.6905 77.8171 16.6322 77.5936 16.5025 77.4118C16.321 77.1444 16.1077 76.9002 15.8672 76.6844L14.9796 75.8442L14.9142 75.5934L14.8269 75.2587C14.6875 75.0405 14.5162 74.8444 14.3187 74.677C14.0482 74.5682 13.7713 74.4765 13.4895 74.4022C13.2424 74.2625 13.046 74.0478 12.9285 73.7891L12.8304 73.413L12.4402 73.1128L11.7542 72.5326L11.1407 71.8889C10.4129 71.3197 9.22655 71.8969 9.80025 72.7298Z" fill="#0867C5"/>
<path id="Vector_8" d="M2.27843 59.7766L2.98719 62.4942C2.98416 62.8165 3.06701 63.1342 3.2271 63.4141L3.80983 64.1105C3.91531 64.3491 3.98159 64.6033 4.00608 64.863L4.20233 65.6155L4.82155 66.7937C5.00636 67.0743 5.22327 67.3326 5.46776 67.5629C5.66458 67.7132 5.88996 67.8215 6.13011 67.8814C6.23272 67.8989 6.33791 67.8944 6.43863 67.8681C6.53935 67.8418 6.63332 67.7944 6.71428 67.729C6.89115 67.6135 7.01948 67.4369 7.07506 67.2329L6.96604 66.8149L6.73702 65.9368L6.15058 64.8842L6.07428 64.5916L5.79075 63.5045L5.14645 62.9135C4.99703 62.6924 4.92776 62.4267 4.9502 62.161L4.5031 60.4467L4.27408 59.5685C3.36658 58.8227 2.23629 58.7606 2.27843 59.7766Z" fill="#0867C5"/>
<path id="Vector_9" d="M4.81122 45.0518L4.21285 45.833C3.96249 45.8983 3.90461 46.3598 3.70879 46.6341L3.50398 47.0448C3.44028 47.1992 3.33707 47.3339 3.20477 47.4355C2.94908 47.6198 2.76673 47.8889 2.68987 48.195C2.7662 48.4876 2.84253 48.7803 2.60499 49.0656C2.48808 49.3263 2.34337 49.5734 2.17346 49.803L1.9885 50.1192L2.07575 50.4537C1.91106 50.8686 1.79974 51.3028 1.74435 51.7459C1.6869 52.0857 1.687 52.4328 1.74475 52.7727C1.7343 53.0228 1.79884 53.2703 1.9301 53.4834C2.07575 53.6379 2.27547 53.73 2.48724 53.7401C2.58945 53.7683 2.6972 53.769 2.79974 53.7423C2.90227 53.7155 2.99598 53.6623 3.07138 53.5878C3.07138 53.5878 3.25633 53.2717 3.32698 53.03L3.54796 52.1686L3.82868 51.0238L3.75234 50.7311L3.89555 50.4258C4.03664 50.2098 4.14018 49.9714 4.20185 49.7207L3.99467 48.9263C3.92925 48.6755 4.18857 48.4738 4.35359 48.2522L4.61104 47.8725L4.78509 47.5145C4.88384 47.2342 5.02577 46.9714 5.2057 46.7351L5.74243 46.0593C5.80819 45.926 5.83194 45.7756 5.81058 45.6284C5.78921 45.4811 5.72375 45.344 5.62281 45.2347C5.52186 45.1255 5.39018 45.0494 5.24526 45.0168C5.10034 44.9841 4.94897 44.9963 4.81122 45.0518Z" fill="#0867C5"/>
<path id="Vector_10" d="M17.9049 38.0204L16.9871 38.2598C16.69 38.3152 16.3972 38.3916 16.1108 38.4883L15.6519 38.608C15.5182 38.6626 15.3778 38.6992 15.2345 38.7169C14.9124 38.7114 14.5951 38.7941 14.3168 38.9562C14.0247 39.0324 13.8397 39.3486 13.5893 39.4139C13.3515 39.52 13.0977 39.5862 12.8383 39.6097C12.6946 39.6252 12.554 39.6619 12.4211 39.7186L12.0873 39.8056C11.6492 39.8895 11.2171 40.0022 10.7938 40.1429C10.4903 40.3044 10.2138 40.5122 9.97405 40.7587C9.80026 40.95 9.67682 41.1814 9.61503 41.4326C9.59756 41.5354 9.60215 41.6408 9.62848 41.7417C9.6548 41.8427 9.70226 41.9369 9.76771 42.018C9.88312 42.1953 10.0594 42.3241 10.2632 42.3799C10.4693 42.3942 10.6744 42.3407 10.8473 42.2276C11.143 42.166 11.4354 42.0898 11.7235 41.9991L12.7956 41.4962L13.4632 41.3221C13.7087 41.3033 13.9489 41.2406 14.1725 41.1371C14.4145 40.9763 14.6341 40.784 14.8253 40.5652C15.0698 40.435 15.3414 40.3641 15.6182 40.3584C15.7624 40.3457 15.9034 40.309 16.0355 40.2495L16.4527 40.1407C16.7249 40.0473 17.0039 39.9745 17.2871 39.9231L18.1634 39.6946C18.2731 39.6777 18.3783 39.6393 18.4732 39.5816C18.5681 39.524 18.6507 39.4482 18.7163 39.3585C18.7819 39.2688 18.8291 39.167 18.8554 39.059C18.8817 38.9509 18.8867 38.8389 18.8697 38.729C18.8527 38.6191 18.8143 38.5134 18.7565 38.4184C18.6989 38.3233 18.6232 38.2403 18.5336 38.1745C18.4439 38.1088 18.3424 38.0615 18.2346 38.035C18.1267 38.0086 18.0147 38.0035 17.9049 38.0204Z" fill="#0867C5"/>
<path id="Vector_11" d="M32.8146 39.4862L31.9328 39.1804C31.6368 39.0914 31.3357 39.0207 31.031 38.9689L30.6137 39.0777C30.4835 39.019 30.36 38.9464 30.2453 38.8612C29.9962 38.6718 29.7034 38.5484 29.3942 38.5027C29.1021 38.5788 28.7685 38.6659 28.5597 38.7203C28.3083 38.6617 28.0697 38.5575 27.8557 38.4128L27.4564 38.249L27.1644 38.3252C26.7404 38.2091 26.3045 38.143 25.8653 38.1282C25.5329 38.1528 25.2077 38.2376 24.9056 38.3785C24.6705 38.3676 24.4378 38.4283 24.238 38.5526C24.1527 38.6171 24.0846 38.702 24.0401 38.7993C23.9954 38.8967 23.9757 39.0034 23.9824 39.1103C23.9515 39.205 23.9484 39.3065 23.9736 39.4029C23.9987 39.4993 24.051 39.5864 24.1242 39.6539C24.282 39.8046 24.4787 39.9082 24.6923 39.9524C24.6923 39.9524 25.2583 40.0726 25.6248 40.1109L26.8296 40.2878L27.1217 40.2117C27.2149 40.1727 27.3132 40.1471 27.4137 40.1355C27.646 40.2346 27.889 40.3062 28.1378 40.3487C28.435 40.2934 28.7276 40.217 29.0139 40.1202C29.2643 40.0549 29.4729 40.0006 29.7797 40.3225L30.1898 40.5278L30.6071 40.419C30.8937 40.4602 31.1775 40.5205 31.4563 40.5995L32.3382 40.9054C32.4312 40.9368 32.5295 40.9496 32.6274 40.943C32.7253 40.9364 32.8211 40.9105 32.909 40.8669C32.9969 40.8232 33.0754 40.7627 33.1399 40.6886C33.2044 40.6146 33.2537 40.5284 33.2851 40.4352C33.3162 40.342 33.3288 40.2435 33.3221 40.1453C33.3154 40.0472 33.2896 39.9514 33.2458 39.8633C33.2022 39.7751 33.1417 39.6964 33.0676 39.6318C32.9937 39.567 32.9077 39.5177 32.8146 39.4862Z" fill="#0867C5"/>
<path id="Vector_12" d="M46.8024 44.5931L45.9513 44.2345C45.68 44.0874 45.395 43.9675 45.1002 43.8763L44.7011 43.7125L44.3216 43.4541C44.1147 43.2224 43.8542 43.0449 43.563 42.9374C43.271 43.0135 42.9789 43.0897 42.7049 42.8932C42.4632 42.7795 42.2423 42.626 42.0515 42.4387L41.725 42.2113L41.4746 42.2766C41.1016 42.0627 40.7113 41.8806 40.3076 41.7325C39.9969 41.6251 39.6776 41.5438 39.3532 41.49C39.1077 41.5089 38.8674 41.5715 38.644 41.675C38.5506 41.716 38.4683 41.7786 38.4037 41.8576C38.3391 41.9365 38.294 42.0295 38.2722 42.1292C38.2566 42.2247 38.2611 42.3224 38.2855 42.416C38.31 42.5097 38.3537 42.5971 38.414 42.6728C38.5234 42.8691 38.6891 43.0282 38.8895 43.1293L39.7515 43.5297L40.9074 44.032L41.1577 43.9667C41.2769 44.0008 41.3856 44.0646 41.4736 44.1522C41.6906 44.3081 41.9323 44.4262 42.1885 44.5016C42.4847 44.5197 42.7818 44.5168 43.0775 44.4929C43.3279 44.4276 43.5711 44.6767 43.8342 44.8314C43.9399 44.9295 44.0656 45.0034 44.2026 45.0479L44.6435 45.2008C44.9295 45.2898 45.2101 45.3955 45.4838 45.5175L46.304 45.9288C46.8085 46.1544 47.6662 45.1716 46.8024 44.5931Z" fill="#0867C5"/>
<path id="Vector_13" d="M60.2726 51.4414L59.4414 50.9883C59.1815 50.826 58.9069 50.6885 58.6213 50.5773L58.2529 50.3608C58.1145 50.3095 57.9962 50.215 57.9153 50.0916C57.8498 49.8407 57.4814 49.624 57.1983 49.5639C56.9152 49.5038 56.5597 49.5073 56.3492 49.3836C56.1113 49.279 55.9017 49.1194 55.7375 48.9179C55.7315 48.8163 55.7056 48.7169 55.6612 48.6253L55.3454 48.4397C55.0046 48.1966 54.6375 47.9927 54.2512 47.832C53.9449 47.6724 53.6154 47.5629 53.275 47.5063C53.0413 47.5068 52.8115 47.5667 52.6074 47.6804C52.4102 47.7725 52.2471 47.924 52.1412 48.1142C52.1147 48.307 52.1658 48.5026 52.283 48.6579C52.3924 48.8541 52.5581 49.0133 52.7585 49.1143C53.0078 49.3092 53.276 49.4787 53.5589 49.6202L54.684 50.1752L54.9344 50.1099L55.2502 50.2954C55.4397 50.484 55.6609 50.6379 55.9034 50.7499C56.2023 50.7817 56.5031 50.7929 56.8034 50.7833C57.0537 50.718 57.2661 51.0198 57.4875 51.1853C57.5957 51.2957 57.7246 51.3835 57.8669 51.4437L58.2771 51.6494C58.5717 51.7406 58.8567 51.8608 59.128 52.0079L59.9175 52.4719C60.012 52.4317 60.0969 52.3722 60.1668 52.2971C60.2367 52.222 60.2903 52.133 60.3237 52.0359C60.3571 51.9388 60.3699 51.8356 60.361 51.7332C60.3523 51.6307 60.3222 51.5315 60.2726 51.4414Z" fill="#0867C5"/>
<path id="Vector_14" d="M73.5083 57.4562L72.688 57.0453L71.8677 56.6339L71.4576 56.4283L71.1201 56.1591C70.9194 55.9362 70.6754 55.7568 70.4032 55.6318C70.1182 55.6314 69.8351 55.5844 69.5649 55.493C69.3271 55.3885 69.1175 55.2289 68.9533 55.0273L68.8769 54.7346L68.5611 54.5491L67.4251 53.9525C67.1254 53.8303 66.8166 53.7317 66.5016 53.6575C66.2571 53.6827 66.018 53.745 65.7923 53.8425C65.6025 53.9249 65.4509 54.0759 65.3679 54.2656C65.3493 54.3609 65.3523 54.4593 65.3769 54.5535C65.4014 54.6475 65.4469 54.7349 65.5097 54.8091C65.619 55.0055 65.7846 55.1645 65.9851 55.2655C66.2497 55.4568 66.5316 55.6225 66.8272 55.7606L67.9523 56.3156L68.2027 56.2503L68.5185 56.4358C68.7215 56.6088 68.9529 56.7448 69.2027 56.8379C69.4867 56.8796 69.7741 56.8944 70.0608 56.882C70.3342 56.9424 70.5856 57.0779 70.7867 57.2733C70.8948 57.3836 71.0238 57.4712 71.166 57.5312L71.607 57.6842C71.607 57.6842 72.1532 57.899 72.4163 58.0536L73.2584 58.5487C73.3529 58.4997 73.4357 58.4306 73.5009 58.3464C73.5661 58.2622 73.6121 58.1646 73.6361 58.0607C73.6598 57.9567 73.6607 57.8488 73.6386 57.7445C73.6165 57.64 73.572 57.5417 73.5083 57.4562Z" fill="#0867C5"/>
<path id="Vector_15" d="M87.2527 62.4858L86.3818 62.2218C86.1035 62.1182 85.8153 62.0439 85.5217 61.9997L85.1462 62.0976L84.7778 61.8811C84.5686 61.6761 84.2997 61.5428 84.0102 61.5008C83.7543 61.5984 83.4885 61.6677 83.2174 61.7076C82.9804 61.6092 82.763 61.4694 82.575 61.2945C82.575 61.2945 82.5204 61.0855 82.2484 61.0671L81.9978 61.1324L80.842 60.6302C80.5341 60.5351 80.2184 60.468 79.8985 60.4298C79.6502 60.4303 79.4061 60.494 79.1893 60.6148C78.9985 60.7129 78.851 60.8785 78.7757 61.0797C78.7601 61.1752 78.7646 61.2729 78.789 61.3664C78.8134 61.4601 78.8572 61.5476 78.9174 61.6232C79.0288 61.8308 79.2132 61.9895 79.4347 62.0689C79.7046 62.2371 79.9942 62.3717 80.2968 62.4693L81.4417 62.9296L81.7339 62.8534L81.9841 62.7881C82.2012 62.9441 82.4429 63.0622 82.699 63.1375C83.001 63.1053 83.2963 63.0283 83.5754 62.909C83.8674 62.8328 84.0998 63.0404 84.3937 63.1424C84.5155 63.2374 84.655 63.3072 84.8039 63.348L85.2212 63.2392C85.5258 63.2908 85.8269 63.3614 86.1228 63.4503L87.0465 63.7452C87.6671 64.0746 88.1782 62.9588 87.2527 62.4858Z" fill="#0867C5"/>
<path id="Vector_16" d="M99.7927 58.4582C99.6426 58.7151 99.4664 58.9555 99.2669 59.1759C99.0582 59.2304 98.9368 59.6191 98.7191 59.8099L98.44 60.1062C98.3206 60.1582 98.1939 60.1913 98.0645 60.2042C97.7906 60.2289 97.5227 60.2988 97.2717 60.4109C97.1449 60.6347 96.9887 60.8406 96.8075 61.0231C96.5977 61.1224 96.3713 61.1814 96.1398 61.1972C96.0102 61.2093 95.8834 61.2424 95.7644 61.2951L95.4724 61.3713L94.3457 61.6651C94.0475 61.715 93.7541 61.7915 93.4695 61.8936C93.277 62.026 93.109 62.1907 92.9725 62.3805C92.8727 62.5667 92.8346 62.7797 92.864 62.989C92.8454 63.0845 92.8484 63.1829 92.873 63.2769C92.8975 63.3711 92.943 63.4585 93.0058 63.5327C93.2211 63.6346 93.4632 63.6654 93.6971 63.6202C94.0232 63.5633 94.3442 63.4796 94.6567 63.37C95.0739 63.2612 95.4912 63.1523 95.9918 63.0218L96.3257 62.9347C96.3257 62.9347 96.576 62.8694 96.7012 62.8368C96.9913 62.8224 97.2755 62.7483 97.5357 62.6191C97.7563 62.3897 97.9436 62.1305 98.0924 61.849C98.2776 61.6113 98.5204 61.425 98.7978 61.3077C98.9561 61.2915 99.111 61.2511 99.2568 61.188L99.5669 60.8392L100.207 60.0471L100.805 59.2658C100.829 59.135 100.817 58.9999 100.771 58.8752C100.724 58.7506 100.645 58.6411 100.541 58.5582C100.437 58.4751 100.312 58.422 100.18 58.4043C100.049 58.3868 99.9146 58.4054 99.7927 58.4582Z" fill="#0867C5"/>
<path id="Vector_17" d="M98.3749 44.9867L98.8124 45.8101L99.0305 46.6463L99.1396 47.0647L99.2486 47.4825C99.2361 47.7769 99.3121 48.0683 99.4667 48.3189C99.6623 48.5069 99.8363 48.7159 99.9858 48.9426C100.068 49.1737 100.13 49.4114 100.171 49.6531L100.258 49.9878L100.346 50.3223L100.64 51.4512L100.88 52.3709C100.988 52.5785 101.128 52.7682 101.294 52.9328C101.459 53.0578 101.665 53.1155 101.871 53.0947C101.974 53.1153 102.079 53.1125 102.181 53.0861C102.282 53.0597 102.376 53.0105 102.455 52.9424C102.585 52.7482 102.635 52.5114 102.595 52.2811C102.564 51.949 102.479 51.6241 102.344 51.3193L102.006 50.0232L101.82 49.3124C101.794 49.0382 101.724 48.77 101.613 48.5182C101.427 48.2705 101.218 48.0408 100.989 47.8325C100.853 47.5741 100.778 47.288 100.771 46.9962L100.651 46.5364L100.531 46.0766C100.348 45.8197 100.188 45.5477 100.051 45.2638L99.8115 44.344C99.7264 44.1532 99.5687 44.0038 99.3738 43.9289C99.1788 43.8542 98.9622 43.8602 98.7717 43.9454C98.5812 44.0305 98.4323 44.188 98.3579 44.3833C98.2836 44.5786 98.2896 44.7957 98.3749 44.9867Z" fill="#0867C5"/>
<path id="Vector_18" d="M90.417 32.4161L90.6569 33.3361L90.8968 34.2558L91.0167 34.7156L91.1367 35.1757C91.1093 35.5007 91.1939 35.8253 91.3766 36.0954C91.4528 36.388 91.8411 36.51 91.9791 36.6974C92.0892 36.9496 92.1591 37.2176 92.1862 37.4916L92.2844 37.868L92.3826 38.2445C92.5918 38.6346 92.8374 39.0041 93.1161 39.3481C93.3451 39.6051 93.5999 39.838 93.8766 40.0428C94.0915 40.1843 94.3435 40.2583 94.6004 40.2557C94.7031 40.2708 94.8077 40.2648 94.9081 40.2387C95.0084 40.2125 95.1024 40.1666 95.1847 40.1033C95.2661 40.0442 95.3327 39.9667 95.3789 39.8771C95.4252 39.7875 95.4498 39.6883 95.4512 39.5875C95.4546 39.3674 95.398 39.1505 95.2876 38.9602C95.1519 38.6854 94.9803 38.4297 94.7775 38.2001L94.0767 37.2222L94.0004 36.9295L93.9131 36.5948L93.7278 35.8843C93.6623 35.6333 93.2432 35.5638 93.0526 35.3457C92.9687 35.2412 92.908 35.1202 92.8741 34.9905C92.8403 34.8608 92.8342 34.7253 92.8564 34.5931L92.7474 34.1751L92.6383 33.7569C92.5424 33.4847 92.4695 33.2052 92.4202 32.9209L92.2022 32.0847C92.158 31.8475 92.0216 31.6374 91.823 31.5008C91.6244 31.3642 91.3798 31.312 91.143 31.356C90.9063 31.4 90.697 31.5364 90.5607 31.7352C90.4245 31.934 90.3728 32.179 90.417 32.4161Z" fill="#0867C5"/>
<path id="Vector_19" d="M96.6182 19.4547L95.6584 19.705C95.378 19.8467 95.1071 20.0068 94.8477 20.1843L94.4304 20.2931C94.4304 20.2931 94.1383 20.3693 93.9714 20.4128C93.6483 20.4964 93.3538 20.6658 93.1189 20.9031C92.8687 20.9684 92.8217 21.4719 92.6458 21.6517C92.4562 21.8587 92.2267 22.0249 91.9711 22.1403C91.8504 22.1885 91.7244 22.2214 91.5956 22.2382L91.3688 22.5652C91.0653 22.9114 90.8059 23.2939 90.5965 23.7042C90.435 24.0377 90.3325 24.3969 90.294 24.7656C90.275 25.0312 90.344 25.2957 90.4903 25.5181C90.5363 25.6082 90.6002 25.6879 90.6784 25.752C90.7564 25.8162 90.8469 25.8634 90.9439 25.891C91.0466 25.9059 91.151 25.9002 91.2514 25.874C91.3517 25.8478 91.4459 25.8018 91.5282 25.7386C91.69 25.623 91.8183 25.4662 91.8999 25.2843L92.3314 24.5469L92.9279 23.5876L93.1782 23.5223L93.4286 23.457C93.6408 23.3441 93.8277 23.1889 93.978 23.0011C94.1867 22.9467 94.1502 22.4649 94.2624 22.2123C94.4254 22.0021 94.651 21.8495 94.9064 21.7765C94.9064 21.7765 95.1568 21.7111 95.3237 21.6676L95.6574 21.5806C95.8765 21.3873 96.1169 21.2197 96.3739 21.0811L97.2084 20.8635C97.3948 20.7853 97.5426 20.6361 97.6191 20.4487C97.6954 20.2613 97.6945 20.0511 97.6163 19.8643C97.5378 19.6775 97.3887 19.5292 97.2016 19.4524C97.0144 19.3756 96.8046 19.3764 96.6182 19.4547Z" fill="#0867C5"/>
<path id="Vector_20" d="M108.375 11.9081C108.162 12.1225 107.934 12.3214 107.693 12.5036C107.466 12.7021 107.238 12.9007 107.011 13.0992L106.686 13.3828C106.6 13.4798 106.502 13.5655 106.394 13.638C106.087 13.6785 105.795 13.795 105.545 13.9773C105.352 14.171 105.146 14.351 104.928 14.5161C104.702 14.6285 104.459 14.7047 104.21 14.7419C104.128 14.8234 104.041 14.8992 103.95 14.9688L103.69 15.1956C103.303 15.3751 102.931 15.5848 102.577 15.8228C102.289 15.9907 102.035 16.2121 101.83 16.475C101.658 16.6652 101.546 16.9024 101.509 17.1566C101.483 17.2569 101.479 17.3619 101.499 17.464C101.519 17.5659 101.561 17.6622 101.623 17.7456C101.646 17.8407 101.691 17.9289 101.756 18.0026C101.82 18.0763 101.901 18.1334 101.992 18.1688C102.21 18.1987 102.43 18.1487 102.613 18.0281C102.911 17.9246 103.197 17.7905 103.466 17.6278L104.579 17.0007L104.839 16.7738L105.098 16.547C105.341 16.4653 105.573 16.3583 105.793 16.2276C105.99 15.9874 106.17 15.734 106.333 15.4693C106.499 15.2487 106.709 15.0652 106.95 14.9306C107.069 14.8493 107.178 14.7541 107.275 14.6471L107.632 14.3351C107.857 14.1128 108.096 13.9044 108.347 13.7113L109.061 13.0874C109.152 12.9718 109.205 12.832 109.215 12.6855C109.225 12.5392 109.191 12.3931 109.117 12.2662C109.044 12.1392 108.933 12.0372 108.801 11.9735C108.669 11.9096 108.521 11.8869 108.375 11.9081Z" fill="#0867C5"/>
<path id="Vector_21" d="M44.8833 101.164L45.5744 101.768L46.2659 102.414L46.5684 102.716L46.9571 102.716C47.2499 102.832 47.5148 103.009 47.7348 103.234C47.7348 103.234 47.9509 103.751 48.1238 103.967C48.3333 104.13 48.5663 104.261 48.8151 104.355L49.1176 104.355L49.4199 104.355C49.7561 104.62 50.0736 104.909 50.3704 105.217C50.6116 105.443 50.8158 105.705 50.9754 105.993C51.0304 106.22 51.0304 106.457 50.9754 106.683C50.9729 106.789 50.9488 106.894 50.9043 106.99C50.8596 107.087 50.7956 107.173 50.7163 107.244C50.6538 107.322 50.5749 107.385 50.4854 107.43C50.3959 107.475 50.2978 107.499 50.1978 107.503C49.9669 107.476 49.7528 107.369 49.5928 107.201C49.3254 107.045 49.0788 106.857 48.8583 106.64L47.9508 105.778L47.6916 105.519L47.3891 105.303C47.1673 105.173 46.9639 105.013 46.7844 104.829C46.6433 104.568 46.5274 104.293 46.4386 104.01C46.2853 103.771 46.0574 103.589 45.7904 103.492L45.4018 103.234L45.0993 102.889L44.4943 102.242L43.7598 101.638C43.7826 101.52 43.8343 101.409 43.9101 101.316C43.9859 101.223 44.0836 101.149 44.1946 101.102C44.3056 101.055 44.4266 101.036 44.5468 101.047C44.6668 101.058 44.7824 101.098 44.8833 101.164Z" fill="#0867C5"/>
<path id="Vector_22" d="M34.0812 91.0304L34.7725 91.634C35.0317 91.634 35.2478 92.0653 35.4638 92.2378L35.7663 92.5396L36.1552 92.5396C36.4535 92.6448 36.7208 92.8226 36.9328 93.057C36.9328 93.057 37.1922 93.6176 37.365 93.7901C37.5652 93.9441 37.7825 94.0744 38.013 94.1781C38.127 94.1549 38.2447 94.1549 38.3588 94.1781L38.6612 94.1781L39.6117 94.9973C39.8423 95.2323 40.0453 95.4928 40.2167 95.7736C40.2722 96.0148 40.2722 96.2654 40.2167 96.5066C40.2142 96.6128 40.1898 96.7173 40.1452 96.8137C40.1007 96.9101 40.0368 96.9963 39.9575 97.0671C39.8787 97.1125 39.7892 97.1364 39.6982 97.1364C39.6072 97.1364 39.5178 97.1125 39.439 97.0671C39.2128 97.0555 38.9983 96.9638 38.834 96.8084L38.0995 96.248L37.1488 95.3856L37.1488 95.1268L36.8467 95.1268C36.6108 94.9973 36.393 94.8378 36.1983 94.6525C36.0572 94.391 35.9413 94.1166 35.8527 93.8331C35.6845 93.6081 35.4615 93.4299 35.2047 93.3157C35.0647 93.2685 34.9435 93.178 34.859 93.057L34.5565 92.7552L33.9082 92.1083L33.1738 91.5047C33.2333 91.3234 33.3613 91.1723 33.5308 91.0837C33.7003 90.9951 33.8978 90.976 34.0812 91.0304Z" fill="#0867C5"/>
<path id="Vector_23" d="M108.934 0.454047C108.978 0.753034 109.001 1.05464 109.003 1.35687C109.026 1.65781 109.049 1.95892 109.072 2.25986L109.105 2.68989C109.131 2.81708 109.141 2.94701 109.134 3.07685C108.983 3.34689 108.902 3.65027 108.898 3.95974C108.938 4.23023 108.959 4.50316 108.96 4.77655C108.915 5.02502 108.831 5.26494 108.711 5.48743C108.728 5.60151 108.736 5.71635 108.737 5.83146L108.764 6.17532C108.676 6.5927 108.621 7.01624 108.6 7.44204C108.562 7.77345 108.588 8.10903 108.675 8.43087C108.725 8.68263 108.848 8.91409 109.03 9.09577C109.094 9.17703 109.176 9.24278 109.27 9.28815C109.363 9.33337 109.466 9.35705 109.569 9.3573C109.659 9.39596 109.757 9.41217 109.855 9.40473C109.952 9.3973 110.047 9.36643 110.13 9.31461C110.284 9.15835 110.376 8.95166 110.389 8.73283C110.484 8.43255 110.547 8.12335 110.578 7.81014L110.742 6.54358L110.715 6.19956L110.689 5.85569C110.769 5.61278 110.822 5.36235 110.849 5.1083C110.774 4.8068 110.679 4.51051 110.565 4.22173C110.487 3.95678 110.466 3.67855 110.502 3.40491C110.509 3.26076 110.498 3.11642 110.47 2.97505L110.434 2.50209C110.39 2.18854 110.366 1.87268 110.362 1.55618L110.289 0.610269C110.251 0.468688 110.171 0.342115 110.06 0.246426C109.948 0.150903 109.811 0.0907023 109.665 0.0739859C109.519 0.0571053 109.372 0.0843556 109.241 0.152122C109.111 0.21989 109.004 0.325051 108.934 0.454047Z" fill="#0867C5"/>
</g>
</svg>
