<svg width="27" height="26" viewBox="0 0 27 26" fill="none" xmlns="http://www.w3.org/2000/svg">
<path d="M26.3333 4C26.3333 1.79086 24.5425 0 22.3333 0H4.33331C2.12417 0 0.333313 1.79086 0.333313 4V22C0.333313 24.2091 2.12417 26 4.33331 26H22.3333C24.5425 26 26.3333 24.2091 26.3333 22V4Z" fill="#F00073"/>
<path d="M13.3329 7.4751C15.1204 7.4751 15.3642 7.4751 16.0954 7.4751C16.7454 7.4751 17.0704 7.6376 17.3142 7.71885C17.6392 7.88135 17.8829 7.9626 18.1267 8.20635C18.3704 8.4501 18.5329 8.69385 18.6142 9.01885C18.6954 9.2626 18.7767 9.5876 18.8579 10.2376C18.8579 10.9688 18.8579 11.1313 18.8579 13.0001C18.8579 14.8688 18.8579 15.0313 18.8579 15.7626C18.8579 16.4126 18.6954 16.7376 18.6142 16.9813C18.4517 17.3063 18.3704 17.5501 18.1267 17.7938C17.8829 18.0376 17.6392 18.2001 17.3142 18.2813C17.0704 18.3626 16.7454 18.4438 16.0954 18.5251C15.3642 18.5251 15.2017 18.5251 13.3329 18.5251C11.4642 18.5251 11.3017 18.5251 10.5704 18.5251C9.92042 18.5251 9.59542 18.3626 9.35167 18.2813C9.02667 18.1188 8.78292 18.0376 8.53917 17.7938C8.29542 17.5501 8.13292 17.3063 8.05167 16.9813C7.97042 16.7376 7.88917 16.4126 7.80792 15.7626C7.80792 15.0313 7.80792 14.8688 7.80792 13.0001C7.80792 11.1313 7.80792 10.9688 7.80792 10.2376C7.80792 9.5876 7.97042 9.2626 8.05167 9.01885C8.21417 8.69385 8.29542 8.4501 8.53917 8.20635C8.78292 7.9626 9.02667 7.8001 9.35167 7.71885C9.59542 7.6376 9.92042 7.55635 10.5704 7.4751C11.3017 7.4751 11.5454 7.4751 13.3329 7.4751ZM13.3329 6.25635C11.4642 6.25635 11.3017 6.25635 10.5704 6.25635C9.83917 6.25635 9.35167 6.41885 8.94542 6.58135C8.53917 6.74385 8.13292 6.9876 7.72667 7.39385C7.32042 7.8001 7.15792 8.1251 6.91417 8.6126C6.75167 9.01885 6.67042 9.50635 6.58917 10.2376C6.58917 10.9688 6.58917 11.2126 6.58917 13.0001C6.58917 14.8688 6.58917 15.0313 6.58917 15.7626C6.58917 16.4938 6.75167 16.9813 6.91417 17.3876C7.07667 17.7938 7.32042 18.2001 7.72667 18.6063C8.13292 19.0126 8.45792 19.1751 8.94542 19.4188C9.35167 19.5813 9.83917 19.6626 10.5704 19.7438C11.3017 19.7438 11.5454 19.7438 13.3329 19.7438C15.1204 19.7438 15.3642 19.7438 16.0954 19.7438C16.8267 19.7438 17.3142 19.5813 17.7204 19.4188C18.1267 19.2563 18.5329 19.0126 18.9392 18.6063C19.3454 18.2001 19.5079 17.8751 19.7517 17.3876C19.9142 16.9813 19.9954 16.4938 20.0767 15.7626C20.0767 15.0313 20.0767 14.7876 20.0767 13.0001C20.0767 11.2126 20.0767 10.9688 20.0767 10.2376C20.0767 9.50635 19.9142 9.01885 19.7517 8.6126C19.5892 8.20635 19.3454 7.8001 18.9392 7.39385C18.5329 6.9876 18.2079 6.8251 17.7204 6.58135C17.3142 6.41885 16.8267 6.3376 16.0954 6.25635C15.3642 6.25635 15.2017 6.25635 13.3329 6.25635Z" fill="white"/>
<path d="M13.3329 9.50635C11.3829 9.50635 9.83917 11.0501 9.83917 13.0001C9.83917 14.9501 11.3829 16.4938 13.3329 16.4938C15.2829 16.4938 16.8267 14.9501 16.8267 13.0001C16.8267 11.0501 15.2829 9.50635 13.3329 9.50635ZM13.3329 15.2751C12.1142 15.2751 11.0579 14.3001 11.0579 13.0001C11.0579 11.7813 12.0329 10.7251 13.3329 10.7251C14.5517 10.7251 15.6079 11.7001 15.6079 13.0001C15.6079 14.2188 14.5517 15.2751 13.3329 15.2751Z" fill="white"/>
<path d="M16.9079 10.2376C17.3567 10.2376 17.7204 9.87383 17.7204 9.4251C17.7204 8.97637 17.3567 8.6126 16.9079 8.6126C16.4592 8.6126 16.0954 8.97637 16.0954 9.4251C16.0954 9.87383 16.4592 10.2376 16.9079 10.2376Z" fill="white"/>
</svg>
