<svg width="53" height="35" viewBox="0 0 53 35" fill="none" xmlns="http://www.w3.org/2000/svg">
<path d="M18.8781 17.5506C17.6657 17.5914 17.7068 16.0633 17.3214 12.629C16.6639 6.80284 17.0801 7.49279 18.7085 7.43138C19.3816 7.411 20.5066 6.02092 22.1095 6.79775C24.9555 8.15203 24.935 15.5217 20.0751 14.3564C18.7958 14.0498 20.5631 17.4892 18.8781 17.5506ZM20.3987 8.62732C17.753 8.7142 20.0031 14.6171 21.4673 12.0412C22.1095 10.9322 21.6573 8.58133 20.3987 8.62732Z" fill="white"/>
<path d="M28.1415 16.641C26.5747 16.6971 28.1108 14.8421 28.383 13.8812C28.532 13.3497 27.5662 13.687 26.7186 13.1249C25.4445 12.2919 24.2373 7.51335 25.3469 6.78252C27.0062 5.68378 26.9395 11.2595 28.193 11.2135C29.7136 11.1623 28.717 7.268 29.6879 6.48608C32.2103 4.48784 31.4243 16.5388 28.1415 16.641Z" fill="white"/>
<path d="M37.8304 13.7274C37.4246 13.7428 36.9673 13.4361 36.8698 12.7156C36.8286 12.3986 36.7362 9.95579 36.6334 9.414C36.4998 8.72928 36.1711 8.36635 35.7909 8.49412C35.6214 8.5503 35.2874 8.80074 34.9329 9.83311C34.8456 10.0836 34.5065 12.1738 34.4347 12.4344C34.2343 13.1858 33.998 13.5895 33.6692 13.7376C33.5716 13.7836 33.4688 13.8092 33.361 13.8092C33.0116 13.8194 32.7137 13.5895 32.5801 13.3492C32.3592 12.9762 32.3695 12.3782 32.4157 11.9387C32.4208 11.8877 32.5801 9.34763 32.611 9.11769C32.7599 8.01373 32.9808 7.50774 33.3456 7.45666C33.8387 7.39029 33.9929 7.19092 34.224 7.03754C34.296 6.99155 35.3285 6.32212 35.868 6.24034C36.6796 6.11766 37.3475 6.51117 37.7533 6.8383C38.0564 7.08353 38.1951 7.19092 38.3955 7.20111C38.5444 7.19601 39.2842 6.64913 39.3921 6.57767C39.7774 6.32212 40.2295 6.17906 40.7072 6.16365C41.2056 6.14836 41.6165 6.27104 41.8374 6.39881C42.305 6.66455 42.8187 7.44646 42.9368 8.075C43.0292 8.5759 43.3683 11.5656 43.3734 12.1789C43.3787 12.7461 43.3067 13.4106 42.6594 13.5435C42.2381 13.6354 41.6423 13.3032 41.4676 12.552C41.3957 12.2198 41.0977 9.89451 41.0977 9.89451C41.0566 9.59298 40.8152 8.75476 40.3939 8.72406C40.101 8.73438 39.762 9.14317 39.5873 9.52139C39.4537 9.79732 39.0171 12.3577 38.9246 12.6082C38.6831 13.2317 38.5342 13.6047 37.9486 13.7121C37.9075 13.7223 37.8664 13.7274 37.8304 13.7274Z" fill="white"/>
<path d="M8.6393 17.1981C7.78659 17.2287 7.41665 16.4775 7.34481 16.1861L7.35505 16.181C7.30371 16.0431 7.23686 15.8182 7.12904 15.4451C7.03134 15.3684 6.87729 15.2713 6.70775 15.2662C6.15289 15.256 4.89938 15.0005 4.10827 14.6887C2.18182 13.9171 1.70918 13.3497 1.29308 12.8489C1.22115 12.7671 1.15437 12.6853 1.08244 12.6035C0.250213 11.6989 -0.129951 10.4622 0.0395786 9.20503C0.203973 7.96311 0.907778 6.93583 1.55507 6.49634C1.47801 6.44525 1.4061 6.37876 1.34444 6.29697C1.05676 5.92907 0.984841 4.9274 2.0277 3.82345C2.91644 2.87286 3.73327 2.49464 4.32916 2.21872C4.62714 2.08075 4.94561 1.99387 5.25396 1.91209C5.47485 1.85069 5.69062 1.79451 5.91151 1.71272C6.31731 1.56966 6.38928 1.14546 6.40465 0.971697L6.43038 0.874625C6.68726 0.348251 7.05707 0.0416244 7.468 0.00582786L7.54509 0.000732636C8.19752 -0.0197771 8.5366 0.394238 8.62905 0.751949C8.71639 1.09437 9.0401 1.30903 9.66679 1.4368L10.0726 1.52368C11.9992 1.92738 12.333 2.13693 13.4529 2.84739L13.8178 3.08751C15.0198 3.83873 15.7442 5.7706 15.9086 6.58322C16.0575 7.34476 16.1911 8.55075 15.6004 10.2476C15.0866 11.7245 14.2749 12.5065 13.7356 13.0226C12.5436 14.1623 10.7713 14.7501 10.1908 14.8829C9.99051 14.9289 9.92367 15.1436 9.82609 16.0276C9.78499 16.4059 9.7079 17.106 8.75749 17.1878C8.72151 17.1929 8.6804 17.1981 8.6393 17.1981ZM2.79829 6.09264C3.1733 6.09264 3.39934 6.2357 3.50209 6.32768C3.70758 6.50653 3.75895 6.78768 3.64593 7.0994C3.60998 7.19647 3.52265 7.29877 3.37366 7.45711C3.10652 7.74845 2.93699 8.35661 2.79315 8.96987C2.64931 9.59344 2.87022 10.6513 3.27092 11.2391C3.65107 11.7961 3.84115 11.9801 4.56555 12.2867C5.24359 12.573 6.09642 12.6546 6.48173 12.6444L6.55882 12.6393C6.73861 12.624 6.87217 12.5677 6.95438 12.4758C7.05195 12.3634 7.08794 12.1947 7.0622 11.9647C7.01085 11.5099 6.99548 10.871 6.97487 10.2016C6.9595 9.68032 6.944 9.13853 6.91327 8.64795C6.84131 7.52871 6.62041 5.23913 6.54333 4.80982C6.47661 4.4316 6.38416 4.38052 6.29682 4.33453C6.19912 4.27836 6.05019 4.25275 5.86529 4.26294C5.56731 4.27326 5.27957 4.36014 5.15626 4.41122C4.31892 4.73823 3.98496 4.9683 3.80517 5.11136C3.34797 5.45888 3.11679 5.70423 2.79829 6.09264ZM9.92367 4.08918C9.67192 4.0995 9.6052 4.20676 9.45103 4.54409C9.28661 4.8967 9.2455 6.03124 9.32259 7.91712L9.32771 7.9989C9.35857 8.76541 9.56922 11.0704 9.68741 11.4383C9.81585 11.8421 9.87744 12.0312 10.2679 12.1282C10.5556 12.1998 10.9357 12.0516 11.4597 11.6684C12.6156 10.825 13.1756 9.7314 13.34 8.004C13.4478 6.83367 12.7594 5.55085 12.0351 4.98868C11.1514 4.30383 10.5966 4.13517 10.0367 4.09428C9.99564 4.08918 9.95965 4.08409 9.92367 4.08918Z" fill="white"/>
<path d="M43.8504 32.3453C41.852 31.5378 44.4464 29.928 45.3197 27.945C45.7769 26.9076 45.5355 26.7696 44.7855 26.514C42.448 25.7117 41.9085 23.8924 42.746 21.521C44.2768 17.1411 51.1762 16.8855 51.7207 20.7544C51.7258 20.8055 52.9537 28.4817 52.9896 28.9007C53.154 30.7917 51.3149 30.6844 51.6591 30.6741C49.5117 30.761 50.5751 26.6725 49.3627 26.7236C47.1692 26.8105 46.789 33.5309 43.8504 32.3453ZM46.8044 20.4069C44.693 21.0763 44.508 25.865 48.027 24.5516C51.0889 23.4068 49.635 19.5074 46.8044 20.4069Z" fill="white"/>
<path d="M39.1898 32.7756C36.7701 32.8676 38.8045 27.44 37.7154 26.5355C36.9448 25.8865 33.174 26.1931 32.8402 26.3412C30.8572 27.2253 32.4549 32.612 30.2716 32.6989C28.4067 32.7603 28.941 29.9954 29.3468 25.1198C29.6705 21.251 29.2594 18.4044 31.2065 18.2306C33.2151 18.108 31.3144 23.0858 32.496 23.6684C33.472 24.1538 35.5886 24.0619 36.7908 23.7552C38.0905 23.4231 38.3832 22.038 38.3832 20.7348C38.3832 17.8525 39.0716 17.5305 39.385 17.4538C40.7618 17.1063 40.8851 19.9836 40.7567 22.2221C40.1967 32.1316 40.8234 32.7142 39.1898 32.7756Z" fill="white"/>
<path d="M18.0612 32.6731C15.3283 32.7803 19.176 28.8093 19.4637 28.4107C20.2753 27.2762 19.9722 27.2353 19.2891 26.8111C17.1622 25.5028 17.1622 23.5862 18.5184 21.5113C21.0922 17.5353 27.8426 18.726 27.4316 22.6612C27.4265 22.7123 26.7587 30.4295 26.6867 30.8741C26.3271 33.1278 23.8612 32.6167 24.0718 30.5776C24.5085 26.438 22.4381 28.3698 19.9569 31.6765C19.6282 32.1109 19.0938 32.6271 18.0612 32.6731ZM22.0632 21.634C19.5305 22.2626 20.1829 26.0904 22.8697 25.6408C25.8236 25.1451 24.7345 20.9696 22.0632 21.634Z" fill="white"/>
<path d="M5.80331 34.9986C3.94871 35.0702 5.18174 32.4996 2.68498 21.0363C2.10447 18.3839 4.45734 17.8524 5.00707 20.004C5.76732 22.963 6.168 24.9204 6.7331 25.1044C7.80682 25.452 10.0312 24.9664 11.218 24.4451C13.5143 23.4383 11.2847 17.4231 13.1496 17.0347C14.7267 16.6923 14.7524 19.084 15.4922 25.922C15.9904 30.5779 17.4341 33.5319 15.2199 33.6136C12.6821 33.6801 14.588 26.8726 11.5878 26.9953C11.069 27.0158 10.7043 27.118 9.92341 27.2662C8.42839 27.5524 6.97973 27.6903 6.92326 29.2798C6.86666 31.089 7.71949 34.9322 5.80331 34.9986Z" fill="white"/>
<path d="M48.9214 6.14345C46.8972 5.62217 45.1095 6.84868 44.4673 9.46527C43.8252 12.082 44.7139 13.7532 46.7585 14.2387C48.8083 14.7242 50.9762 13.237 51.4335 10.5283C51.8958 7.82487 50.442 6.53696 48.9214 6.14345ZM49.3683 10.5283C49.096 11.8061 48.1148 12.5982 47.2414 12.2864C46.363 11.9747 46.101 11.1979 46.4657 9.8589C46.8305 8.51991 47.4521 7.88105 48.4796 8.01901C49.4607 8.15698 49.6458 9.25075 49.3683 10.5283Z" fill="white"/>
</svg>
