<svg width="26" height="26" viewBox="0 0 26 26" fill="none" xmlns="http://www.w3.org/2000/svg">
<g id="ok">
<rect id="bg" width="26" height="26" rx="4" fill="#FF8800"/>
<g id="ok_2">
<path fill-rule="evenodd" clip-rule="evenodd" d="M16.962 9.31958C16.962 11.4883 15.194 13.2563 13.0251 13.2563C10.8329 13.2563 9.06484 11.4883 9.06484 9.31958C9.06484 7.15082 10.8329 5.38281 13.0251 5.38281C15.194 5.38281 16.962 7.15082 16.962 9.31958ZM14.6518 9.31958C14.6518 8.42379 13.9209 7.69301 13.0251 7.69301C12.1058 7.69301 11.375 8.42379 11.3986 9.31958C11.3986 10.2154 12.1294 10.9461 13.0251 10.9461C13.9209 10.9461 14.6518 10.2154 14.6518 9.31958Z" fill="white"/>
<path d="M16.8912 15.543C16.184 15.9909 15.4061 16.2973 14.6046 16.4859L16.8441 18.6547C17.292 19.1026 17.292 19.8333 16.8441 20.2813C16.3963 20.7292 15.6654 20.7292 15.2176 20.2813L13.0488 18.1125L10.88 20.2813C10.6443 20.4934 10.3614 20.6113 10.055 20.6113C9.7485 20.6113 9.46562 20.517 9.22988 20.2813C8.78198 19.8333 8.78198 19.1026 9.22988 18.6547L11.4222 16.4623C10.6207 16.2737 9.84279 15.9674 9.13559 15.5194C8.59339 15.1894 8.42838 14.4822 8.73483 13.94C9.08844 13.3978 9.79565 13.2564 10.3378 13.5864C11.9408 14.6001 14.0388 14.6001 15.6418 13.5864C16.184 13.2328 16.9148 13.3978 17.2448 13.94C17.5984 14.4822 17.4334 15.2129 16.8912 15.543Z" fill="white"/>
</g>
</g>
</svg>
