<svg width="18" height="17" viewBox="0 0 18 17" fill="none" xmlns="http://www.w3.org/2000/svg">
<path d="M16.1433 16.9282L9.94603 10.7282C9.45253 11.1411 8.88336 11.4596 8.23853 11.6837C7.5937 11.9077 6.93345 12.0197 6.25778 12.0197C4.58361 12.0197 3.16878 11.4417 2.01328 10.2857C0.857779 9.12975 0.280029 7.71725 0.280029 6.04825C0.280029 4.37925 0.857113 2.96591 2.01128 1.80825C3.16561 0.650581 4.57811 0.0717468 6.24878 0.0717468C7.91945 0.0717468 9.3337 0.650248 10.4915 1.80725C11.6492 2.96441 12.228 4.37833 12.228 6.049C12.228 6.7475 12.1107 7.42041 11.876 8.06775C11.6414 8.71525 11.3282 9.27591 10.9365 9.74975L17.1365 15.935L16.1433 16.9282ZM6.25403 10.6207C7.53403 10.6207 8.61653 10.1789 9.50153 9.29525C10.3865 8.41141 10.829 7.32808 10.829 6.04525C10.829 4.76225 10.3865 3.67908 9.50153 2.79575C8.61653 1.91241 7.5332 1.47075 6.25153 1.47075C4.96986 1.47075 3.88736 1.91258 3.00403 2.79625C2.1207 3.67991 1.67903 4.76325 1.67903 6.04625C1.67903 7.32925 2.12078 8.41241 3.00428 9.29575C3.88795 10.1791 4.9712 10.6207 6.25403 10.6207Z" fill="white"/>
</svg>
