<svg width="15" height="19" viewBox="0 0 15 19" fill="none" xmlns="http://www.w3.org/2000/svg">
<path d="M2.1093 18.798C1.6363 18.798 1.2338 18.6321 0.901803 18.3002C0.569969 17.9682 0.404053 17.566 0.404053 17.0935V5.846C0.404053 5.3735 0.569969 4.97125 0.901803 4.63925C1.2338 4.30741 1.63705 4.14149 2.11155 4.14149H4.00505V3.89125C4.00505 2.86891 4.36597 1.99841 5.0878 1.27975C5.8098 0.561246 6.68164 0.201996 7.7033 0.201996C8.72497 0.201996 9.59739 0.562078 10.3206 1.28224C11.0437 2.00241 11.4053 2.87208 11.4053 3.89125V4.14149H13.2943C13.7676 4.14149 14.1703 4.30741 14.5023 4.63925C14.8341 4.97125 15.0001 5.3735 15.0001 5.846V17.0935C15.0001 17.566 14.8341 17.9682 14.5023 18.3002C14.1703 18.6321 13.7678 18.798 13.2948 18.798H2.1093ZM2.1108 17.399H13.2933C13.3703 17.399 13.4409 17.367 13.5051 17.303C13.5691 17.2388 13.6011 17.1682 13.6011 17.0912V5.848C13.6011 5.77116 13.5691 5.70066 13.5051 5.6365C13.4409 5.5725 13.3703 5.5405 13.2933 5.5405H11.4041V7.83849C11.4041 8.03266 11.3356 8.19816 11.1986 8.335C11.0617 8.472 10.8962 8.5405 10.7021 8.5405C10.5079 8.5405 10.3431 8.472 10.2078 8.335C10.0726 8.19816 10.0051 8.03266 10.0051 7.83849V5.5405H5.40405V7.83849C5.40405 8.03266 5.33555 8.19816 5.19855 8.335C5.06172 8.472 4.89622 8.5405 4.70205 8.5405C4.50789 8.5405 4.34314 8.472 4.2078 8.335C4.07264 8.19816 4.00505 8.03266 4.00505 7.83849V5.5405H2.1108C2.0338 5.5405 1.96322 5.5725 1.89905 5.6365C1.83505 5.70066 1.80305 5.77116 1.80305 5.848V17.0912C1.80305 17.1682 1.83505 17.2388 1.89905 17.303C1.96322 17.367 2.0338 17.399 2.1108 17.399ZM5.40405 4.14149H10.0051V3.89125C10.0051 3.25091 9.78172 2.70908 9.33505 2.26575C8.88839 1.82258 8.34447 1.60099 7.7033 1.60099C7.06214 1.60099 6.51864 1.82325 6.0728 2.26775C5.62697 2.71208 5.40405 3.25325 5.40405 3.89125V4.14149Z" fill="white"/>
</svg>
