<svg width="27" height="26" viewBox="0 0 27 26" fill="none" xmlns="http://www.w3.org/2000/svg">
<g id="telegram">
<path id="bg" d="M26.6667 4C26.6667 1.79086 24.8758 0 22.6667 0H4.66669C2.45755 0 0.666687 1.79086 0.666687 4V22C0.666687 24.2091 2.45755 26 4.66669 26H22.6667C24.8758 26 26.6667 24.2091 26.6667 22V4Z" fill="#0088CC"/>
<path id="telegram_2" d="M7.24787 12.763C10.7375 11.2426 13.0645 10.2403 14.2288 9.75599C17.5532 8.37328 18.2439 8.13309 18.6942 8.12508C18.7932 8.12342 19.0146 8.14796 19.158 8.26433C19.2791 8.3626 19.3124 8.49534 19.3284 8.58851C19.3443 8.68168 19.3642 8.89392 19.3484 9.05975C19.1683 10.9526 18.3888 15.546 17.9922 17.666C17.8244 18.563 17.494 18.8638 17.1741 18.8932C16.479 18.9572 15.9511 18.4338 15.2778 17.9925C14.2243 17.3018 13.6291 16.8719 12.6064 16.198C11.4245 15.4192 12.1907 14.9911 12.8642 14.2915C13.0405 14.1085 16.1033 11.3226 16.1626 11.0698C16.17 11.0382 16.1769 10.9204 16.1069 10.8582C16.0369 10.796 15.9336 10.8173 15.8591 10.8342C15.7534 10.8582 14.0703 11.9706 10.8098 14.1715C10.3321 14.4996 9.89939 14.6594 9.51169 14.6511C9.08428 14.6418 8.26212 14.4094 7.65092 14.2107C6.90127 13.967 6.30545 13.8382 6.35734 13.4243C6.38436 13.2088 6.6812 12.9883 7.24787 12.763Z" fill="white"/>
</g>
</svg>
