<svg width="27" height="26" viewBox="0 0 27 26" fill="none" xmlns="http://www.w3.org/2000/svg">
<rect x="0.333313" width="26" height="26" rx="4" fill="#0077FF"/>
<path d="M13.9112 17.0625C9.46968 17.0625 6.93721 14.0181 6.83331 8.94401H9.06708C9.13851 12.665 10.7749 14.2392 12.0736 14.5645V8.94401H14.171V12.1511C15.4502 12.0145 16.8008 10.5508 17.2554 8.9375H19.3463C19.1758 9.77262 18.8352 10.5635 18.3459 11.2609C17.8565 11.9582 17.2289 12.5469 16.5021 12.9902C17.3131 13.3946 18.0294 13.9666 18.6035 14.6686C19.1777 15.3705 19.5969 16.1864 19.8333 17.0625H17.5281C17.0346 15.5208 15.8008 14.3238 14.171 14.1612V17.0625H13.9177H13.9112Z" fill="white"/>
</svg>
