<svg width="26" height="26" viewBox="0 0 26 26" fill="none" xmlns="http://www.w3.org/2000/svg">
<g id="whatsapp">
<path id="bg" d="M26 4C26 1.79086 24.2091 0 22 0H4C1.79086 0 0 1.79086 0 4V22C0 24.2091 1.79086 26 4 26H22C24.2091 26 26 24.2091 26 22V4Z" fill="#25D366"/>
<path id="whatsapp_2" fill-rule="evenodd" clip-rule="evenodd" d="M17.55 8.36875C16.3313 7.15 14.7063 6.5 13 6.5C9.425 6.5 6.5 9.425 6.5 13C6.5 14.1375 6.825 15.275 7.39375 16.25L6.5 19.5L9.91251 18.6062C10.8875 19.0938 11.9437 19.4187 13 19.4187C16.575 19.4187 19.5 16.4937 19.5 12.9187C19.5 11.2125 18.7688 9.5875 17.55 8.36875ZM13 18.3625C12.025 18.3625 11.05 18.1188 10.2375 17.6313L10.075 17.55L8.04375 18.1187L8.6125 16.1687L8.45 15.925C7.88125 15.0312 7.6375 14.0563 7.6375 13.0813C7.6375 10.1563 10.075 7.71875 13 7.71875C14.4625 7.71875 15.7625 8.2875 16.8188 9.2625C17.875 10.3187 18.3625 11.6188 18.3625 13.0813C18.3625 15.925 16.0063 18.3625 13 18.3625ZM15.925 14.3C15.7625 14.2188 14.95 13.8125 14.7875 13.8125C14.625 13.7312 14.5437 13.7313 14.4625 13.8938C14.3812 14.0563 14.0563 14.3812 13.975 14.5437C13.8938 14.625 13.8125 14.625 13.65 14.625C13.4875 14.5437 13 14.3812 12.35 13.8125C11.8625 13.4062 11.5375 12.8375 11.4563 12.675C11.375 12.5125 11.4563 12.4312 11.5375 12.35C11.6188 12.2687 11.7 12.1875 11.7812 12.1062C11.8625 12.025 11.8625 11.9438 11.9438 11.8625C12.025 11.7813 11.9438 11.7 11.9438 11.6188C11.9438 11.5375 11.6188 10.725 11.4563 10.4C11.375 10.1563 11.2125 10.1562 11.1313 10.1562C11.05 10.1562 10.9687 10.1562 10.8062 10.1562C10.725 10.1562 10.5625 10.1562 10.4 10.3187C10.2375 10.4812 9.83125 10.8875 9.83125 11.7C9.83125 12.5125 10.4 13.2438 10.4812 13.4062C10.5625 13.4875 11.6187 15.1938 13.2437 15.8438C14.625 16.4125 14.8688 16.25 15.1938 16.25C15.5188 16.25 16.1687 15.8438 16.25 15.5188C16.4125 15.1125 16.4125 14.7875 16.3313 14.7875C16.25 14.3813 16.0875 14.3813 15.925 14.3Z" fill="white"/>
</g>
</svg>
