<svg width="27" height="26" viewBox="0 0 27 26" fill="none" xmlns="http://www.w3.org/2000/svg">
<path d="M0.666687 4C0.666687 1.79086 2.45755 0 4.66669 0H22.6667C24.8758 0 26.6667 1.79086 26.6667 4V22C26.6667 24.2091 24.8758 26 22.6667 26H4.66669C2.45755 26 0.666687 24.2091 0.666687 22V4Z" fill="#181818"/>
<path d="M25.7219 13.1346C25.7947 13.1324 25.8542 13.0727 25.8542 12.9999C25.8542 12.9272 25.7948 12.8675 25.7221 12.8651C20.4165 12.6931 17.9771 12.549 16.0171 10.6496C14.1177 8.68965 13.9651 6.25022 13.8013 0.944769C13.7991 0.871989 13.7394 0.8125 13.6666 0.8125C13.5939 0.8125 13.5342 0.871858 13.5318 0.944549C13.3597 6.25015 13.2157 8.68963 11.3162 10.6496C9.35634 12.549 6.9169 12.7016 1.61146 12.8654C1.53868 12.8676 1.47919 12.9273 1.47919 13.0001C1.47919 13.0728 1.53854 13.1325 1.61124 13.1349C6.91684 13.3069 9.35631 13.451 11.3162 15.3504C13.2157 17.3103 13.3683 19.7498 13.532 25.0552C13.5343 25.128 13.594 25.1875 13.6668 25.1875C13.7395 25.1875 13.7992 25.1281 13.8015 25.0555C13.9736 19.7498 14.1176 17.3104 16.0171 15.3504C17.977 13.451 20.4165 13.2984 25.7219 13.1346Z" fill="white"/>
</svg>
