<svg width="26" height="26" viewBox="0 0 26 26" fill="none" xmlns="http://www.w3.org/2000/svg">
<path d="M22 0H4C1.79086 0 0 1.79086 0 4V22C0 24.2091 1.79086 26 4 26H22C24.2091 26 26 24.2091 26 22V4C26 1.79086 24.2091 0 22 0Z" fill="#FF0000"/>
<path d="M19.175 9.83145C19.0125 9.2627 18.6063 8.85645 18.0375 8.69395C17.0625 8.4502 12.9187 8.4502 12.9187 8.4502C12.9187 8.4502 8.85626 8.4502 7.8 8.69395C7.23125 8.85645 6.825 9.2627 6.6625 9.83145C6.5 10.8877 6.5 13.0002 6.5 13.0002C6.5 13.0002 6.5 15.1127 6.74375 16.1689C6.90625 16.7377 7.3125 17.1439 7.88125 17.3064C8.85625 17.5502 13 17.5502 13 17.5502C13 17.5502 17.0625 17.5502 18.1187 17.3064C18.6875 17.1439 19.0938 16.7377 19.2563 16.1689C19.5 15.1127 19.5 13.0002 19.5 13.0002C19.5 13.0002 19.5 10.8877 19.175 9.83145ZM11.7 14.9502V11.0502L15.1125 13.0002L11.7 14.9502Z" fill="white"/>
</svg>
